<svg width="1440" height="580" viewBox="0 0 1440 580" fill="none" xmlns="http://www.w3.org/2000/svg">
<rect width="1440" height="580" fill="white"/>
<circle cx="720" cy="290" r="289" fill="white" stroke="#00E5A4" stroke-width="2"/>
<circle cx="720" cy="375" r="204" fill="white" stroke="#000E38" stroke-width="2"/>
<circle cx="719.5" cy="454.5" r="124.5" fill="white" stroke="#000E38" stroke-width="2"/>
<path d="M587.4 120H584.768L592.379 99.2727H594.97L602.581 120H599.949L593.755 102.552H593.594L587.4 120ZM588.371 111.903H598.978V114.13H588.371V111.903ZM605.485 120V104.455H607.793V106.803H607.955C608.238 106.033 608.751 105.409 609.493 104.93C610.235 104.451 611.072 104.212 612.003 104.212C612.179 104.212 612.398 104.215 612.661 104.222C612.924 104.229 613.123 104.239 613.258 104.252V106.681C613.177 106.661 612.992 106.631 612.701 106.59C612.418 106.543 612.118 106.519 611.801 106.519C611.045 106.519 610.37 106.678 609.777 106.995C609.19 107.305 608.724 107.737 608.38 108.29C608.043 108.837 607.874 109.461 607.874 110.163V120H605.485ZM623.824 104.455V106.479H615.768V104.455H623.824ZM618.116 100.73H620.505V115.547C620.505 116.222 620.602 116.728 620.798 117.065C621 117.396 621.257 117.618 621.567 117.733C621.884 117.841 622.218 117.895 622.569 117.895C622.832 117.895 623.048 117.881 623.217 117.854C623.386 117.821 623.521 117.794 623.622 117.773L624.108 119.919C623.946 119.98 623.72 120.04 623.429 120.101C623.139 120.169 622.772 120.202 622.326 120.202C621.652 120.202 620.99 120.057 620.343 119.767C619.702 119.477 619.169 119.035 618.744 118.441C618.325 117.848 618.116 117.099 618.116 116.195V100.73ZM627.417 120V104.455H629.806V120H627.417ZM628.632 101.864C628.166 101.864 627.765 101.705 627.427 101.388C627.097 101.071 626.931 100.69 626.931 100.244C626.931 99.799 627.097 99.4178 627.427 99.1007C627.765 98.7836 628.166 98.625 628.632 98.625C629.097 98.625 629.495 98.7836 629.826 99.1007C630.163 99.4178 630.332 99.799 630.332 100.244C630.332 100.69 630.163 101.071 629.826 101.388C629.495 101.705 629.097 101.864 628.632 101.864ZM641.103 104.455V106.479H632.723V104.455H641.103ZM635.233 120V102.309C635.233 101.418 635.442 100.676 635.86 100.082C636.279 99.4886 636.822 99.0433 637.49 98.7464C638.158 98.4496 638.863 98.3011 639.605 98.3011C640.192 98.3011 640.671 98.3484 641.042 98.4428C641.413 98.5373 641.69 98.625 641.872 98.706L641.184 100.771C641.062 100.73 640.894 100.68 640.678 100.619C640.469 100.558 640.192 100.528 639.848 100.528C639.058 100.528 638.488 100.727 638.137 101.125C637.793 101.523 637.621 102.107 637.621 102.876V120H635.233ZM644.45 120V104.455H646.839V120H644.45ZM645.665 101.864C645.199 101.864 644.798 101.705 644.46 101.388C644.13 101.071 643.964 100.69 643.964 100.244C643.964 99.799 644.13 99.4178 644.46 99.1007C644.798 98.7836 645.199 98.625 645.665 98.625C646.13 98.625 646.528 98.7836 646.859 99.1007C647.196 99.4178 647.365 99.799 647.365 100.244C647.365 100.69 647.196 101.071 646.859 101.388C646.528 101.705 646.13 101.864 645.665 101.864ZM657.529 120.324C656.071 120.324 654.816 119.98 653.764 119.292C652.711 118.603 651.902 117.655 651.335 116.448C650.768 115.24 650.485 113.86 650.485 112.308C650.485 110.729 650.775 109.336 651.355 108.128C651.942 106.914 652.759 105.966 653.804 105.284C654.857 104.596 656.085 104.252 657.488 104.252C658.581 104.252 659.566 104.455 660.444 104.859C661.321 105.264 662.039 105.831 662.599 106.56C663.159 107.288 663.507 108.138 663.642 109.11H661.253C661.071 108.402 660.666 107.774 660.039 107.228C659.418 106.674 658.581 106.398 657.529 106.398C656.598 106.398 655.781 106.641 655.08 107.126C654.385 107.605 653.841 108.284 653.45 109.161C653.066 110.031 652.873 111.053 652.873 112.227C652.873 113.428 653.062 114.474 653.44 115.365C653.825 116.255 654.364 116.947 655.059 117.439C655.761 117.932 656.584 118.178 657.529 118.178C658.15 118.178 658.713 118.07 659.219 117.854C659.725 117.638 660.153 117.328 660.504 116.923C660.855 116.518 661.105 116.033 661.253 115.466H663.642C663.507 116.384 663.173 117.21 662.64 117.945C662.113 118.674 661.415 119.254 660.545 119.686C659.681 120.111 658.676 120.324 657.529 120.324ZM667.133 120V104.455H669.522V120H667.133ZM668.348 101.864C667.882 101.864 667.481 101.705 667.143 101.388C666.813 101.071 666.648 100.69 666.648 100.244C666.648 99.799 666.813 99.4178 667.143 99.1007C667.481 98.7836 667.882 98.625 668.348 98.625C668.813 98.625 669.211 98.7836 669.542 99.1007C669.879 99.4178 670.048 99.799 670.048 100.244C670.048 100.69 669.879 101.071 669.542 101.388C669.211 101.705 668.813 101.864 668.348 101.864ZM678.471 120.364C677.486 120.364 676.592 120.179 675.789 119.808C674.986 119.43 674.349 118.887 673.876 118.178C673.404 117.463 673.168 116.599 673.168 115.587C673.168 114.697 673.343 113.975 673.694 113.422C674.045 112.862 674.514 112.423 675.101 112.106C675.688 111.789 676.336 111.553 677.044 111.397C677.759 111.235 678.478 111.107 679.2 111.013C680.144 110.891 680.91 110.8 681.497 110.74C682.091 110.672 682.523 110.561 682.793 110.406C683.069 110.25 683.208 109.98 683.208 109.596V109.515C683.208 108.516 682.934 107.74 682.388 107.187C681.848 106.634 681.028 106.357 679.928 106.357C678.788 106.357 677.894 106.607 677.246 107.106C676.599 107.605 676.143 108.138 675.88 108.705L673.613 107.896C674.018 106.951 674.558 106.216 675.232 105.689C675.914 105.156 676.656 104.785 677.459 104.576C678.269 104.36 679.065 104.252 679.848 104.252C680.347 104.252 680.92 104.313 681.568 104.434C682.223 104.549 682.853 104.789 683.461 105.153C684.075 105.517 684.584 106.067 684.989 106.803C685.394 107.538 685.596 108.523 685.596 109.758V120H683.208V117.895H683.086C682.924 118.232 682.654 118.593 682.277 118.978C681.899 119.362 681.396 119.69 680.769 119.96C680.141 120.229 679.375 120.364 678.471 120.364ZM678.835 118.219C679.78 118.219 680.576 118.033 681.224 117.662C681.878 117.291 682.371 116.812 682.702 116.225C683.039 115.638 683.208 115.021 683.208 114.373V112.187C683.106 112.308 682.884 112.42 682.54 112.521C682.202 112.615 681.811 112.7 681.366 112.774C680.927 112.841 680.499 112.902 680.08 112.956C679.669 113.003 679.335 113.044 679.078 113.077C678.458 113.158 677.877 113.29 677.338 113.472C676.805 113.648 676.373 113.914 676.042 114.272C675.718 114.623 675.556 115.102 675.556 115.709C675.556 116.539 675.863 117.166 676.477 117.591C677.098 118.01 677.884 118.219 678.835 118.219ZM692.344 99.2727V120H689.956V99.2727H692.344ZM707.568 99.2727V120H705.058V99.2727H707.568ZM714.665 110.648V120H712.277V104.455H714.584V106.884H714.787C715.151 106.094 715.704 105.46 716.447 104.981C717.189 104.495 718.147 104.252 719.321 104.252C720.373 104.252 721.294 104.468 722.084 104.9C722.873 105.325 723.487 105.973 723.926 106.843C724.364 107.707 724.584 108.8 724.584 110.122V120H722.195V110.284C722.195 109.063 721.878 108.112 721.244 107.43C720.61 106.742 719.739 106.398 718.633 106.398C717.87 106.398 717.189 106.563 716.588 106.894C715.995 107.224 715.526 107.707 715.182 108.341C714.837 108.975 714.665 109.744 714.665 110.648ZM735.709 104.455V106.479H727.653V104.455H735.709ZM730.001 100.73H732.389V115.547C732.389 116.222 732.487 116.728 732.683 117.065C732.885 117.396 733.142 117.618 733.452 117.733C733.769 117.841 734.103 117.895 734.454 117.895C734.717 117.895 734.933 117.881 735.102 117.854C735.27 117.821 735.405 117.794 735.507 117.773L735.992 119.919C735.83 119.98 735.604 120.04 735.314 120.101C735.024 120.169 734.656 120.202 734.211 120.202C733.536 120.202 732.875 120.057 732.227 119.767C731.586 119.477 731.053 119.035 730.628 118.441C730.21 117.848 730.001 117.099 730.001 116.195V100.73ZM745.653 120.324C744.155 120.324 742.863 119.993 741.776 119.332C740.697 118.664 739.864 117.733 739.277 116.539C738.696 115.338 738.406 113.941 738.406 112.349C738.406 110.756 738.696 109.353 739.277 108.138C739.864 106.917 740.68 105.966 741.726 105.284C742.778 104.596 744.006 104.252 745.41 104.252C746.219 104.252 747.019 104.387 747.808 104.657C748.598 104.927 749.316 105.365 749.964 105.973C750.612 106.573 751.128 107.369 751.512 108.361C751.897 109.353 752.089 110.574 752.089 112.025V113.037H740.106V110.972H749.66C749.66 110.095 749.485 109.312 749.134 108.624C748.79 107.936 748.297 107.393 747.656 106.995C747.022 106.597 746.273 106.398 745.41 106.398C744.458 106.398 743.635 106.634 742.94 107.106C742.252 107.572 741.722 108.179 741.351 108.928C740.98 109.677 740.795 110.48 740.795 111.337V112.713C740.795 113.887 740.997 114.882 741.402 115.699C741.813 116.508 742.384 117.126 743.112 117.551C743.841 117.969 744.688 118.178 745.653 118.178C746.28 118.178 746.847 118.091 747.353 117.915C747.866 117.733 748.308 117.463 748.679 117.105C749.05 116.741 749.337 116.289 749.539 115.749L751.846 116.397C751.604 117.18 751.195 117.868 750.622 118.462C750.048 119.049 749.34 119.507 748.496 119.838C747.653 120.162 746.705 120.324 745.653 120.324ZM758.111 99.2727V120H755.723V99.2727H758.111ZM764.874 99.2727V120H762.486V99.2727H764.874ZM769.249 120V104.455H771.638V120H769.249ZM770.464 101.864C769.998 101.864 769.597 101.705 769.259 101.388C768.929 101.071 768.763 100.69 768.763 100.244C768.763 99.799 768.929 99.4178 769.259 99.1007C769.597 98.7836 769.998 98.625 770.464 98.625C770.929 98.625 771.327 98.7836 771.658 99.1007C771.995 99.4178 772.164 99.799 772.164 100.244C772.164 100.69 771.995 101.071 771.658 101.388C771.327 101.705 770.929 101.864 770.464 101.864ZM782.287 126.153C781.133 126.153 780.142 126.005 779.312 125.708C778.482 125.418 777.79 125.033 777.237 124.554C776.69 124.082 776.255 123.576 775.931 123.036L777.834 121.7C778.05 121.984 778.323 122.308 778.654 122.672C778.984 123.043 779.436 123.363 780.01 123.633C780.59 123.91 781.349 124.048 782.287 124.048C783.542 124.048 784.578 123.745 785.394 123.137C786.211 122.53 786.619 121.579 786.619 120.283V117.126H786.416C786.241 117.409 785.991 117.76 785.667 118.178C785.35 118.59 784.892 118.958 784.291 119.281C783.697 119.599 782.894 119.757 781.882 119.757C780.627 119.757 779.501 119.46 778.502 118.866C777.51 118.273 776.724 117.409 776.144 116.276C775.57 115.142 775.284 113.766 775.284 112.146C775.284 110.554 775.564 109.167 776.124 107.987C776.684 106.799 777.463 105.882 778.461 105.234C779.46 104.579 780.614 104.252 781.923 104.252C782.935 104.252 783.738 104.421 784.331 104.758C784.932 105.089 785.391 105.467 785.708 105.892C786.032 106.31 786.281 106.654 786.457 106.924H786.7V104.455H789.007V120.445C789.007 121.781 788.704 122.868 788.096 123.704C787.496 124.548 786.686 125.165 785.667 125.556C784.655 125.954 783.529 126.153 782.287 126.153ZM782.206 117.612C783.164 117.612 783.974 117.392 784.635 116.954C785.296 116.515 785.799 115.884 786.143 115.061C786.487 114.238 786.659 113.253 786.659 112.106C786.659 110.986 786.491 109.997 786.153 109.14C785.816 108.284 785.317 107.612 784.655 107.126C783.994 106.641 783.178 106.398 782.206 106.398C781.194 106.398 780.351 106.654 779.676 107.167C779.008 107.68 778.505 108.368 778.168 109.232C777.837 110.095 777.672 111.053 777.672 112.106C777.672 113.185 777.841 114.14 778.178 114.97C778.522 115.793 779.028 116.441 779.696 116.913C780.371 117.379 781.208 117.612 782.206 117.612ZM799.897 120.324C798.399 120.324 797.107 119.993 796.021 119.332C794.941 118.664 794.108 117.733 793.521 116.539C792.941 115.338 792.651 113.941 792.651 112.349C792.651 110.756 792.941 109.353 793.521 108.138C794.108 106.917 794.925 105.966 795.97 105.284C797.023 104.596 798.251 104.252 799.654 104.252C800.464 104.252 801.263 104.387 802.053 104.657C802.842 104.927 803.561 105.365 804.209 105.973C804.856 106.573 805.373 107.369 805.757 108.361C806.142 109.353 806.334 110.574 806.334 112.025V113.037H794.351V110.972H803.905C803.905 110.095 803.73 109.312 803.379 108.624C803.035 107.936 802.542 107.393 801.901 106.995C801.267 106.597 800.518 106.398 799.654 106.398C798.703 106.398 797.88 106.634 797.185 107.106C796.497 107.572 795.967 108.179 795.596 108.928C795.225 109.677 795.039 110.48 795.039 111.337V112.713C795.039 113.887 795.242 114.882 795.646 115.699C796.058 116.508 796.628 117.126 797.357 117.551C798.086 117.969 798.932 118.178 799.897 118.178C800.525 118.178 801.091 118.091 801.597 117.915C802.11 117.733 802.552 117.463 802.923 117.105C803.294 116.741 803.581 116.289 803.784 115.749L806.091 116.397C805.848 117.18 805.44 117.868 804.866 118.462C804.293 119.049 803.585 119.507 802.741 119.838C801.898 120.162 800.95 120.324 799.897 120.324ZM812.356 110.648V120H809.967V104.455H812.275V106.884H812.477C812.842 106.094 813.395 105.46 814.137 104.981C814.879 104.495 815.837 104.252 817.011 104.252C818.064 104.252 818.985 104.468 819.774 104.9C820.564 105.325 821.178 105.973 821.616 106.843C822.055 107.707 822.274 108.8 822.274 110.122V120H819.886V110.284C819.886 109.063 819.569 108.112 818.934 107.43C818.3 106.742 817.43 106.398 816.323 106.398C815.561 106.398 814.879 106.563 814.279 106.894C813.685 107.224 813.216 107.707 812.872 108.341C812.528 108.975 812.356 109.744 812.356 110.648ZM832.954 120.324C831.497 120.324 830.242 119.98 829.189 119.292C828.137 118.603 827.327 117.655 826.76 116.448C826.193 115.24 825.91 113.86 825.91 112.308C825.91 110.729 826.2 109.336 826.78 108.128C827.367 106.914 828.184 105.966 829.23 105.284C830.282 104.596 831.51 104.252 832.914 104.252C834.007 104.252 834.992 104.455 835.869 104.859C836.746 105.264 837.465 105.831 838.025 106.56C838.585 107.288 838.932 108.138 839.067 109.11H836.678C836.496 108.402 836.091 107.774 835.464 107.228C834.843 106.674 834.007 106.398 832.954 106.398C832.023 106.398 831.207 106.641 830.505 107.126C829.81 107.605 829.267 108.284 828.875 109.161C828.491 110.031 828.299 111.053 828.299 112.227C828.299 113.428 828.487 114.474 828.865 115.365C829.25 116.255 829.79 116.947 830.485 117.439C831.186 117.932 832.009 118.178 832.954 118.178C833.575 118.178 834.138 118.07 834.644 117.854C835.15 117.638 835.579 117.328 835.93 116.923C836.28 116.518 836.53 116.033 836.678 115.466H839.067C838.932 116.384 838.598 117.21 838.065 117.945C837.539 118.674 836.84 119.254 835.97 119.686C835.106 120.111 834.101 120.324 832.954 120.324ZM849.076 120.324C847.579 120.324 846.286 119.993 845.2 119.332C844.121 118.664 843.287 117.733 842.7 116.539C842.12 115.338 841.83 113.941 841.83 112.349C841.83 110.756 842.12 109.353 842.7 108.138C843.287 106.917 844.104 105.966 845.15 105.284C846.202 104.596 847.43 104.252 848.833 104.252C849.643 104.252 850.443 104.387 851.232 104.657C852.022 104.927 852.74 105.365 853.388 105.973C854.036 106.573 854.552 107.369 854.936 108.361C855.321 109.353 855.513 110.574 855.513 112.025V113.037H843.53V110.972H853.084C853.084 110.095 852.909 109.312 852.558 108.624C852.214 107.936 851.721 107.393 851.08 106.995C850.446 106.597 849.697 106.398 848.833 106.398C847.882 106.398 847.059 106.634 846.364 107.106C845.676 107.572 845.146 108.179 844.775 108.928C844.404 109.677 844.218 110.48 844.218 111.337V112.713C844.218 113.887 844.421 114.882 844.826 115.699C845.237 116.508 845.807 117.126 846.536 117.551C847.265 117.969 848.112 118.178 849.076 118.178C849.704 118.178 850.271 118.091 850.777 117.915C851.289 117.733 851.731 117.463 852.102 117.105C852.474 116.741 852.76 116.289 852.963 115.749L855.27 116.397C855.027 117.18 854.619 117.868 854.046 118.462C853.472 119.049 852.764 119.507 851.92 119.838C851.077 120.162 850.129 120.324 849.076 120.324Z" fill="black"/>
<path d="M603.527 269.273H606.523L613.567 286.478H613.81L620.854 269.273H623.849V290H621.501V274.252H621.299L614.822 290H612.555L606.077 274.252H605.875V290H603.527V269.273ZM633.133 290.364C632.148 290.364 631.254 290.179 630.451 289.808C629.648 289.43 629.01 288.887 628.538 288.178C628.066 287.463 627.829 286.599 627.829 285.587C627.829 284.697 628.005 283.975 628.356 283.422C628.707 282.862 629.176 282.423 629.763 282.106C630.35 281.789 630.997 281.553 631.706 281.397C632.421 281.235 633.139 281.107 633.861 281.013C634.806 280.891 635.572 280.8 636.159 280.74C636.753 280.672 637.184 280.561 637.454 280.406C637.731 280.25 637.869 279.98 637.869 279.596V279.515C637.869 278.516 637.596 277.74 637.049 277.187C636.51 276.634 635.69 276.357 634.59 276.357C633.45 276.357 632.556 276.607 631.908 277.106C631.26 277.605 630.805 278.138 630.542 278.705L628.275 277.896C628.68 276.951 629.219 276.216 629.894 275.689C630.576 275.156 631.318 274.785 632.121 274.576C632.93 274.36 633.726 274.252 634.509 274.252C635.008 274.252 635.582 274.313 636.23 274.434C636.884 274.549 637.515 274.789 638.122 275.153C638.736 275.517 639.246 276.067 639.65 276.803C640.055 277.538 640.258 278.523 640.258 279.758V290H637.869V287.895H637.748C637.586 288.232 637.316 288.593 636.938 288.978C636.56 289.362 636.058 289.69 635.43 289.96C634.803 290.229 634.037 290.364 633.133 290.364ZM633.497 288.219C634.442 288.219 635.238 288.033 635.886 287.662C636.54 287.291 637.033 286.812 637.363 286.225C637.701 285.638 637.869 285.021 637.869 284.373V282.187C637.768 282.308 637.545 282.42 637.201 282.521C636.864 282.615 636.473 282.7 636.027 282.774C635.589 282.841 635.16 282.902 634.742 282.956C634.33 283.003 633.996 283.044 633.74 283.077C633.119 283.158 632.539 283.29 631.999 283.472C631.466 283.648 631.034 283.914 630.704 284.272C630.38 284.623 630.218 285.102 630.218 285.709C630.218 286.539 630.525 287.166 631.139 287.591C631.76 288.01 632.546 288.219 633.497 288.219ZM650.933 290.324C649.475 290.324 648.22 289.98 647.168 289.292C646.115 288.603 645.305 287.655 644.739 286.448C644.172 285.24 643.889 283.86 643.889 282.308C643.889 280.729 644.179 279.336 644.759 278.128C645.346 276.914 646.162 275.966 647.208 275.284C648.261 274.596 649.489 274.252 650.892 274.252C651.985 274.252 652.97 274.455 653.847 274.859C654.724 275.264 655.443 275.831 656.003 276.56C656.563 277.288 656.911 278.138 657.045 279.11H654.657C654.475 278.402 654.07 277.774 653.443 277.228C652.822 276.674 651.985 276.398 650.933 276.398C650.001 276.398 649.185 276.641 648.483 277.126C647.788 277.605 647.245 278.284 646.854 279.161C646.469 280.031 646.277 281.053 646.277 282.227C646.277 283.428 646.466 284.474 646.844 285.365C647.228 286.255 647.768 286.947 648.463 287.439C649.165 287.932 649.988 288.178 650.933 288.178C651.553 288.178 652.117 288.07 652.623 287.854C653.129 287.638 653.557 287.328 653.908 286.923C654.259 286.518 654.509 286.033 654.657 285.466H657.045C656.911 286.384 656.577 287.21 656.044 287.945C655.517 288.674 654.819 289.254 653.949 289.686C653.085 290.111 652.08 290.324 650.933 290.324ZM662.926 280.648V290H660.537V269.273H662.926V276.884H663.128C663.492 276.081 664.039 275.443 664.768 274.971C665.503 274.492 666.481 274.252 667.703 274.252C668.762 274.252 669.69 274.465 670.486 274.89C671.282 275.308 671.899 275.952 672.338 276.823C672.783 277.686 673.006 278.786 673.006 280.122V290H670.617V280.284C670.617 279.049 670.297 278.095 669.656 277.42C669.022 276.738 668.141 276.398 667.014 276.398C666.232 276.398 665.53 276.563 664.909 276.894C664.295 277.224 663.81 277.707 663.452 278.341C663.101 278.975 662.926 279.744 662.926 280.648ZM677.376 290V274.455H679.764V290H677.376ZM678.59 271.864C678.124 271.864 677.723 271.705 677.386 271.388C677.055 271.071 676.89 270.69 676.89 270.244C676.89 269.799 677.055 269.418 677.386 269.101C677.723 268.784 678.124 268.625 678.59 268.625C679.056 268.625 679.454 268.784 679.784 269.101C680.122 269.418 680.29 269.799 680.29 270.244C680.29 270.69 680.122 271.071 679.784 271.388C679.454 271.705 679.056 271.864 678.59 271.864ZM686.527 280.648V290H684.139V274.455H686.446V276.884H686.649C687.013 276.094 687.566 275.46 688.308 274.981C689.051 274.495 690.009 274.252 691.183 274.252C692.235 274.252 693.156 274.468 693.946 274.9C694.735 275.325 695.349 275.973 695.788 276.843C696.226 277.707 696.446 278.8 696.446 280.122V290H694.057V280.284C694.057 279.063 693.74 278.112 693.106 277.43C692.471 276.742 691.601 276.398 690.495 276.398C689.732 276.398 689.051 276.563 688.45 276.894C687.856 277.224 687.387 277.707 687.043 278.341C686.699 278.975 686.527 279.744 686.527 280.648ZM707.328 290.324C705.83 290.324 704.538 289.993 703.452 289.332C702.372 288.664 701.539 287.733 700.952 286.539C700.372 285.338 700.081 283.941 700.081 282.349C700.081 280.756 700.372 279.353 700.952 278.138C701.539 276.917 702.355 275.966 703.401 275.284C704.454 274.596 705.682 274.252 707.085 274.252C707.895 274.252 708.694 274.387 709.484 274.657C710.273 274.927 710.992 275.365 711.639 275.973C712.287 276.573 712.803 277.369 713.188 278.361C713.572 279.353 713.765 280.574 713.765 282.025V283.037H701.782V280.972H711.336C711.336 280.095 711.16 279.312 710.809 278.624C710.465 277.936 709.973 277.393 709.332 276.995C708.698 276.597 707.949 276.398 707.085 276.398C706.134 276.398 705.31 276.634 704.616 277.106C703.927 277.572 703.398 278.179 703.027 278.928C702.655 279.677 702.47 280.48 702.47 281.337V282.713C702.47 283.887 702.672 284.882 703.077 285.699C703.489 286.508 704.059 287.126 704.788 287.551C705.516 287.969 706.363 288.178 707.328 288.178C707.955 288.178 708.522 288.091 709.028 287.915C709.541 287.733 709.983 287.463 710.354 287.105C710.725 286.741 711.012 286.289 711.214 285.749L713.522 286.397C713.279 287.18 712.871 287.868 712.297 288.462C711.724 289.049 711.015 289.507 710.172 289.838C709.328 290.162 708.38 290.324 707.328 290.324ZM725.737 290V269.273H728.247V287.773H737.882V290H725.737ZM747.963 290.324C746.465 290.324 745.173 289.993 744.086 289.332C743.007 288.664 742.174 287.733 741.587 286.539C741.006 285.338 740.716 283.941 740.716 282.349C740.716 280.756 741.006 279.353 741.587 278.138C742.174 276.917 742.99 275.966 744.036 275.284C745.088 274.596 746.316 274.252 747.72 274.252C748.529 274.252 749.329 274.387 750.118 274.657C750.908 274.927 751.626 275.365 752.274 275.973C752.922 276.573 753.438 277.369 753.823 278.361C754.207 279.353 754.399 280.574 754.399 282.025V283.037H742.416V280.972H751.97C751.97 280.095 751.795 279.312 751.444 278.624C751.1 277.936 750.608 277.393 749.967 276.995C749.332 276.597 748.583 276.398 747.72 276.398C746.768 276.398 745.945 276.634 745.25 277.106C744.562 277.572 744.032 278.179 743.661 278.928C743.29 279.677 743.105 280.48 743.105 281.337V282.713C743.105 283.887 743.307 284.882 743.712 285.699C744.123 286.508 744.694 287.126 745.422 287.551C746.151 287.969 746.998 288.178 747.963 288.178C748.59 288.178 749.157 288.091 749.663 287.915C750.176 287.733 750.618 287.463 750.989 287.105C751.36 286.741 751.647 286.289 751.849 285.749L754.157 286.397C753.914 287.18 753.505 287.868 752.932 288.462C752.358 289.049 751.65 289.507 750.807 289.838C749.963 290.162 749.015 290.324 747.963 290.324ZM762.607 290.364C761.622 290.364 760.728 290.179 759.925 289.808C759.122 289.43 758.485 288.887 758.013 288.178C757.54 287.463 757.304 286.599 757.304 285.587C757.304 284.697 757.479 283.975 757.83 283.422C758.181 282.862 758.65 282.423 759.237 282.106C759.824 281.789 760.472 281.553 761.18 281.397C761.896 281.235 762.614 281.107 763.336 281.013C764.281 280.891 765.046 280.8 765.633 280.74C766.227 280.672 766.659 280.561 766.929 280.406C767.206 280.25 767.344 279.98 767.344 279.596V279.515C767.344 278.516 767.071 277.74 766.524 277.187C765.984 276.634 765.165 276.357 764.065 276.357C762.924 276.357 762.03 276.607 761.383 277.106C760.735 277.605 760.28 278.138 760.016 278.705L757.749 277.896C758.154 276.951 758.694 276.216 759.369 275.689C760.05 275.156 760.792 274.785 761.595 274.576C762.405 274.36 763.201 274.252 763.984 274.252C764.483 274.252 765.057 274.313 765.704 274.434C766.359 274.549 766.99 274.789 767.597 275.153C768.211 275.517 768.72 276.067 769.125 276.803C769.53 277.538 769.732 278.523 769.732 279.758V290H767.344V287.895H767.222C767.06 288.232 766.791 288.593 766.413 288.978C766.035 289.362 765.532 289.69 764.905 289.96C764.277 290.229 763.511 290.364 762.607 290.364ZM762.972 288.219C763.916 288.219 764.712 288.033 765.36 287.662C766.015 287.291 766.507 286.812 766.838 286.225C767.175 285.638 767.344 285.021 767.344 284.373V282.187C767.243 282.308 767.02 282.42 766.676 282.521C766.339 282.615 765.947 282.7 765.502 282.774C765.063 282.841 764.635 282.902 764.217 282.956C763.805 283.003 763.471 283.044 763.215 283.077C762.594 283.158 762.014 283.29 761.474 283.472C760.941 283.648 760.509 283.914 760.178 284.272C759.854 284.623 759.693 285.102 759.693 285.709C759.693 286.539 760 287.166 760.614 287.591C761.234 288.01 762.02 288.219 762.972 288.219ZM774.092 290V274.455H776.399V276.803H776.561C776.845 276.033 777.357 275.409 778.1 274.93C778.842 274.451 779.678 274.212 780.61 274.212C780.785 274.212 781.004 274.215 781.267 274.222C781.531 274.229 781.73 274.239 781.865 274.252V276.681C781.784 276.661 781.598 276.631 781.308 276.59C781.025 276.543 780.724 276.519 780.407 276.519C779.652 276.519 778.977 276.678 778.383 276.995C777.796 277.305 777.33 277.737 776.986 278.29C776.649 278.837 776.48 279.461 776.48 280.163V290H774.092ZM787.084 280.648V290H784.696V274.455H787.003V276.884H787.206C787.57 276.094 788.123 275.46 788.866 274.981C789.608 274.495 790.566 274.252 791.74 274.252C792.792 274.252 793.713 274.468 794.503 274.9C795.292 275.325 795.906 275.973 796.345 276.843C796.783 277.707 797.003 278.8 797.003 280.122V290H794.614V280.284C794.614 279.063 794.297 278.112 793.663 277.43C793.029 276.742 792.158 276.398 791.052 276.398C790.289 276.398 789.608 276.563 789.007 276.894C788.414 277.224 787.945 277.707 787.6 278.341C787.256 278.975 787.084 279.744 787.084 280.648ZM801.367 290V274.455H803.756V290H801.367ZM802.582 271.864C802.116 271.864 801.715 271.705 801.377 271.388C801.047 271.071 800.881 270.69 800.881 270.244C800.881 269.799 801.047 269.418 801.377 269.101C801.715 268.784 802.116 268.625 802.582 268.625C803.047 268.625 803.445 268.784 803.776 269.101C804.113 269.418 804.282 269.799 804.282 270.244C804.282 270.69 804.113 271.071 803.776 271.388C803.445 271.705 803.047 271.864 802.582 271.864ZM810.519 280.648V290H808.13V274.455H810.438V276.884H810.64C811.005 276.094 811.558 275.46 812.3 274.981C813.042 274.495 814 274.252 815.174 274.252C816.227 274.252 817.148 274.468 817.937 274.9C818.727 275.325 819.341 275.973 819.779 276.843C820.218 277.707 820.437 278.8 820.437 280.122V290H818.049V280.284C818.049 279.063 817.732 278.112 817.097 277.43C816.463 276.742 815.593 276.398 814.486 276.398C813.724 276.398 813.042 276.563 812.442 276.894C811.848 277.224 811.379 277.707 811.035 278.341C810.691 278.975 810.519 279.744 810.519 280.648ZM831.077 296.153C829.923 296.153 828.931 296.005 828.101 295.708C827.271 295.418 826.58 295.033 826.026 294.554C825.48 294.082 825.045 293.576 824.721 293.036L826.624 291.7C826.839 291.984 827.113 292.308 827.443 292.672C827.774 293.043 828.226 293.363 828.799 293.633C829.38 293.91 830.139 294.048 831.077 294.048C832.332 294.048 833.367 293.745 834.184 293.137C835 292.53 835.408 291.579 835.408 290.283V287.126H835.206C835.03 287.409 834.781 287.76 834.457 288.178C834.14 288.59 833.681 288.958 833.081 289.281C832.487 289.599 831.684 289.757 830.672 289.757C829.417 289.757 828.29 289.46 827.292 288.866C826.3 288.273 825.514 287.409 824.933 286.276C824.36 285.142 824.073 283.766 824.073 282.146C824.073 280.554 824.353 279.167 824.913 277.987C825.473 276.799 826.252 275.882 827.251 275.234C828.25 274.579 829.403 274.252 830.712 274.252C831.724 274.252 832.527 274.421 833.121 274.758C833.722 275.089 834.18 275.467 834.497 275.892C834.821 276.31 835.071 276.654 835.246 276.924H835.489V274.455H837.797V290.445C837.797 291.781 837.493 292.868 836.886 293.704C836.285 294.548 835.476 295.165 834.457 295.556C833.445 295.954 832.318 296.153 831.077 296.153ZM830.996 287.612C831.954 287.612 832.763 287.392 833.425 286.954C834.086 286.515 834.589 285.884 834.933 285.061C835.277 284.238 835.449 283.253 835.449 282.106C835.449 280.986 835.28 279.997 834.943 279.14C834.605 278.284 834.106 277.612 833.445 277.126C832.784 276.641 831.967 276.398 830.996 276.398C829.984 276.398 829.14 276.654 828.466 277.167C827.798 277.68 827.295 278.368 826.958 279.232C826.627 280.095 826.462 281.053 826.462 282.106C826.462 283.185 826.63 284.14 826.968 284.97C827.312 285.793 827.818 286.441 828.486 286.913C829.16 287.379 829.997 287.612 830.996 287.612Z" fill="black"/>
<path d="M689.885 447H683.488V426.273H690.168C692.179 426.273 693.899 426.688 695.33 427.518C696.76 428.341 697.857 429.525 698.619 431.07C699.381 432.608 699.763 434.45 699.763 436.596C699.763 438.755 699.378 440.614 698.609 442.172C697.84 443.724 696.72 444.919 695.249 445.755C693.778 446.585 691.99 447 689.885 447ZM685.998 444.773H689.723C691.437 444.773 692.857 444.443 693.984 443.782C695.11 443.12 695.95 442.179 696.504 440.958C697.057 439.737 697.334 438.283 697.334 436.596C697.334 434.923 697.06 433.482 696.514 432.274C695.967 431.06 695.151 430.129 694.065 429.481C692.978 428.827 691.626 428.499 690.006 428.499H685.998V444.773ZM710.167 447.324C708.669 447.324 707.377 446.993 706.29 446.332C705.211 445.664 704.378 444.733 703.791 443.539C703.21 442.338 702.92 440.941 702.92 439.349C702.92 437.756 703.21 436.353 703.791 435.138C704.378 433.917 705.194 432.966 706.24 432.284C707.292 431.596 708.52 431.252 709.924 431.252C710.733 431.252 711.533 431.387 712.322 431.657C713.112 431.927 713.83 432.365 714.478 432.973C715.126 433.573 715.642 434.369 716.027 435.361C716.411 436.353 716.604 437.574 716.604 439.025V440.037H704.621V437.972H714.175C714.175 437.095 713.999 436.312 713.648 435.624C713.304 434.936 712.812 434.393 712.171 433.995C711.536 433.597 710.787 433.398 709.924 433.398C708.972 433.398 708.149 433.634 707.454 434.106C706.766 434.572 706.237 435.179 705.865 435.928C705.494 436.677 705.309 437.48 705.309 438.337V439.713C705.309 440.887 705.511 441.882 705.916 442.699C706.328 443.508 706.898 444.126 707.626 444.551C708.355 444.969 709.202 445.178 710.167 445.178C710.794 445.178 711.361 445.091 711.867 444.915C712.38 444.733 712.822 444.463 713.193 444.105C713.564 443.741 713.851 443.289 714.053 442.749L716.361 443.397C716.118 444.18 715.71 444.868 715.136 445.462C714.563 446.049 713.854 446.507 713.011 446.838C712.167 447.162 711.219 447.324 710.167 447.324ZM726.755 447.324C725.257 447.324 723.965 446.993 722.878 446.332C721.799 445.664 720.966 444.733 720.379 443.539C719.798 442.338 719.508 440.941 719.508 439.349C719.508 437.756 719.798 436.353 720.379 435.138C720.966 433.917 721.782 432.966 722.828 432.284C723.88 431.596 725.108 431.252 726.512 431.252C727.321 431.252 728.121 431.387 728.91 431.657C729.7 431.927 730.418 432.365 731.066 432.973C731.714 433.573 732.23 434.369 732.615 435.361C732.999 436.353 733.191 437.574 733.191 439.025V440.037H721.208V437.972H730.762C730.762 437.095 730.587 436.312 730.236 435.624C729.892 434.936 729.4 434.393 728.759 433.995C728.124 433.597 727.375 433.398 726.512 433.398C725.56 433.398 724.737 433.634 724.042 434.106C723.354 434.572 722.824 435.179 722.453 435.928C722.082 436.677 721.897 437.48 721.897 438.337V439.713C721.897 440.887 722.099 441.882 722.504 442.699C722.915 443.508 723.486 444.126 724.214 444.551C724.943 444.969 725.79 445.178 726.755 445.178C727.382 445.178 727.949 445.091 728.455 444.915C728.968 444.733 729.41 444.463 729.781 444.105C730.152 443.741 730.439 443.289 730.641 442.749L732.949 443.397C732.706 444.18 732.297 444.868 731.724 445.462C731.15 446.049 730.442 446.507 729.599 446.838C728.755 447.162 727.807 447.324 726.755 447.324ZM736.825 452.83V431.455H739.132V433.924H739.416C739.591 433.654 739.834 433.31 740.144 432.892C740.461 432.467 740.914 432.089 741.501 431.758C742.094 431.421 742.897 431.252 743.909 431.252C745.218 431.252 746.372 431.579 747.371 432.234C748.369 432.888 749.148 433.816 749.708 435.017C750.268 436.218 750.548 437.635 750.548 439.268C750.548 440.914 750.268 442.341 749.708 443.549C749.148 444.75 748.373 445.681 747.381 446.342C746.389 446.997 745.245 447.324 743.95 447.324C742.951 447.324 742.152 447.159 741.551 446.828C740.951 446.491 740.488 446.109 740.165 445.684C739.841 445.252 739.591 444.895 739.416 444.612H739.213V452.83H736.825ZM739.173 439.227C739.173 440.401 739.345 441.437 739.689 442.334C740.033 443.225 740.536 443.923 741.197 444.429C741.858 444.929 742.668 445.178 743.626 445.178C744.624 445.178 745.458 444.915 746.126 444.389C746.8 443.856 747.306 443.141 747.644 442.243C747.988 441.339 748.16 440.334 748.16 439.227C748.16 438.134 747.991 437.149 747.654 436.272C747.323 435.388 746.821 434.69 746.146 434.177C745.478 433.657 744.638 433.398 743.626 433.398C742.654 433.398 741.838 433.644 741.177 434.137C740.515 434.622 740.016 435.304 739.679 436.181C739.341 437.051 739.173 438.067 739.173 439.227ZM664.632 484V463.273H667.142V481.773H676.777V484H664.632ZM686.857 484.324C685.36 484.324 684.067 483.993 682.981 483.332C681.902 482.664 681.068 481.733 680.481 480.539C679.901 479.338 679.611 477.941 679.611 476.349C679.611 474.756 679.901 473.353 680.481 472.138C681.068 470.917 681.885 469.966 682.931 469.284C683.983 468.596 685.211 468.252 686.615 468.252C687.424 468.252 688.224 468.387 689.013 468.657C689.803 468.927 690.521 469.365 691.169 469.973C691.817 470.573 692.333 471.369 692.717 472.361C693.102 473.353 693.294 474.574 693.294 476.025V477.037H681.311V474.972H690.865C690.865 474.095 690.69 473.312 690.339 472.624C689.995 471.936 689.502 471.393 688.861 470.995C688.227 470.597 687.478 470.398 686.615 470.398C685.663 470.398 684.84 470.634 684.145 471.106C683.457 471.572 682.927 472.179 682.556 472.928C682.185 473.677 681.999 474.48 681.999 475.337V476.713C681.999 477.887 682.202 478.882 682.607 479.699C683.018 480.508 683.588 481.126 684.317 481.551C685.046 481.969 685.893 482.178 686.857 482.178C687.485 482.178 688.052 482.091 688.558 481.915C689.07 481.733 689.512 481.463 689.884 481.105C690.255 480.741 690.541 480.289 690.744 479.749L693.051 480.397C692.808 481.18 692.4 481.868 691.827 482.462C691.253 483.049 690.545 483.507 689.701 483.838C688.858 484.162 687.91 484.324 686.857 484.324ZM701.502 484.364C700.517 484.364 699.623 484.179 698.82 483.808C698.017 483.43 697.38 482.887 696.907 482.178C696.435 481.463 696.199 480.599 696.199 479.587C696.199 478.697 696.374 477.975 696.725 477.422C697.076 476.862 697.545 476.423 698.132 476.106C698.719 475.789 699.367 475.553 700.075 475.397C700.79 475.235 701.509 475.107 702.231 475.013C703.175 474.891 703.941 474.8 704.528 474.74C705.122 474.672 705.554 474.561 705.824 474.406C706.1 474.25 706.239 473.98 706.239 473.596V473.515C706.239 472.516 705.965 471.74 705.419 471.187C704.879 470.634 704.059 470.357 702.959 470.357C701.819 470.357 700.925 470.607 700.277 471.106C699.63 471.605 699.174 472.138 698.911 472.705L696.644 471.896C697.049 470.951 697.589 470.216 698.263 469.689C698.945 469.156 699.687 468.785 700.49 468.576C701.3 468.36 702.096 468.252 702.879 468.252C703.378 468.252 703.951 468.313 704.599 468.434C705.254 468.549 705.884 468.789 706.492 469.153C707.106 469.517 707.615 470.067 708.02 470.803C708.425 471.538 708.627 472.523 708.627 473.758V484H706.239V481.895H706.117C705.955 482.232 705.685 482.593 705.308 482.978C704.93 483.362 704.427 483.69 703.8 483.96C703.172 484.229 702.406 484.364 701.502 484.364ZM701.866 482.219C702.811 482.219 703.607 482.033 704.255 481.662C704.909 481.291 705.402 480.812 705.733 480.225C706.07 479.638 706.239 479.021 706.239 478.373V476.187C706.137 476.308 705.915 476.42 705.571 476.521C705.233 476.615 704.842 476.7 704.397 476.774C703.958 476.841 703.53 476.902 703.111 476.956C702.7 477.003 702.366 477.044 702.109 477.077C701.489 477.158 700.908 477.29 700.369 477.472C699.836 477.648 699.404 477.914 699.073 478.272C698.749 478.623 698.587 479.102 698.587 479.709C698.587 480.539 698.894 481.166 699.508 481.591C700.129 482.01 700.915 482.219 701.866 482.219ZM712.987 484V468.455H715.294V470.803H715.456C715.739 470.033 716.252 469.409 716.994 468.93C717.737 468.451 718.573 468.212 719.504 468.212C719.68 468.212 719.899 468.215 720.162 468.222C720.425 468.229 720.624 468.239 720.759 468.252V470.681C720.678 470.661 720.493 470.631 720.203 470.59C719.919 470.543 719.619 470.519 719.302 470.519C718.546 470.519 717.872 470.678 717.278 470.995C716.691 471.305 716.225 471.737 715.881 472.29C715.544 472.837 715.375 473.461 715.375 474.163V484H712.987ZM725.979 474.648V484H723.591V468.455H725.898V470.884H726.101C726.465 470.094 727.018 469.46 727.76 468.981C728.503 468.495 729.461 468.252 730.635 468.252C731.687 468.252 732.608 468.468 733.398 468.9C734.187 469.325 734.801 469.973 735.24 470.843C735.678 471.707 735.897 472.8 735.897 474.122V484H733.509V474.284C733.509 473.063 733.192 472.112 732.558 471.43C731.923 470.742 731.053 470.398 729.946 470.398C729.184 470.398 728.503 470.563 727.902 470.894C727.308 471.224 726.839 471.707 726.495 472.341C726.151 472.975 725.979 473.744 725.979 474.648ZM740.262 484V468.455H742.651V484H740.262ZM741.476 465.864C741.011 465.864 740.609 465.705 740.272 465.388C739.942 465.071 739.776 464.69 739.776 464.244C739.776 463.799 739.942 463.418 740.272 463.101C740.609 462.784 741.011 462.625 741.476 462.625C741.942 462.625 742.34 462.784 742.671 463.101C743.008 463.418 743.177 463.799 743.177 464.244C743.177 464.69 743.008 465.071 742.671 465.388C742.34 465.705 741.942 465.864 741.476 465.864ZM749.414 474.648V484H747.025V468.455H749.333V470.884H749.535C749.899 470.094 750.453 469.46 751.195 468.981C751.937 468.495 752.895 468.252 754.069 468.252C755.122 468.252 756.043 468.468 756.832 468.9C757.622 469.325 758.236 469.973 758.674 470.843C759.113 471.707 759.332 472.8 759.332 474.122V484H756.944V474.284C756.944 473.063 756.626 472.112 755.992 471.43C755.358 470.742 754.488 470.398 753.381 470.398C752.619 470.398 751.937 470.563 751.337 470.894C750.743 471.224 750.274 471.707 749.93 472.341C749.586 472.975 749.414 473.744 749.414 474.648ZM769.971 490.153C768.818 490.153 767.826 490.005 766.996 489.708C766.166 489.418 765.474 489.033 764.921 488.554C764.375 488.082 763.939 487.576 763.616 487.036L765.518 485.7C765.734 485.984 766.007 486.308 766.338 486.672C766.669 487.043 767.121 487.363 767.694 487.633C768.275 487.91 769.034 488.048 769.971 488.048C771.226 488.048 772.262 487.745 773.079 487.137C773.895 486.53 774.303 485.579 774.303 484.283V481.126H774.101C773.925 481.409 773.676 481.76 773.352 482.178C773.035 482.59 772.576 482.958 771.975 483.281C771.382 483.599 770.579 483.757 769.567 483.757C768.312 483.757 767.185 483.46 766.186 482.866C765.194 482.273 764.408 481.409 763.828 480.276C763.255 479.142 762.968 477.766 762.968 476.146C762.968 474.554 763.248 473.167 763.808 471.987C764.368 470.799 765.147 469.882 766.146 469.234C767.144 468.579 768.298 468.252 769.607 468.252C770.619 468.252 771.422 468.421 772.016 468.758C772.616 469.089 773.075 469.467 773.392 469.892C773.716 470.31 773.966 470.654 774.141 470.924H774.384V468.455H776.692V484.445C776.692 485.781 776.388 486.868 775.781 487.704C775.18 488.548 774.371 489.165 773.352 489.556C772.34 489.954 771.213 490.153 769.971 490.153ZM769.89 481.612C770.849 481.612 771.658 481.392 772.319 480.954C772.981 480.515 773.483 479.884 773.827 479.061C774.172 478.238 774.344 477.253 774.344 476.106C774.344 474.986 774.175 473.997 773.838 473.14C773.5 472.284 773.001 471.612 772.34 471.126C771.678 470.641 770.862 470.398 769.89 470.398C768.878 470.398 768.035 470.654 767.36 471.167C766.692 471.68 766.19 472.368 765.852 473.232C765.522 474.095 765.356 475.053 765.356 476.106C765.356 477.185 765.525 478.14 765.862 478.97C766.207 479.793 766.713 480.441 767.381 480.913C768.055 481.379 768.892 481.612 769.89 481.612Z" fill="black"/>
</svg>
