<svg width="1440" height="506" viewBox="0 0 1440 506" fill="none" xmlns="http://www.w3.org/2000/svg">
<rect width="1440" height="505" fill="white"/>
<path d="M592 78.2342C589.963 78.2342 506.5 71.0798 506.5 135.875C506.5 178.609 471.5 207.109 425 207.109" stroke="#00E5A4" stroke-width="2" stroke-miterlimit="10"/>
<path d="M689 80.2785C689 80.2785 765 72.7498 779 135.99C785.913 167.221 787 270 849 270" stroke="#00E5A4" stroke-width="2" stroke-miterlimit="10"/>
<path d="M689 461.724C689 461.724 765 469.193 779 406.448C785.913 375.461 787 270 849 270" stroke="#00E5A4" stroke-width="2" stroke-miterlimit="10"/>
<path d="M395 332L511 332" stroke="#00E5A4" stroke-width="2"/>
<path d="M394 207L510 207" stroke="#00E5A4" stroke-width="2"/>
<path d="M592 460.875C589.963 460.875 506.5 468.03 506.5 403.234C506.5 360.5 471.5 332 425 332" stroke="#00E5A4" stroke-width="2" stroke-miterlimit="10"/>
<path d="M510.5 269.794C510.5 240.898 539 207 601.5 207" stroke="#00E5A4" stroke-width="2" stroke-miterlimit="10"/>
<path d="M510.5 269.5C510.5 298.26 482 332 419.5 332" stroke="#00E5A4" stroke-width="2" stroke-miterlimit="10"/>
<path d="M510.5 269.206C510.5 298.102 539 332 601.5 332" stroke="#00E5A4" stroke-width="2" stroke-miterlimit="10"/>
<path d="M510.5 269.5C510.5 240.74 482 207 419.5 207" stroke="#00E5A4" stroke-width="2" stroke-miterlimit="10"/>
<path d="M510 207C510 207 719.231 207 743.423 207C767.615 207 777.068 214.056 782 218.088C803.577 235.728 805.895 270 850 270" stroke="#00E5A4" stroke-width="2"/>
<path d="M510 332C510 332 719.231 332 743.423 332C767.615 332 777.068 325.056 782 321.088C803.577 303.728 805.895 270 850 270" stroke="#00E5A4" stroke-width="2"/>
<path d="M1047.71 270.707C1048.1 270.317 1048.1 269.684 1047.71 269.293L1041.34 262.929C1040.95 262.539 1040.32 262.539 1039.93 262.929C1039.54 263.32 1039.54 263.953 1039.93 264.343L1045.59 270L1039.93 275.657C1039.54 276.047 1039.54 276.681 1039.93 277.071C1040.32 277.462 1040.95 277.462 1041.34 277.071L1047.71 270.707ZM838 271L1047 271L1047 269L838 269L838 271Z" fill="#00E5A4"/>
<circle cx="346" cy="207" r="48" stroke="#000E38" stroke-width="2"/>
<circle cx="346" cy="330" r="48" stroke="#000E38" stroke-width="2"/>
<circle cx="640" cy="82" r="48" stroke="#000E38" stroke-width="2"/>
<circle cx="640" cy="457" r="48" stroke="#000E38" stroke-width="2"/>
<circle cx="640" cy="207" r="48" fill="white" stroke="#000E38" stroke-width="2"/>
<circle cx="640" cy="332" r="48" fill="white" stroke="#000E38" stroke-width="2"/>
<circle cx="935" cy="270" r="48" fill="white" stroke="#000E38" stroke-width="2"/>
<path d="M306.06 129.364V141H304.651V129.364H306.06ZM310.045 135.75V141H308.704V132.273H309.999V133.636H310.113C310.317 133.193 310.628 132.837 311.045 132.568C311.461 132.295 311.999 132.159 312.658 132.159C313.249 132.159 313.766 132.28 314.21 132.523C314.653 132.761 314.997 133.125 315.244 133.614C315.49 134.098 315.613 134.712 315.613 135.455V141H314.272V135.545C314.272 134.86 314.094 134.326 313.738 133.943C313.382 133.557 312.893 133.364 312.272 133.364C311.844 133.364 311.461 133.456 311.124 133.642C310.791 133.828 310.528 134.098 310.335 134.455C310.141 134.811 310.045 135.242 310.045 135.75ZM318.063 144.273V132.273H319.359V133.659H319.518C319.616 133.508 319.753 133.314 319.927 133.08C320.105 132.841 320.359 132.629 320.688 132.443C321.022 132.254 321.472 132.159 322.04 132.159C322.775 132.159 323.423 132.343 323.984 132.71C324.544 133.078 324.982 133.598 325.296 134.273C325.611 134.947 325.768 135.742 325.768 136.659C325.768 137.583 325.611 138.384 325.296 139.062C324.982 139.737 324.546 140.259 323.989 140.631C323.433 140.998 322.79 141.182 322.063 141.182C321.503 141.182 321.054 141.089 320.717 140.903C320.379 140.714 320.12 140.5 319.938 140.261C319.756 140.019 319.616 139.818 319.518 139.659H319.404V144.273H318.063ZM319.381 136.636C319.381 137.295 319.478 137.877 319.671 138.381C319.864 138.881 320.147 139.273 320.518 139.557C320.889 139.837 321.344 139.977 321.881 139.977C322.442 139.977 322.91 139.83 323.285 139.534C323.664 139.235 323.948 138.833 324.137 138.33C324.33 137.822 324.427 137.258 324.427 136.636C324.427 136.023 324.332 135.47 324.143 134.977C323.957 134.481 323.675 134.089 323.296 133.801C322.921 133.509 322.45 133.364 321.881 133.364C321.336 133.364 320.878 133.502 320.506 133.778C320.135 134.051 319.855 134.434 319.665 134.926C319.476 135.415 319.381 135.985 319.381 136.636ZM333.313 137.432V132.273H334.654V141H333.313V139.523H333.222C333.018 139.966 332.7 140.343 332.268 140.653C331.836 140.96 331.29 141.114 330.631 141.114C330.086 141.114 329.601 140.994 329.177 140.756C328.753 140.513 328.419 140.15 328.177 139.665C327.934 139.176 327.813 138.561 327.813 137.818V132.273H329.154V137.727C329.154 138.364 329.332 138.871 329.688 139.25C330.048 139.629 330.506 139.818 331.063 139.818C331.397 139.818 331.736 139.733 332.08 139.562C332.429 139.392 332.72 139.131 332.955 138.778C333.194 138.426 333.313 137.977 333.313 137.432ZM340.906 132.273V133.409H336.383V132.273H340.906ZM337.701 130.182H339.042V138.5C339.042 138.879 339.097 139.163 339.207 139.352C339.32 139.538 339.464 139.663 339.638 139.727C339.817 139.788 340.004 139.818 340.201 139.818C340.349 139.818 340.47 139.811 340.565 139.795C340.659 139.777 340.735 139.761 340.792 139.75L341.065 140.955C340.974 140.989 340.847 141.023 340.684 141.057C340.521 141.095 340.315 141.114 340.065 141.114C339.686 141.114 339.315 141.032 338.951 140.869C338.591 140.706 338.292 140.458 338.053 140.125C337.818 139.792 337.701 139.371 337.701 138.864V130.182ZM347.604 141V129.364H349.013V139.75H354.423V141H347.604ZM358.991 141.205C358.438 141.205 357.936 141.1 357.485 140.892C357.034 140.68 356.676 140.375 356.411 139.977C356.146 139.576 356.013 139.091 356.013 138.523C356.013 138.023 356.112 137.617 356.309 137.307C356.506 136.992 356.769 136.746 357.099 136.568C357.428 136.39 357.792 136.258 358.19 136.17C358.591 136.08 358.995 136.008 359.4 135.955C359.93 135.886 360.36 135.835 360.69 135.801C361.023 135.763 361.265 135.701 361.417 135.614C361.572 135.527 361.65 135.375 361.65 135.159V135.114C361.65 134.553 361.496 134.117 361.19 133.807C360.887 133.496 360.426 133.341 359.809 133.341C359.169 133.341 358.667 133.481 358.303 133.761C357.94 134.042 357.684 134.341 357.536 134.659L356.263 134.205C356.491 133.674 356.794 133.261 357.173 132.966C357.555 132.667 357.972 132.458 358.423 132.341C358.877 132.22 359.324 132.159 359.763 132.159C360.044 132.159 360.366 132.193 360.729 132.261C361.097 132.326 361.451 132.46 361.792 132.665C362.137 132.869 362.423 133.178 362.65 133.591C362.877 134.004 362.991 134.557 362.991 135.25V141H361.65V139.818H361.582C361.491 140.008 361.339 140.21 361.127 140.426C360.915 140.642 360.633 140.826 360.281 140.977C359.928 141.129 359.498 141.205 358.991 141.205ZM359.195 140C359.726 140 360.173 139.896 360.536 139.688C360.904 139.479 361.18 139.21 361.366 138.881C361.555 138.551 361.65 138.205 361.65 137.841V136.614C361.593 136.682 361.468 136.744 361.275 136.801C361.085 136.854 360.866 136.902 360.616 136.943C360.37 136.981 360.129 137.015 359.894 137.045C359.663 137.072 359.476 137.095 359.332 137.114C358.983 137.159 358.657 137.233 358.354 137.335C358.055 137.434 357.813 137.583 357.627 137.784C357.445 137.981 357.354 138.25 357.354 138.591C357.354 139.057 357.527 139.409 357.871 139.648C358.22 139.883 358.661 140 359.195 140ZM365.989 144.273C365.762 144.273 365.559 144.254 365.381 144.216C365.203 144.182 365.08 144.148 365.012 144.114L365.353 142.932C365.679 143.015 365.967 143.045 366.217 143.023C366.467 143 366.688 142.888 366.881 142.688C367.078 142.491 367.258 142.17 367.421 141.727L367.671 141.045L364.444 132.273H365.898L368.308 139.227H368.398L370.808 132.273H372.262L368.558 142.273C368.391 142.723 368.184 143.097 367.938 143.392C367.692 143.691 367.406 143.913 367.08 144.057C366.758 144.201 366.395 144.273 365.989 144.273ZM377.379 141.182C376.538 141.182 375.812 140.996 375.202 140.625C374.596 140.25 374.129 139.727 373.799 139.057C373.473 138.383 373.31 137.598 373.31 136.705C373.31 135.811 373.473 135.023 373.799 134.341C374.129 133.655 374.587 133.121 375.174 132.739C375.765 132.352 376.454 132.159 377.242 132.159C377.697 132.159 378.146 132.235 378.589 132.386C379.032 132.538 379.435 132.784 379.799 133.125C380.163 133.462 380.452 133.909 380.668 134.466C380.884 135.023 380.992 135.708 380.992 136.523V137.091H374.265V135.932H379.629C379.629 135.439 379.53 135 379.333 134.614C379.14 134.227 378.863 133.922 378.504 133.699C378.147 133.475 377.727 133.364 377.242 133.364C376.708 133.364 376.246 133.496 375.856 133.761C375.469 134.023 375.172 134.364 374.964 134.784C374.755 135.205 374.651 135.655 374.651 136.136V136.909C374.651 137.568 374.765 138.127 374.992 138.585C375.223 139.04 375.543 139.386 375.952 139.625C376.362 139.86 376.837 139.977 377.379 139.977C377.731 139.977 378.049 139.928 378.333 139.83C378.621 139.727 378.869 139.576 379.077 139.375C379.286 139.17 379.447 138.917 379.56 138.614L380.856 138.977C380.719 139.417 380.49 139.803 380.168 140.136C379.846 140.466 379.449 140.723 378.975 140.909C378.502 141.091 377.969 141.182 377.379 141.182ZM383.032 141V132.273H384.327V133.591H384.418C384.577 133.159 384.865 132.809 385.282 132.54C385.699 132.271 386.168 132.136 386.691 132.136C386.79 132.136 386.913 132.138 387.06 132.142C387.208 132.146 387.32 132.152 387.396 132.159V133.523C387.35 133.511 387.246 133.494 387.083 133.472C386.924 133.445 386.755 133.432 386.577 133.432C386.153 133.432 385.774 133.521 385.441 133.699C385.112 133.873 384.85 134.116 384.657 134.426C384.468 134.733 384.373 135.083 384.373 135.477V141H383.032Z" fill="black"/>
<path d="M593.784 16V4.36364H595.193V9.54545H601.398V4.36364H602.807V16H601.398V10.7955H595.193V16H593.784ZM605.446 16V7.27273H606.787V16H605.446ZM606.128 5.81818C605.866 5.81818 605.641 5.72917 605.452 5.55114C605.266 5.37311 605.173 5.15909 605.173 4.90909C605.173 4.65909 605.266 4.44508 605.452 4.26705C605.641 4.08902 605.866 4 606.128 4C606.389 4 606.613 4.08902 606.798 4.26705C606.988 4.44508 607.082 4.65909 607.082 4.90909C607.082 5.15909 606.988 5.37311 606.798 5.55114C606.613 5.72917 606.389 5.81818 606.128 5.81818ZM612.538 16.1818C611.811 16.1818 611.169 15.9981 610.612 15.6307C610.055 15.2595 609.62 14.7367 609.305 14.0625C608.991 13.3845 608.834 12.5833 608.834 11.6591C608.834 10.7424 608.991 9.94697 609.305 9.27273C609.62 8.59848 610.057 8.07765 610.618 7.71023C611.179 7.3428 611.826 7.15909 612.561 7.15909C613.129 7.15909 613.578 7.25379 613.908 7.44318C614.241 7.62879 614.495 7.84091 614.669 8.07955C614.847 8.31439 614.985 8.50758 615.084 8.65909H615.197V4.36364H616.538V16H615.243V14.6591H615.084C614.985 14.8182 614.845 15.0189 614.663 15.2614C614.482 15.5 614.222 15.714 613.885 15.9034C613.548 16.089 613.099 16.1818 612.538 16.1818ZM612.72 14.9773C613.258 14.9773 613.713 14.8371 614.084 14.5568C614.455 14.2727 614.737 13.8807 614.93 13.3807C615.124 12.8769 615.22 12.2955 615.22 11.6364C615.22 10.9848 615.125 10.4148 614.936 9.92614C614.747 9.43371 614.466 9.05114 614.095 8.77841C613.724 8.50189 613.266 8.36364 612.72 8.36364C612.152 8.36364 611.679 8.50947 611.3 8.80114C610.925 9.08902 610.643 9.48106 610.453 9.97727C610.268 10.4697 610.175 11.0227 610.175 11.6364C610.175 12.2576 610.269 12.822 610.459 13.3295C610.652 13.8333 610.936 14.2348 611.311 14.5341C611.69 14.8295 612.16 14.9773 612.72 14.9773ZM622.476 16.1818C621.749 16.1818 621.107 15.9981 620.55 15.6307C619.993 15.2595 619.557 14.7367 619.243 14.0625C618.929 13.3845 618.771 12.5833 618.771 11.6591C618.771 10.7424 618.929 9.94697 619.243 9.27273C619.557 8.59848 619.995 8.07765 620.555 7.71023C621.116 7.3428 621.764 7.15909 622.499 7.15909C623.067 7.15909 623.516 7.25379 623.845 7.44318C624.179 7.62879 624.432 7.84091 624.607 8.07955C624.785 8.31439 624.923 8.50758 625.021 8.65909H625.135V4.36364H626.476V16H625.18V14.6591H625.021C624.923 14.8182 624.783 15.0189 624.601 15.2614C624.419 15.5 624.16 15.714 623.822 15.9034C623.485 16.089 623.036 16.1818 622.476 16.1818ZM622.658 14.9773C623.196 14.9773 623.65 14.8371 624.021 14.5568C624.393 14.2727 624.675 13.8807 624.868 13.3807C625.061 12.8769 625.158 12.2955 625.158 11.6364C625.158 10.9848 625.063 10.4148 624.874 9.92614C624.684 9.43371 624.404 9.05114 624.033 8.77841C623.661 8.50189 623.203 8.36364 622.658 8.36364C622.089 8.36364 621.616 8.50947 621.237 8.80114C620.862 9.08902 620.58 9.48106 620.391 9.97727C620.205 10.4697 620.112 11.0227 620.112 11.6364C620.112 12.2576 620.207 12.822 620.396 13.3295C620.589 13.8333 620.874 14.2348 621.249 14.5341C621.627 14.8295 622.097 14.9773 622.658 14.9773ZM632.777 16.1818C631.936 16.1818 631.211 15.9962 630.601 15.625C629.995 15.25 629.527 14.7273 629.197 14.0568C628.872 13.3826 628.709 12.5985 628.709 11.7045C628.709 10.8106 628.872 10.0227 629.197 9.34091C629.527 8.6553 629.985 8.12121 630.572 7.73864C631.163 7.35227 631.853 7.15909 632.641 7.15909C633.095 7.15909 633.544 7.23485 633.987 7.38636C634.43 7.53788 634.834 7.78409 635.197 8.125C635.561 8.46212 635.851 8.90909 636.067 9.46591C636.283 10.0227 636.391 10.7083 636.391 11.5227V12.0909H629.663V10.9318H635.027C635.027 10.4394 634.929 10 634.732 9.61364C634.538 9.22727 634.262 8.92235 633.902 8.69886C633.546 8.47538 633.125 8.36364 632.641 8.36364C632.107 8.36364 631.644 8.49621 631.254 8.76136C630.868 9.02273 630.571 9.36364 630.362 9.78409C630.154 10.2045 630.05 10.6553 630.05 11.1364V11.9091C630.05 12.5682 630.163 13.1269 630.391 13.5852C630.622 14.0398 630.942 14.3864 631.351 14.625C631.76 14.8598 632.235 14.9773 632.777 14.9773C633.129 14.9773 633.447 14.928 633.732 14.8295C634.019 14.7273 634.268 14.5758 634.476 14.375C634.684 14.1705 634.845 13.9167 634.959 13.6136L636.254 13.9773C636.118 14.4167 635.889 14.803 635.567 15.1364C635.245 15.4659 634.847 15.7235 634.374 15.9091C633.9 16.0909 633.368 16.1818 632.777 16.1818ZM639.771 10.75V16H638.43V7.27273H639.726V8.63636H639.839C640.044 8.19318 640.355 7.83712 640.771 7.56818C641.188 7.29545 641.726 7.15909 642.385 7.15909C642.976 7.15909 643.493 7.2803 643.936 7.52273C644.379 7.76136 644.724 8.125 644.97 8.61364C645.216 9.09848 645.339 9.71212 645.339 10.4545V16H643.999V10.5455C643.999 9.85985 643.821 9.32576 643.464 8.94318C643.108 8.55682 642.62 8.36364 641.999 8.36364C641.571 8.36364 641.188 8.45644 640.851 8.64205C640.518 8.82765 640.254 9.09848 640.061 9.45455C639.868 9.81061 639.771 10.2424 639.771 10.75ZM652.472 16V4.36364H653.881V14.75H659.29V16H652.472ZM663.858 16.2045C663.305 16.2045 662.803 16.1004 662.352 15.892C661.902 15.6799 661.544 15.375 661.278 14.9773C661.013 14.5758 660.881 14.0909 660.881 13.5227C660.881 13.0227 660.979 12.6174 661.176 12.3068C661.373 11.9924 661.636 11.7462 661.966 11.5682C662.295 11.3902 662.659 11.2576 663.057 11.1705C663.458 11.0795 663.862 11.0076 664.267 10.9545C664.797 10.8864 665.227 10.8352 665.557 10.8011C665.89 10.7633 666.133 10.7008 666.284 10.6136C666.439 10.5265 666.517 10.375 666.517 10.1591V10.1136C666.517 9.55303 666.364 9.11742 666.057 8.80682C665.754 8.49621 665.294 8.34091 664.676 8.34091C664.036 8.34091 663.534 8.48106 663.17 8.76136C662.807 9.04167 662.551 9.34091 662.403 9.65909L661.131 9.20455C661.358 8.67424 661.661 8.26136 662.04 7.96591C662.422 7.66667 662.839 7.45833 663.29 7.34091C663.744 7.2197 664.191 7.15909 664.631 7.15909C664.911 7.15909 665.233 7.19318 665.597 7.26136C665.964 7.32576 666.318 7.46023 666.659 7.66477C667.004 7.86932 667.29 8.17803 667.517 8.59091C667.744 9.00379 667.858 9.55682 667.858 10.25V16H666.517V14.8182H666.449C666.358 15.0076 666.206 15.2102 665.994 15.4261C665.782 15.642 665.5 15.8258 665.148 15.9773C664.795 16.1288 664.366 16.2045 663.858 16.2045ZM664.062 15C664.593 15 665.04 14.8958 665.403 14.6875C665.771 14.4792 666.047 14.2102 666.233 13.8807C666.422 13.5511 666.517 13.2045 666.517 12.8409V11.6136C666.46 11.6818 666.335 11.7443 666.142 11.8011C665.953 11.8542 665.733 11.9015 665.483 11.9432C665.237 11.9811 664.996 12.0152 664.761 12.0455C664.53 12.072 664.343 12.0947 664.199 12.1136C663.85 12.1591 663.525 12.233 663.222 12.3352C662.922 12.4337 662.68 12.5833 662.494 12.7841C662.313 12.9811 662.222 13.25 662.222 13.5909C662.222 14.0568 662.394 14.4091 662.739 14.6477C663.087 14.8826 663.528 15 664.062 15ZM670.857 19.2727C670.629 19.2727 670.427 19.2538 670.249 19.2159C670.071 19.1818 669.947 19.1477 669.879 19.1136L670.22 17.9318C670.546 18.0152 670.834 18.0455 671.084 18.0227C671.334 18 671.555 17.8883 671.749 17.6875C671.946 17.4905 672.125 17.1705 672.288 16.7273L672.538 16.0455L669.311 7.27273H670.766L673.175 14.2273H673.266L675.675 7.27273H677.129L673.425 17.2727C673.258 17.7235 673.052 18.0966 672.805 18.392C672.559 18.6913 672.273 18.9129 671.947 19.0568C671.625 19.2008 671.262 19.2727 670.857 19.2727ZM682.246 16.1818C681.405 16.1818 680.679 15.9962 680.07 15.625C679.464 15.25 678.996 14.7273 678.666 14.0568C678.34 13.3826 678.178 12.5985 678.178 11.7045C678.178 10.8106 678.34 10.0227 678.666 9.34091C678.996 8.6553 679.454 8.12121 680.041 7.73864C680.632 7.35227 681.321 7.15909 682.109 7.15909C682.564 7.15909 683.013 7.23485 683.456 7.38636C683.899 7.53788 684.303 7.78409 684.666 8.125C685.03 8.46212 685.32 8.90909 685.536 9.46591C685.751 10.0227 685.859 10.7083 685.859 11.5227V12.0909H679.132V10.9318H684.496C684.496 10.4394 684.397 10 684.2 9.61364C684.007 9.22727 683.731 8.92235 683.371 8.69886C683.015 8.47538 682.594 8.36364 682.109 8.36364C681.575 8.36364 681.113 8.49621 680.723 8.76136C680.337 9.02273 680.039 9.36364 679.831 9.78409C679.623 10.2045 679.518 10.6553 679.518 11.1364V11.9091C679.518 12.5682 679.632 13.1269 679.859 13.5852C680.09 14.0398 680.411 14.3864 680.82 14.625C681.229 14.8598 681.704 14.9773 682.246 14.9773C682.598 14.9773 682.916 14.928 683.2 14.8295C683.488 14.7273 683.736 14.5758 683.945 14.375C684.153 14.1705 684.314 13.9167 684.428 13.6136L685.723 13.9773C685.587 14.4167 685.357 14.803 685.036 15.1364C684.714 15.4659 684.316 15.7235 683.842 15.9091C683.369 16.0909 682.837 16.1818 682.246 16.1818ZM687.899 16V7.27273H689.195V8.59091H689.286C689.445 8.15909 689.732 7.80871 690.149 7.53977C690.566 7.27083 691.036 7.13636 691.558 7.13636C691.657 7.13636 691.78 7.13826 691.928 7.14205C692.075 7.14583 692.187 7.15152 692.263 7.15909V8.52273C692.217 8.51136 692.113 8.49432 691.95 8.47159C691.791 8.44508 691.623 8.43182 691.445 8.43182C691.02 8.43182 690.642 8.52083 690.308 8.69886C689.979 8.87311 689.717 9.11553 689.524 9.42614C689.335 9.73295 689.24 10.0833 689.24 10.4773V16H687.899Z" fill="black"/>
<path d="M896.618 198.182C896.618 199.409 896.396 200.47 895.953 201.364C895.51 202.258 894.902 202.947 894.129 203.432C893.357 203.917 892.474 204.159 891.482 204.159C890.489 204.159 889.607 203.917 888.834 203.432C888.061 202.947 887.453 202.258 887.01 201.364C886.567 200.47 886.345 199.409 886.345 198.182C886.345 196.955 886.567 195.894 887.01 195C887.453 194.106 888.061 193.417 888.834 192.932C889.607 192.447 890.489 192.205 891.482 192.205C892.474 192.205 893.357 192.447 894.129 192.932C894.902 193.417 895.51 194.106 895.953 195C896.396 195.894 896.618 196.955 896.618 198.182ZM895.254 198.182C895.254 197.174 895.086 196.324 894.749 195.631C894.415 194.938 893.963 194.413 893.391 194.057C892.822 193.701 892.186 193.523 891.482 193.523C890.777 193.523 890.139 193.701 889.567 194.057C888.999 194.413 888.546 194.938 888.209 195.631C887.875 196.324 887.709 197.174 887.709 198.182C887.709 199.189 887.875 200.04 888.209 200.733C888.546 201.426 888.999 201.951 889.567 202.307C890.139 202.663 890.777 202.841 891.482 202.841C892.186 202.841 892.822 202.663 893.391 202.307C893.963 201.951 894.415 201.426 894.749 200.733C895.086 200.04 895.254 199.189 895.254 198.182ZM904.305 200.432V195.273H905.646V204H904.305V202.523H904.214C904.01 202.966 903.692 203.343 903.26 203.653C902.828 203.96 902.283 204.114 901.624 204.114C901.078 204.114 900.593 203.994 900.169 203.756C899.745 203.513 899.411 203.15 899.169 202.665C898.927 202.176 898.805 201.561 898.805 200.818V195.273H900.146V200.727C900.146 201.364 900.324 201.871 900.68 202.25C901.04 202.629 901.499 202.818 902.055 202.818C902.389 202.818 902.728 202.733 903.072 202.562C903.421 202.392 903.713 202.131 903.947 201.778C904.186 201.426 904.305 200.977 904.305 200.432ZM911.898 195.273V196.409H907.375V195.273H911.898ZM908.693 193.182H910.034V201.5C910.034 201.879 910.089 202.163 910.199 202.352C910.313 202.538 910.456 202.663 910.631 202.727C910.809 202.788 910.996 202.818 911.193 202.818C911.341 202.818 911.462 202.811 911.557 202.795C911.652 202.777 911.727 202.761 911.784 202.75L912.057 203.955C911.966 203.989 911.839 204.023 911.676 204.057C911.513 204.095 911.307 204.114 911.057 204.114C910.678 204.114 910.307 204.032 909.943 203.869C909.583 203.706 909.284 203.458 909.045 203.125C908.811 202.792 908.693 202.371 908.693 201.864V193.182ZM913.915 207.273V195.273H915.21V196.659H915.369C915.468 196.508 915.604 196.314 915.778 196.08C915.956 195.841 916.21 195.629 916.54 195.443C916.873 195.254 917.324 195.159 917.892 195.159C918.627 195.159 919.275 195.343 919.835 195.71C920.396 196.078 920.833 196.598 921.148 197.273C921.462 197.947 921.619 198.742 921.619 199.659C921.619 200.583 921.462 201.384 921.148 202.062C920.833 202.737 920.398 203.259 919.841 203.631C919.284 203.998 918.642 204.182 917.915 204.182C917.354 204.182 916.905 204.089 916.568 203.903C916.231 203.714 915.972 203.5 915.79 203.261C915.608 203.019 915.468 202.818 915.369 202.659H915.256V207.273H913.915ZM915.233 199.636C915.233 200.295 915.33 200.877 915.523 201.381C915.716 201.881 915.998 202.273 916.369 202.557C916.741 202.837 917.195 202.977 917.733 202.977C918.294 202.977 918.761 202.83 919.136 202.534C919.515 202.235 919.799 201.833 919.989 201.33C920.182 200.822 920.278 200.258 920.278 199.636C920.278 199.023 920.184 198.47 919.994 197.977C919.809 197.481 919.527 197.089 919.148 196.801C918.773 196.509 918.301 196.364 917.733 196.364C917.188 196.364 916.729 196.502 916.358 196.778C915.987 197.051 915.706 197.434 915.517 197.926C915.328 198.415 915.233 198.985 915.233 199.636ZM929.165 200.432V195.273H930.506V204H929.165V202.523H929.074C928.869 202.966 928.551 203.343 928.119 203.653C927.688 203.96 927.142 204.114 926.483 204.114C925.938 204.114 925.453 203.994 925.028 203.756C924.604 203.513 924.271 203.15 924.028 202.665C923.786 202.176 923.665 201.561 923.665 200.818V195.273H925.006V200.727C925.006 201.364 925.184 201.871 925.54 202.25C925.9 202.629 926.358 202.818 926.915 202.818C927.248 202.818 927.587 202.733 927.932 202.562C928.28 202.392 928.572 202.131 928.807 201.778C929.045 201.426 929.165 200.977 929.165 200.432ZM936.757 195.273V196.409H932.234V195.273H936.757ZM933.553 193.182H934.893V201.5C934.893 201.879 934.948 202.163 935.058 202.352C935.172 202.538 935.316 202.663 935.49 202.727C935.668 202.788 935.856 202.818 936.053 202.818C936.2 202.818 936.321 202.811 936.416 202.795C936.511 202.777 936.587 202.761 936.643 202.75L936.916 203.955C936.825 203.989 936.698 204.023 936.536 204.057C936.373 204.095 936.166 204.114 935.916 204.114C935.537 204.114 935.166 204.032 934.803 203.869C934.443 203.706 934.143 203.458 933.905 203.125C933.67 202.792 933.553 202.371 933.553 201.864V193.182ZM943.456 204V192.364H944.865V202.75H950.274V204H943.456ZM954.842 204.205C954.289 204.205 953.787 204.1 953.337 203.892C952.886 203.68 952.528 203.375 952.263 202.977C951.998 202.576 951.865 202.091 951.865 201.523C951.865 201.023 951.964 200.617 952.161 200.307C952.357 199.992 952.621 199.746 952.95 199.568C953.28 199.39 953.643 199.258 954.041 199.17C954.443 199.08 954.846 199.008 955.251 198.955C955.782 198.886 956.212 198.835 956.541 198.801C956.875 198.763 957.117 198.701 957.268 198.614C957.424 198.527 957.501 198.375 957.501 198.159V198.114C957.501 197.553 957.348 197.117 957.041 196.807C956.738 196.496 956.278 196.341 955.661 196.341C955.02 196.341 954.518 196.481 954.155 196.761C953.791 197.042 953.536 197.341 953.388 197.659L952.115 197.205C952.342 196.674 952.645 196.261 953.024 195.966C953.407 195.667 953.823 195.458 954.274 195.341C954.729 195.22 955.176 195.159 955.615 195.159C955.895 195.159 956.217 195.193 956.581 195.261C956.948 195.326 957.303 195.46 957.643 195.665C957.988 195.869 958.274 196.178 958.501 196.591C958.729 197.004 958.842 197.557 958.842 198.25V204H957.501V202.818H957.433C957.342 203.008 957.191 203.21 956.979 203.426C956.767 203.642 956.484 203.826 956.132 203.977C955.78 204.129 955.35 204.205 954.842 204.205ZM955.047 203C955.577 203 956.024 202.896 956.388 202.688C956.755 202.479 957.032 202.21 957.217 201.881C957.407 201.551 957.501 201.205 957.501 200.841V199.614C957.445 199.682 957.32 199.744 957.126 199.801C956.937 199.854 956.717 199.902 956.467 199.943C956.221 199.981 955.981 200.015 955.746 200.045C955.515 200.072 955.327 200.095 955.183 200.114C954.835 200.159 954.509 200.233 954.206 200.335C953.907 200.434 953.664 200.583 953.479 200.784C953.297 200.981 953.206 201.25 953.206 201.591C953.206 202.057 953.378 202.409 953.723 202.648C954.071 202.883 954.513 203 955.047 203ZM961.841 207.273C961.614 207.273 961.411 207.254 961.233 207.216C961.055 207.182 960.932 207.148 960.864 207.114L961.205 205.932C961.53 206.015 961.818 206.045 962.068 206.023C962.318 206 962.54 205.888 962.733 205.688C962.93 205.491 963.11 205.17 963.273 204.727L963.523 204.045L960.295 195.273H961.75L964.159 202.227H964.25L966.659 195.273H968.114L964.409 205.273C964.242 205.723 964.036 206.097 963.79 206.392C963.544 206.691 963.258 206.913 962.932 207.057C962.61 207.201 962.246 207.273 961.841 207.273ZM973.23 204.182C972.389 204.182 971.664 203.996 971.054 203.625C970.448 203.25 969.98 202.727 969.651 202.057C969.325 201.383 969.162 200.598 969.162 199.705C969.162 198.811 969.325 198.023 969.651 197.341C969.98 196.655 970.438 196.121 971.026 195.739C971.616 195.352 972.306 195.159 973.094 195.159C973.548 195.159 973.997 195.235 974.44 195.386C974.884 195.538 975.287 195.784 975.651 196.125C976.014 196.462 976.304 196.909 976.52 197.466C976.736 198.023 976.844 198.708 976.844 199.523V200.091H970.116V198.932H975.48C975.48 198.439 975.382 198 975.185 197.614C974.991 197.227 974.715 196.922 974.355 196.699C973.999 196.475 973.579 196.364 973.094 196.364C972.56 196.364 972.098 196.496 971.707 196.761C971.321 197.023 971.024 197.364 970.815 197.784C970.607 198.205 970.503 198.655 970.503 199.136V199.909C970.503 200.568 970.616 201.127 970.844 201.585C971.075 202.04 971.395 202.386 971.804 202.625C972.213 202.86 972.688 202.977 973.23 202.977C973.582 202.977 973.901 202.928 974.185 202.83C974.473 202.727 974.721 202.576 974.929 202.375C975.137 202.17 975.298 201.917 975.412 201.614L976.707 201.977C976.571 202.417 976.342 202.803 976.02 203.136C975.698 203.466 975.3 203.723 974.827 203.909C974.353 204.091 973.821 204.182 973.23 204.182ZM978.884 204V195.273H980.179V196.591H980.27C980.429 196.159 980.717 195.809 981.134 195.54C981.55 195.271 982.02 195.136 982.543 195.136C982.641 195.136 982.764 195.138 982.912 195.142C983.06 195.146 983.171 195.152 983.247 195.159V196.523C983.202 196.511 983.098 196.494 982.935 196.472C982.776 196.445 982.607 196.432 982.429 196.432C982.005 196.432 981.626 196.521 981.293 196.699C980.963 196.873 980.702 197.116 980.509 197.426C980.319 197.733 980.224 198.083 980.224 198.477V204H978.884Z" fill="black"/>
<path d="M1086.27 229.182C1086.27 230.409 1086.05 231.47 1085.61 232.364C1085.17 233.258 1084.56 233.947 1083.79 234.432C1083.01 234.917 1082.13 235.159 1081.14 235.159C1080.15 235.159 1079.26 234.917 1078.49 234.432C1077.72 233.947 1077.11 233.258 1076.67 232.364C1076.22 231.47 1076 230.409 1076 229.182C1076 227.955 1076.22 226.894 1076.67 226C1077.11 225.106 1077.72 224.417 1078.49 223.932C1079.26 223.447 1080.15 223.205 1081.14 223.205C1082.13 223.205 1083.01 223.447 1083.79 223.932C1084.56 224.417 1085.17 225.106 1085.61 226C1086.05 226.894 1086.27 227.955 1086.27 229.182ZM1084.91 229.182C1084.91 228.174 1084.74 227.324 1084.4 226.631C1084.07 225.938 1083.62 225.413 1083.05 225.057C1082.48 224.701 1081.84 224.523 1081.14 224.523C1080.43 224.523 1079.79 224.701 1079.22 225.057C1078.65 225.413 1078.2 225.938 1077.87 226.631C1077.53 227.324 1077.37 228.174 1077.37 229.182C1077.37 230.189 1077.53 231.04 1077.87 231.733C1078.2 232.426 1078.65 232.951 1079.22 233.307C1079.79 233.663 1080.43 233.841 1081.14 233.841C1081.84 233.841 1082.48 233.663 1083.05 233.307C1083.62 232.951 1084.07 232.426 1084.4 231.733C1084.74 231.04 1084.91 230.189 1084.91 229.182ZM1093.96 231.432V226.273H1095.3V235H1093.96V233.523H1093.87C1093.67 233.966 1093.35 234.343 1092.92 234.653C1092.48 234.96 1091.94 235.114 1091.28 235.114C1090.73 235.114 1090.25 234.994 1089.83 234.756C1089.4 234.513 1089.07 234.15 1088.83 233.665C1088.58 233.176 1088.46 232.561 1088.46 231.818V226.273H1089.8V231.727C1089.8 232.364 1089.98 232.871 1090.34 233.25C1090.7 233.629 1091.15 233.818 1091.71 233.818C1092.04 233.818 1092.38 233.733 1092.73 233.562C1093.08 233.392 1093.37 233.131 1093.6 232.778C1093.84 232.426 1093.96 231.977 1093.96 231.432ZM1101.55 226.273V227.409H1097.03V226.273H1101.55ZM1098.35 224.182H1099.69V232.5C1099.69 232.879 1099.75 233.163 1099.86 233.352C1099.97 233.538 1100.11 233.663 1100.29 233.727C1100.46 233.788 1100.65 233.818 1100.85 233.818C1101 233.818 1101.12 233.811 1101.21 233.795C1101.31 233.777 1101.38 233.761 1101.44 233.75L1101.71 234.955C1101.62 234.989 1101.5 235.023 1101.33 235.057C1101.17 235.095 1100.96 235.114 1100.71 235.114C1100.33 235.114 1099.96 235.032 1099.6 234.869C1099.24 234.706 1098.94 234.458 1098.7 234.125C1098.47 233.792 1098.35 233.371 1098.35 232.864V224.182ZM1107.02 235.182C1106.2 235.182 1105.5 234.989 1104.91 234.602C1104.32 234.216 1103.86 233.684 1103.55 233.006C1103.23 232.328 1103.07 231.553 1103.07 230.682C1103.07 229.795 1103.23 229.013 1103.56 228.335C1103.89 227.653 1104.34 227.121 1104.93 226.739C1105.52 226.352 1106.21 226.159 1107 226.159C1107.61 226.159 1108.17 226.273 1108.66 226.5C1109.15 226.727 1109.55 227.045 1109.87 227.455C1110.18 227.864 1110.38 228.341 1110.45 228.886H1109.11C1109.01 228.489 1108.78 228.136 1108.43 227.83C1108.08 227.519 1107.61 227.364 1107.02 227.364C1106.5 227.364 1106.04 227.5 1105.65 227.773C1105.26 228.042 1104.95 228.422 1104.73 228.915C1104.52 229.403 1104.41 229.977 1104.41 230.636C1104.41 231.311 1104.52 231.898 1104.73 232.398C1104.94 232.898 1105.25 233.286 1105.64 233.562C1106.03 233.839 1106.49 233.977 1107.02 233.977C1107.37 233.977 1107.69 233.917 1107.97 233.795C1108.26 233.674 1108.5 233.5 1108.69 233.273C1108.89 233.045 1109.03 232.773 1109.11 232.455H1110.45C1110.38 232.97 1110.19 233.434 1109.89 233.847C1109.6 234.256 1109.2 234.581 1108.72 234.824C1108.23 235.062 1107.67 235.182 1107.02 235.182ZM1115.96 235.182C1115.17 235.182 1114.48 234.994 1113.89 234.619C1113.3 234.244 1112.83 233.72 1112.5 233.045C1112.17 232.371 1112.01 231.583 1112.01 230.682C1112.01 229.773 1112.17 228.979 1112.5 228.301C1112.83 227.623 1113.3 227.097 1113.89 226.722C1114.48 226.347 1115.17 226.159 1115.96 226.159C1116.75 226.159 1117.44 226.347 1118.03 226.722C1118.62 227.097 1119.09 227.623 1119.41 228.301C1119.75 228.979 1119.91 229.773 1119.91 230.682C1119.91 231.583 1119.75 232.371 1119.41 233.045C1119.09 233.72 1118.62 234.244 1118.03 234.619C1117.44 234.994 1116.75 235.182 1115.96 235.182ZM1115.96 233.977C1116.56 233.977 1117.05 233.824 1117.44 233.517C1117.82 233.21 1118.11 232.807 1118.3 232.307C1118.48 231.807 1118.57 231.265 1118.57 230.682C1118.57 230.098 1118.48 229.555 1118.3 229.051C1118.11 228.547 1117.82 228.14 1117.44 227.83C1117.05 227.519 1116.56 227.364 1115.96 227.364C1115.36 227.364 1114.87 227.519 1114.48 227.83C1114.1 228.14 1113.81 228.547 1113.62 229.051C1113.44 229.555 1113.35 230.098 1113.35 230.682C1113.35 231.265 1113.44 231.807 1113.62 232.307C1113.81 232.807 1114.1 233.21 1114.48 233.517C1114.87 233.824 1115.36 233.977 1115.96 233.977ZM1121.96 235V226.273H1123.26V227.636H1123.37C1123.55 227.17 1123.85 226.809 1124.25 226.551C1124.66 226.29 1125.14 226.159 1125.71 226.159C1126.29 226.159 1126.77 226.29 1127.15 226.551C1127.54 226.809 1127.84 227.17 1128.05 227.636H1128.14C1128.37 227.186 1128.7 226.828 1129.15 226.562C1129.6 226.294 1130.13 226.159 1130.76 226.159C1131.54 226.159 1132.18 226.403 1132.67 226.892C1133.17 227.377 1133.42 228.133 1133.42 229.159V235H1132.08V229.159C1132.08 228.515 1131.9 228.055 1131.55 227.778C1131.19 227.502 1130.78 227.364 1130.3 227.364C1129.69 227.364 1129.21 227.549 1128.88 227.92C1128.54 228.288 1128.37 228.754 1128.37 229.318V235H1127.01V229.023C1127.01 228.527 1126.85 228.127 1126.52 227.824C1126.2 227.517 1125.79 227.364 1125.28 227.364C1124.93 227.364 1124.61 227.456 1124.3 227.642C1124 227.828 1123.76 228.085 1123.58 228.415C1123.39 228.741 1123.3 229.117 1123.3 229.545V235H1121.96ZM1139.53 235.182C1138.69 235.182 1137.96 234.996 1137.35 234.625C1136.74 234.25 1136.28 233.727 1135.95 233.057C1135.62 232.383 1135.46 231.598 1135.46 230.705C1135.46 229.811 1135.62 229.023 1135.95 228.341C1136.28 227.655 1136.74 227.121 1137.32 226.739C1137.91 226.352 1138.6 226.159 1139.39 226.159C1139.85 226.159 1140.29 226.235 1140.74 226.386C1141.18 226.538 1141.58 226.784 1141.95 227.125C1142.31 227.462 1142.6 227.909 1142.82 228.466C1143.03 229.023 1143.14 229.708 1143.14 230.523V231.091H1136.41V229.932H1141.78C1141.78 229.439 1141.68 229 1141.48 228.614C1141.29 228.227 1141.01 227.922 1140.65 227.699C1140.3 227.475 1139.88 227.364 1139.39 227.364C1138.86 227.364 1138.39 227.496 1138 227.761C1137.62 228.023 1137.32 228.364 1137.11 228.784C1136.9 229.205 1136.8 229.655 1136.8 230.136V230.909C1136.8 231.568 1136.91 232.127 1137.14 232.585C1137.37 233.04 1137.69 233.386 1138.1 233.625C1138.51 233.86 1138.99 233.977 1139.53 233.977C1139.88 233.977 1140.2 233.928 1140.48 233.83C1140.77 233.727 1141.02 233.576 1141.23 233.375C1141.43 233.17 1141.6 232.917 1141.71 232.614L1143 232.977C1142.87 233.417 1142.64 233.803 1142.32 234.136C1141.99 234.466 1141.6 234.723 1141.12 234.909C1140.65 235.091 1140.12 235.182 1139.53 235.182Z" fill="black"/>
<rect x="1066" y="253" width="93" height="33" rx="16.5" fill="white" stroke="#000E38" stroke-width="2" stroke-dasharray="2 6"/>
<path d="M1102.25 267.455C1102.2 267.023 1101.99 266.688 1101.63 266.449C1101.27 266.21 1100.82 266.091 1100.29 266.091C1099.9 266.091 1099.57 266.153 1099.28 266.278C1098.99 266.403 1098.77 266.575 1098.6 266.794C1098.44 267.013 1098.37 267.261 1098.37 267.54C1098.37 267.773 1098.42 267.973 1098.53 268.141C1098.64 268.305 1098.79 268.443 1098.97 268.554C1099.14 268.662 1099.33 268.751 1099.52 268.822C1099.71 268.891 1099.89 268.946 1100.05 268.989L1100.94 269.227C1101.17 269.287 1101.42 269.369 1101.7 269.474C1101.98 269.58 1102.25 269.723 1102.5 269.905C1102.76 270.084 1102.97 270.314 1103.14 270.595C1103.31 270.876 1103.39 271.222 1103.39 271.631C1103.39 272.102 1103.27 272.528 1103.02 272.909C1102.78 273.29 1102.42 273.592 1101.95 273.817C1101.48 274.041 1100.91 274.153 1100.24 274.153C1099.62 274.153 1099.07 274.053 1098.62 273.851C1098.16 273.649 1097.8 273.368 1097.54 273.007C1097.28 272.646 1097.14 272.227 1097.1 271.75H1098.19C1098.22 272.08 1098.33 272.352 1098.53 272.568C1098.72 272.781 1098.97 272.94 1099.27 273.045C1099.57 273.148 1099.89 273.199 1100.24 273.199C1100.64 273.199 1101.01 273.134 1101.33 273.003C1101.65 272.869 1101.9 272.685 1102.09 272.449C1102.28 272.21 1102.37 271.932 1102.37 271.614C1102.37 271.324 1102.29 271.088 1102.13 270.906C1101.97 270.724 1101.75 270.577 1101.49 270.463C1101.22 270.349 1100.94 270.25 1100.63 270.165L1099.56 269.858C1098.88 269.662 1098.34 269.382 1097.94 269.018C1097.54 268.655 1097.34 268.179 1097.34 267.591C1097.34 267.102 1097.47 266.676 1097.74 266.312C1098.01 265.946 1098.36 265.662 1098.81 265.46C1099.26 265.256 1099.77 265.153 1100.33 265.153C1100.89 265.153 1101.39 265.254 1101.83 265.456C1102.26 265.655 1102.61 265.928 1102.87 266.274C1103.12 266.621 1103.26 267.014 1103.27 267.455H1102.25ZM1104.99 276.455V267.455H1105.97V268.494H1106.09C1106.16 268.381 1106.26 268.236 1106.39 268.06C1106.53 267.881 1106.72 267.722 1106.96 267.582C1107.21 267.44 1107.55 267.369 1107.98 267.369C1108.53 267.369 1109.01 267.507 1109.44 267.783C1109.86 268.058 1110.18 268.449 1110.42 268.955C1110.66 269.46 1110.77 270.057 1110.77 270.744C1110.77 271.438 1110.66 272.038 1110.42 272.547C1110.18 273.053 1109.86 273.445 1109.44 273.723C1109.02 273.999 1108.54 274.136 1107.99 274.136C1107.57 274.136 1107.24 274.067 1106.98 273.928C1106.73 273.786 1106.54 273.625 1106.4 273.446C1106.26 273.264 1106.16 273.114 1106.09 272.994H1106V276.455H1104.99ZM1105.98 270.727C1105.98 271.222 1106.06 271.658 1106.2 272.036C1106.35 272.411 1106.56 272.705 1106.84 272.918C1107.11 273.128 1107.45 273.233 1107.86 273.233C1108.28 273.233 1108.63 273.122 1108.91 272.901C1109.19 272.676 1109.41 272.375 1109.55 271.997C1109.69 271.616 1109.77 271.193 1109.77 270.727C1109.77 270.267 1109.7 269.852 1109.55 269.483C1109.42 269.111 1109.2 268.817 1108.92 268.601C1108.64 268.382 1108.28 268.273 1107.86 268.273C1107.45 268.273 1107.11 268.376 1106.83 268.584C1106.55 268.788 1106.34 269.075 1106.2 269.445C1106.05 269.811 1105.98 270.239 1105.98 270.727ZM1114.23 274.153C1113.82 274.153 1113.44 274.075 1113.1 273.919C1112.77 273.76 1112.5 273.531 1112.3 273.233C1112.1 272.932 1112 272.568 1112 272.142C1112 271.767 1112.07 271.463 1112.22 271.23C1112.37 270.994 1112.57 270.81 1112.81 270.676C1113.06 270.543 1113.33 270.443 1113.63 270.378C1113.93 270.31 1114.24 270.256 1114.54 270.216C1114.94 270.165 1115.26 270.126 1115.51 270.101C1115.76 270.072 1115.94 270.026 1116.05 269.96C1116.17 269.895 1116.23 269.781 1116.23 269.619V269.585C1116.23 269.165 1116.11 268.838 1115.88 268.605C1115.66 268.372 1115.31 268.256 1114.85 268.256C1114.37 268.256 1113.99 268.361 1113.72 268.571C1113.44 268.781 1113.25 269.006 1113.14 269.244L1112.19 268.903C1112.36 268.506 1112.59 268.196 1112.87 267.974C1113.16 267.75 1113.47 267.594 1113.81 267.506C1114.15 267.415 1114.48 267.369 1114.81 267.369C1115.02 267.369 1115.26 267.395 1115.54 267.446C1115.81 267.494 1116.08 267.595 1116.33 267.749C1116.59 267.902 1116.81 268.134 1116.98 268.443C1117.15 268.753 1117.23 269.168 1117.23 269.688V274H1116.23V273.114H1116.18C1116.11 273.256 1115.99 273.408 1115.84 273.57C1115.68 273.732 1115.46 273.869 1115.2 273.983C1114.94 274.097 1114.61 274.153 1114.23 274.153ZM1114.39 273.25C1114.78 273.25 1115.12 273.172 1115.39 273.016C1115.67 272.859 1115.88 272.658 1116.01 272.411C1116.16 272.163 1116.23 271.903 1116.23 271.631V270.71C1116.19 270.761 1116.09 270.808 1115.95 270.851C1115.8 270.891 1115.64 270.926 1115.45 270.957C1115.27 270.986 1115.09 271.011 1114.91 271.034C1114.74 271.054 1114.6 271.071 1114.49 271.085C1114.23 271.119 1113.98 271.175 1113.76 271.251C1113.53 271.325 1113.35 271.437 1113.21 271.588C1113.07 271.736 1113.01 271.937 1113.01 272.193C1113.01 272.543 1113.14 272.807 1113.39 272.986C1113.66 273.162 1113.99 273.25 1114.39 273.25ZM1119.07 274V267.455H1120.04V268.477H1120.13C1120.26 268.128 1120.48 267.857 1120.79 267.663C1121.09 267.467 1121.46 267.369 1121.88 267.369C1122.31 267.369 1122.67 267.467 1122.96 267.663C1123.25 267.857 1123.48 268.128 1123.64 268.477H1123.71C1123.87 268.139 1124.12 267.871 1124.46 267.672C1124.79 267.47 1125.2 267.369 1125.67 267.369C1126.25 267.369 1126.73 267.553 1127.1 267.919C1127.47 268.283 1127.66 268.849 1127.66 269.619V274H1126.65V269.619C1126.65 269.136 1126.52 268.791 1126.26 268.584C1125.99 268.376 1125.68 268.273 1125.32 268.273C1124.86 268.273 1124.51 268.412 1124.25 268.69C1124 268.966 1123.88 269.315 1123.88 269.739V274H1122.85V269.517C1122.85 269.145 1122.73 268.845 1122.49 268.618C1122.25 268.388 1121.94 268.273 1121.56 268.273C1121.3 268.273 1121.05 268.342 1120.82 268.482C1120.6 268.621 1120.42 268.814 1120.28 269.061C1120.14 269.305 1120.07 269.588 1120.07 269.909V274H1119.07Z" fill="#000E38"/>
</svg>
