<svg width="1440" height="570" viewBox="0 0 1440 570" fill="none" xmlns="http://www.w3.org/2000/svg">
<rect width="1440" height="570" fill="white"/>
<path d="M478.699 478.5L703 90L927.301 478.5H478.699Z" stroke="#00E5A4" stroke-width="2"/>
<circle cx="480" cy="478" r="48" fill="white" stroke="#000E38" stroke-width="2"/>
<circle cx="928" cy="478" r="48" fill="white" stroke="#000E38" stroke-width="2"/>
<circle cx="703" cy="88" r="48" fill="white" stroke="#000E38" stroke-width="2"/>
<path d="M919.54 474.35C918.77 472.73 917.11 471.6 915.2 471.6H908.8C906.15 471.6 904 473.75 904 476.4V482.8L907.2 484.4L908 495.6H916.8" stroke="#000E38" stroke-width="2" stroke-miterlimit="10"/>
<path d="M912 466.8C914.651 466.8 916.8 464.651 916.8 462C916.8 459.349 914.651 457.2 912 457.2C909.349 457.2 907.2 459.349 907.2 462C907.2 464.651 909.349 466.8 912 466.8Z" stroke="#000E38" stroke-width="2" stroke-miterlimit="10"/>
<path d="M936.46 474.35C937.23 472.73 938.89 471.6 940.8 471.6H947.2C949.85 471.6 952 473.75 952 476.4V482.8L948.8 484.4L948 495.6H939.2" stroke="#000E38" stroke-width="2" stroke-miterlimit="10"/>
<path d="M944 466.8C946.651 466.8 948.8 464.651 948.8 462C948.8 459.349 946.651 457.2 944 457.2C941.349 457.2 939.2 459.349 939.2 462C939.2 464.651 941.349 466.8 944 466.8Z" stroke="#000E38" stroke-width="2" stroke-miterlimit="10"/>
<path d="M932.8 502H923.2L922.4 489.2L918.4 488.4V478C918.4 474.47 921.27 471.6 924.8 471.6H931.2C934.73 471.6 937.6 474.47 937.6 478V488.4L933.6 489.2L932.8 502Z" stroke="#000E38" stroke-width="2" stroke-miterlimit="10"/>
<path d="M928 466.8C931.534 466.8 934.4 463.935 934.4 460.4C934.4 456.865 931.534 454 928 454C924.465 454 921.6 456.865 921.6 460.4C921.6 463.935 924.465 466.8 928 466.8Z" stroke="#000E38" stroke-width="2" stroke-miterlimit="10"/>
<path d="M462 484.86V463C462 458.03 466.03 454 471 454C475.97 454 480 458.03 480 463V493C480 497.97 484.03 502 489 502C493.97 502 498 497.97 498 493V471.14" stroke="#000E38" stroke-width="2" stroke-miterlimit="10" stroke-linecap="square"/>
<path d="M462 502C465.314 502 468 499.314 468 496C468 492.686 465.314 490 462 490C458.686 490 456 492.686 456 496C456 499.314 458.686 502 462 502Z" stroke="#000E38" stroke-width="2" stroke-miterlimit="10" stroke-linecap="square"/>
<path d="M503.6 454.9H492.4V466.1H503.6V454.9Z" stroke="#000E38" stroke-width="2" stroke-miterlimit="10" stroke-linecap="square"/>
<path d="M685.36 82.5401C687.768 82.5401 689.72 80.588 689.72 78.1801C689.72 75.7721 687.768 73.8201 685.36 73.8201C682.952 73.8201 681 75.7721 681 78.1801C681 80.588 682.952 82.5401 685.36 82.5401Z" stroke="#000E38" stroke-width="2" stroke-miterlimit="10"/>
<path d="M720.28 82.5401C722.688 82.5401 724.64 80.588 724.64 78.1801C724.64 75.7721 722.688 73.8201 720.28 73.8201C717.872 73.8201 715.92 75.7721 715.92 78.1801C715.92 80.588 717.872 82.5401 720.28 82.5401Z" stroke="#000E38" stroke-width="2" stroke-miterlimit="10"/>
<path d="M702.82 112C705.228 112 707.18 110.048 707.18 107.64C707.18 105.232 705.228 103.28 702.82 103.28C700.412 103.28 698.46 105.232 698.46 107.64C698.46 110.048 700.412 112 702.82 112Z" stroke="#000E38" stroke-width="2" stroke-miterlimit="10"/>
<path d="M702.82 92.3599V103.27" stroke="#000E38" stroke-width="2" stroke-miterlimit="10"/>
<path d="M711.719 102.63L706.619 105.5" stroke="#000E38" stroke-width="2" stroke-miterlimit="10" stroke-linecap="square"/>
<path d="M685.359 82.55V88.0001" stroke="#000E38" stroke-width="2" stroke-miterlimit="10" stroke-linecap="square"/>
<path d="M699.02 85.86L689.16 80.3201" stroke="#000E38" stroke-width="2" stroke-miterlimit="10"/>
<path d="M706.619 85.86L716.469 80.3201" stroke="#000E38" stroke-width="2" stroke-miterlimit="10"/>
<path d="M716.469 76.0399L711.369 73.1699" stroke="#000E38" stroke-width="2" stroke-miterlimit="10" stroke-linecap="square"/>
<path d="M685.36 102.18C687.768 102.18 689.72 100.228 689.72 97.82C689.72 95.412 687.768 93.46 685.36 93.46C682.952 93.46 681 95.412 681 97.82C681 100.228 682.952 102.18 685.36 102.18Z" stroke="#000E38" stroke-width="2" stroke-miterlimit="10"/>
<path d="M720.28 102.18C722.688 102.18 724.64 100.228 724.64 97.82C724.64 95.412 722.688 93.46 720.28 93.46C717.872 93.46 715.92 95.412 715.92 97.82C715.92 100.228 717.872 102.18 720.28 102.18Z" stroke="#000E38" stroke-width="2" stroke-miterlimit="10"/>
<path d="M702.82 92.3601C705.228 92.3601 707.18 90.4081 707.18 88.0001C707.18 85.5922 705.228 83.6401 702.82 83.6401C700.412 83.6401 698.46 85.5922 698.46 88.0001C698.46 90.4081 700.412 92.3601 702.82 92.3601Z" stroke="#000E38" stroke-width="2" stroke-miterlimit="10"/>
<path d="M702.82 72.73V83.64" stroke="#000E38" stroke-width="2" stroke-miterlimit="10"/>
<path d="M702.82 72.72C705.228 72.72 707.18 70.7679 707.18 68.36C707.18 65.952 705.228 64 702.82 64C700.412 64 698.46 65.952 698.46 68.36C698.46 70.7679 700.412 72.72 702.82 72.72Z" stroke="#000E38" stroke-width="2" stroke-miterlimit="10"/>
<path d="M693.92 73.37L699.02 70.5" stroke="#000E38" stroke-width="2" stroke-miterlimit="10" stroke-linecap="square"/>
<path d="M694.27 102.83L689.17 99.96" stroke="#000E38" stroke-width="2" stroke-miterlimit="10" stroke-linecap="square"/>
<path d="M720.279 88V93.45" stroke="#000E38" stroke-width="2" stroke-miterlimit="10" stroke-linecap="square"/>
<path d="M699.02 90.1401L689.16 95.6801" stroke="#000E38" stroke-width="2" stroke-miterlimit="10"/>
<path d="M706.619 90.1401L716.469 95.6801" stroke="#000E38" stroke-width="2" stroke-miterlimit="10"/>
<path d="M658.183 7.01705V5.45455H669.092V7.01705H664.518V20H662.757V7.01705H658.183ZM674.433 20.2273C673.448 20.2273 672.584 19.9929 671.84 19.5241C671.102 19.0554 670.524 18.3996 670.107 17.5568C669.695 16.714 669.49 15.7292 669.49 14.6023C669.49 13.4659 669.695 12.474 670.107 11.6264C670.524 10.7789 671.102 10.1207 671.84 9.65199C672.584 9.18324 673.448 8.94886 674.433 8.94886C675.418 8.94886 676.279 9.18324 677.018 9.65199C677.761 10.1207 678.339 10.7789 678.751 11.6264C679.168 12.474 679.376 13.4659 679.376 14.6023C679.376 15.7292 679.168 16.714 678.751 17.5568C678.339 18.3996 677.761 19.0554 677.018 19.5241C676.279 19.9929 675.418 20.2273 674.433 20.2273ZM674.433 18.7216C675.181 18.7216 675.796 18.5298 676.279 18.1463C676.762 17.7628 677.12 17.2585 677.352 16.6335C677.584 16.0085 677.7 15.3314 677.7 14.6023C677.7 13.8731 677.584 13.1937 677.352 12.5639C677.12 11.9342 676.762 11.4252 676.279 11.0369C675.796 10.6487 675.181 10.4545 674.433 10.4545C673.685 10.4545 673.069 10.6487 672.586 11.0369C672.103 11.4252 671.746 11.9342 671.514 12.5639C671.282 13.1937 671.166 13.8731 671.166 14.6023C671.166 15.3314 671.282 16.0085 671.514 16.6335C671.746 17.2585 672.103 17.7628 672.586 18.1463C673.069 18.5298 673.685 18.7216 674.433 18.7216ZM686.366 20.2273C685.381 20.2273 684.517 19.9929 683.774 19.5241C683.035 19.0554 682.458 18.3996 682.041 17.5568C681.629 16.714 681.423 15.7292 681.423 14.6023C681.423 13.4659 681.629 12.474 682.041 11.6264C682.458 10.7789 683.035 10.1207 683.774 9.65199C684.517 9.18324 685.381 8.94886 686.366 8.94886C687.351 8.94886 688.213 9.18324 688.952 9.65199C689.695 10.1207 690.273 10.7789 690.684 11.6264C691.101 12.474 691.309 13.4659 691.309 14.6023C691.309 15.7292 691.101 16.714 690.684 17.5568C690.273 18.3996 689.695 19.0554 688.952 19.5241C688.213 19.9929 687.351 20.2273 686.366 20.2273ZM686.366 18.7216C687.114 18.7216 687.73 18.5298 688.213 18.1463C688.696 17.7628 689.053 17.2585 689.285 16.6335C689.517 16.0085 689.633 15.3314 689.633 14.6023C689.633 13.8731 689.517 13.1937 689.285 12.5639C689.053 11.9342 688.696 11.4252 688.213 11.0369C687.73 10.6487 687.114 10.4545 686.366 10.4545C685.618 10.4545 685.003 10.6487 684.52 11.0369C684.037 11.4252 683.679 11.9342 683.447 12.5639C683.215 13.1937 683.099 13.8731 683.099 14.6023C683.099 15.3314 683.215 16.0085 683.447 16.6335C683.679 17.2585 684.037 17.7628 684.52 18.1463C685.003 18.5298 685.618 18.7216 686.366 18.7216ZM695.544 5.45455V20H693.868V5.45455H695.544ZM703.046 20.2273C702.023 20.2273 701.143 19.9858 700.404 19.5028C699.665 19.0199 699.097 18.3546 698.699 17.5071C698.302 16.6596 698.103 15.6913 698.103 14.6023C698.103 13.4943 698.306 12.5166 698.714 11.669C699.126 10.8168 699.698 10.1515 700.432 9.6733C701.171 9.19034 702.033 8.94886 703.018 8.94886C703.785 8.94886 704.476 9.09091 705.091 9.375C705.707 9.65909 706.211 10.0568 706.604 10.5682C706.997 11.0795 707.241 11.6761 707.336 12.358H705.66C705.532 11.8608 705.248 11.4205 704.807 11.0369C704.372 10.6487 703.785 10.4545 703.046 10.4545C702.393 10.4545 701.82 10.625 701.327 10.9659C700.84 11.3021 700.458 11.7779 700.184 12.3935C699.914 13.0043 699.779 13.7216 699.779 14.5455C699.779 15.3883 699.912 16.1222 700.177 16.7472C700.447 17.3722 700.825 17.8575 701.313 18.2031C701.805 18.5488 702.383 18.7216 703.046 18.7216C703.482 18.7216 703.877 18.6458 704.232 18.4943C704.587 18.3428 704.888 18.125 705.134 17.8409C705.38 17.5568 705.555 17.2159 705.66 16.8182H707.336C707.241 17.4621 707.007 18.0421 706.633 18.5582C706.263 19.0696 705.773 19.4768 705.162 19.7798C704.556 20.0781 703.851 20.2273 703.046 20.2273ZM711.462 13.4375V20H709.786V5.45455H711.462V10.7955H711.604C711.86 10.232 712.243 9.78456 712.755 9.45312C713.271 9.11695 713.957 8.94886 714.814 8.94886C715.558 8.94886 716.209 9.09801 716.768 9.39631C717.326 9.68987 717.76 10.142 718.067 10.7528C718.38 11.3589 718.536 12.1307 718.536 13.0682V20H716.86V13.1818C716.86 12.3153 716.635 11.6454 716.185 11.1719C715.74 10.6937 715.122 10.4545 714.331 10.4545C713.782 10.4545 713.29 10.5705 712.854 10.8026C712.423 11.0346 712.082 11.3731 711.831 11.8182C711.585 12.2633 711.462 12.803 711.462 13.4375ZM724.813 20.2557C724.121 20.2557 723.494 20.1255 722.931 19.8651C722.367 19.5999 721.92 19.2188 721.588 18.7216C721.257 18.2197 721.091 17.6136 721.091 16.9034C721.091 16.2784 721.214 15.7718 721.46 15.3835C721.707 14.9905 722.036 14.6828 722.448 14.4602C722.86 14.2377 723.314 14.072 723.811 13.9631C724.313 13.8494 724.817 13.7595 725.324 13.6932C725.987 13.608 726.524 13.544 726.936 13.5014C727.353 13.4541 727.656 13.3759 727.845 13.267C728.039 13.1581 728.137 12.9687 728.137 12.6989V12.642C728.137 11.9413 727.945 11.3968 727.561 11.0085C727.182 10.6203 726.607 10.4261 725.835 10.4261C725.035 10.4261 724.408 10.6013 723.953 10.9517C723.499 11.3021 723.179 11.6761 722.994 12.0739L721.404 11.5057C721.688 10.8428 722.066 10.3267 722.54 9.95739C723.018 9.58333 723.539 9.32292 724.102 9.17614C724.671 9.02462 725.229 8.94886 725.779 8.94886C726.129 8.94886 726.531 8.99148 726.986 9.0767C727.445 9.1572 727.888 9.32528 728.314 9.58097C728.745 9.83665 729.102 10.2225 729.387 10.7386C729.671 11.2547 729.813 11.946 729.813 12.8125V20H728.137V18.5227H728.051C727.938 18.7595 727.748 19.0128 727.483 19.2827C727.218 19.5526 726.865 19.7822 726.425 19.9716C725.985 20.161 725.447 20.2557 724.813 20.2557ZM725.068 18.75C725.731 18.75 726.29 18.6198 726.744 18.3594C727.204 18.099 727.549 17.7628 727.781 17.3509C728.018 16.9389 728.137 16.5057 728.137 16.0511V14.517C728.066 14.6023 727.909 14.6804 727.668 14.7514C727.431 14.8177 727.156 14.8769 726.844 14.929C726.536 14.9763 726.235 15.0189 725.942 15.0568C725.653 15.09 725.419 15.1184 725.239 15.142C724.803 15.1989 724.396 15.2912 724.017 15.419C723.643 15.5421 723.34 15.7292 723.108 15.9801C722.881 16.2263 722.767 16.5625 722.767 16.9886C722.767 17.571 722.983 18.0114 723.414 18.3097C723.849 18.6032 724.401 18.75 725.068 18.75ZM732.872 20V9.09091H734.548V20H732.872ZM733.724 7.27273C733.398 7.27273 733.116 7.16146 732.879 6.93892C732.647 6.71638 732.531 6.44886 732.531 6.13636C732.531 5.82386 732.647 5.55634 732.879 5.33381C733.116 5.11127 733.398 5 733.724 5C734.051 5 734.33 5.11127 734.562 5.33381C734.799 5.55634 734.917 5.82386 734.917 6.13636C734.917 6.44886 734.799 6.71638 734.562 6.93892C734.33 7.16146 734.051 7.27273 733.724 7.27273ZM739.294 13.4375V20H737.618V9.09091H739.237V10.7955H739.379C739.635 10.2415 740.023 9.7964 740.544 9.46023C741.065 9.11932 741.737 8.94886 742.561 8.94886C743.3 8.94886 743.946 9.10038 744.5 9.40341C745.054 9.7017 745.485 10.1562 745.793 10.767C746.101 11.3731 746.254 12.1402 746.254 13.0682V20H744.578V13.1818C744.578 12.3248 744.356 11.6572 743.911 11.179C743.466 10.696 742.855 10.4545 742.078 10.4545C741.543 10.4545 741.065 10.5705 740.644 10.8026C740.227 11.0346 739.898 11.3731 739.656 11.8182C739.415 12.2633 739.294 12.803 739.294 13.4375Z" fill="black"/>
<path d="M882.349 554C882.193 553.522 881.987 553.093 881.731 552.714C881.48 552.331 881.18 552.004 880.829 551.734C880.484 551.464 880.091 551.259 879.65 551.116C879.21 550.974 878.727 550.903 878.201 550.903C877.34 550.903 876.556 551.126 875.85 551.571C875.145 552.016 874.584 552.672 874.167 553.538C873.751 554.405 873.542 555.468 873.542 556.727C873.542 557.987 873.753 559.05 874.174 559.916C874.596 560.783 875.166 561.438 875.886 561.884C876.606 562.329 877.415 562.551 878.315 562.551C879.148 562.551 879.882 562.374 880.517 562.018C881.156 561.659 881.653 561.152 882.008 560.499C882.368 559.84 882.548 559.066 882.548 558.176L883.088 558.29H878.713V556.727H884.252V558.29C884.252 559.488 883.997 560.529 883.485 561.415C882.979 562.3 882.278 562.987 881.383 563.474C880.493 563.957 879.47 564.199 878.315 564.199C877.027 564.199 875.895 563.896 874.92 563.29C873.949 562.684 873.192 561.822 872.647 560.705C872.108 559.587 871.838 558.261 871.838 556.727C871.838 555.577 871.992 554.542 872.299 553.624C872.612 552.7 873.052 551.914 873.62 551.266C874.189 550.617 874.861 550.12 875.637 549.774C876.414 549.429 877.269 549.256 878.201 549.256C878.968 549.256 879.683 549.372 880.346 549.604C881.014 549.831 881.608 550.155 882.129 550.577C882.654 550.993 883.092 551.493 883.443 552.075C883.793 552.653 884.035 553.295 884.167 554H882.349ZM891.474 564.227C890.489 564.227 889.625 563.993 888.881 563.524C888.143 563.055 887.565 562.4 887.148 561.557C886.737 560.714 886.531 559.729 886.531 558.602C886.531 557.466 886.737 556.474 887.148 555.626C887.565 554.779 888.143 554.121 888.881 553.652C889.625 553.183 890.489 552.949 891.474 552.949C892.459 552.949 893.32 553.183 894.059 553.652C894.802 554.121 895.38 554.779 895.792 555.626C896.209 556.474 896.417 557.466 896.417 558.602C896.417 559.729 896.209 560.714 895.792 561.557C895.38 562.4 894.802 563.055 894.059 563.524C893.32 563.993 892.459 564.227 891.474 564.227ZM891.474 562.722C892.222 562.722 892.837 562.53 893.32 562.146C893.803 561.763 894.161 561.259 894.393 560.634C894.625 560.009 894.741 559.331 894.741 558.602C894.741 557.873 894.625 557.194 894.393 556.564C894.161 555.934 893.803 555.425 893.32 555.037C892.837 554.649 892.222 554.455 891.474 554.455C890.726 554.455 890.11 554.649 889.627 555.037C889.144 555.425 888.787 555.934 888.555 556.564C888.323 557.194 888.207 557.873 888.207 558.602C888.207 559.331 888.323 560.009 888.555 560.634C888.787 561.259 889.144 561.763 889.627 562.146C890.11 562.53 890.726 562.722 891.474 562.722ZM907.505 553.091L903.471 564H901.767L897.733 553.091H899.551L902.562 561.784H902.676L905.687 553.091H907.505ZM913.901 564.227C912.85 564.227 911.943 563.995 911.181 563.531C910.423 563.062 909.838 562.409 909.426 561.571C909.019 560.728 908.816 559.748 908.816 558.631C908.816 557.513 909.019 556.528 909.426 555.676C909.838 554.819 910.411 554.152 911.145 553.673C911.884 553.19 912.746 552.949 913.73 552.949C914.299 552.949 914.86 553.044 915.414 553.233C915.968 553.422 916.472 553.73 916.926 554.156C917.381 554.578 917.743 555.136 918.013 555.832C918.283 556.528 918.418 557.385 918.418 558.403V559.114H910.009V557.665H916.713C916.713 557.049 916.59 556.5 916.344 556.017C916.103 555.534 915.757 555.153 915.307 554.874C914.862 554.594 914.337 554.455 913.73 554.455C913.063 554.455 912.485 554.62 911.998 554.952C911.515 555.278 911.143 555.705 910.882 556.23C910.622 556.756 910.492 557.319 910.492 557.92V558.886C910.492 559.71 910.634 560.409 910.918 560.982C911.207 561.55 911.607 561.983 912.118 562.281C912.63 562.575 913.224 562.722 913.901 562.722C914.341 562.722 914.739 562.66 915.094 562.537C915.454 562.409 915.764 562.22 916.025 561.969C916.285 561.713 916.486 561.396 916.628 561.017L918.248 561.472C918.077 562.021 917.791 562.504 917.388 562.92C916.986 563.332 916.489 563.654 915.897 563.886C915.305 564.114 914.64 564.227 913.901 564.227ZM920.968 564V553.091H922.587V554.739H922.701C922.9 554.199 923.259 553.761 923.78 553.425C924.301 553.089 924.888 552.92 925.542 552.92C925.665 552.92 925.819 552.923 926.003 552.928C926.188 552.932 926.328 552.939 926.422 552.949V554.653C926.365 554.639 926.235 554.618 926.032 554.589C925.833 554.556 925.622 554.54 925.4 554.54C924.869 554.54 924.396 554.651 923.979 554.874C923.567 555.091 923.24 555.394 922.999 555.783C922.762 556.166 922.644 556.604 922.644 557.097V564H920.968ZM930.085 557.438V564H928.409V553.091H930.028V554.795H930.17C930.426 554.241 930.814 553.796 931.335 553.46C931.856 553.119 932.528 552.949 933.352 552.949C934.091 552.949 934.737 553.1 935.291 553.403C935.845 553.702 936.276 554.156 936.584 554.767C936.892 555.373 937.045 556.14 937.045 557.068V564H935.369V557.182C935.369 556.325 935.147 555.657 934.702 555.179C934.257 554.696 933.646 554.455 932.869 554.455C932.334 554.455 931.856 554.571 931.435 554.803C931.018 555.035 930.689 555.373 930.447 555.818C930.206 556.263 930.085 556.803 930.085 557.438ZM943.319 564.256C942.627 564.256 942 564.125 941.436 563.865C940.873 563.6 940.426 563.219 940.094 562.722C939.763 562.22 939.597 561.614 939.597 560.903C939.597 560.278 939.72 559.772 939.966 559.384C940.212 558.991 940.542 558.683 940.953 558.46C941.365 558.238 941.82 558.072 942.317 557.963C942.819 557.849 943.323 557.759 943.83 557.693C944.493 557.608 945.03 557.544 945.442 557.501C945.859 557.454 946.162 557.376 946.351 557.267C946.545 557.158 946.642 556.969 946.642 556.699V556.642C946.642 555.941 946.451 555.397 946.067 555.009C945.688 554.62 945.113 554.426 944.341 554.426C943.541 554.426 942.914 554.601 942.459 554.952C942.005 555.302 941.685 555.676 941.5 556.074L939.909 555.506C940.194 554.843 940.572 554.327 941.046 553.957C941.524 553.583 942.045 553.323 942.608 553.176C943.176 553.025 943.735 552.949 944.284 552.949C944.635 552.949 945.037 552.991 945.492 553.077C945.951 553.157 946.394 553.325 946.82 553.581C947.251 553.837 947.608 554.223 947.892 554.739C948.176 555.255 948.319 555.946 948.319 556.812V564H946.642V562.523H946.557C946.444 562.759 946.254 563.013 945.989 563.283C945.724 563.553 945.371 563.782 944.931 563.972C944.49 564.161 943.953 564.256 943.319 564.256ZM943.574 562.75C944.237 562.75 944.796 562.62 945.25 562.359C945.71 562.099 946.055 561.763 946.287 561.351C946.524 560.939 946.642 560.506 946.642 560.051V558.517C946.571 558.602 946.415 558.68 946.174 558.751C945.937 558.818 945.662 558.877 945.35 558.929C945.042 558.976 944.741 559.019 944.448 559.057C944.159 559.09 943.925 559.118 943.745 559.142C943.309 559.199 942.902 559.291 942.523 559.419C942.149 559.542 941.846 559.729 941.614 559.98C941.387 560.226 941.273 560.562 941.273 560.989C941.273 561.571 941.489 562.011 941.919 562.31C942.355 562.603 942.907 562.75 943.574 562.75ZM953.054 557.438V564H951.378V553.091H952.997V554.795H953.139C953.395 554.241 953.783 553.796 954.304 553.46C954.825 553.119 955.497 552.949 956.321 552.949C957.06 552.949 957.706 553.1 958.26 553.403C958.814 553.702 959.245 554.156 959.553 554.767C959.86 555.373 960.014 556.14 960.014 557.068V564H958.338V557.182C958.338 556.325 958.116 555.657 957.67 555.179C957.225 554.696 956.615 554.455 955.838 554.455C955.303 554.455 954.825 554.571 954.403 554.803C953.987 555.035 953.658 555.373 953.416 555.818C953.175 556.263 953.054 556.803 953.054 557.438ZM967.509 564.227C966.486 564.227 965.605 563.986 964.867 563.503C964.128 563.02 963.56 562.355 963.162 561.507C962.765 560.66 962.566 559.691 962.566 558.602C962.566 557.494 962.769 556.517 963.176 555.669C963.588 554.817 964.161 554.152 964.895 553.673C965.634 553.19 966.496 552.949 967.48 552.949C968.248 552.949 968.939 553.091 969.554 553.375C970.17 553.659 970.674 554.057 971.067 554.568C971.46 555.08 971.704 555.676 971.799 556.358H970.123C969.995 555.861 969.711 555.42 969.27 555.037C968.835 554.649 968.248 554.455 967.509 554.455C966.855 554.455 966.283 554.625 965.79 554.966C965.302 555.302 964.921 555.778 964.647 556.393C964.377 557.004 964.242 557.722 964.242 558.545C964.242 559.388 964.374 560.122 964.64 560.747C964.909 561.372 965.288 561.857 965.776 562.203C966.268 562.549 966.846 562.722 967.509 562.722C967.944 562.722 968.34 562.646 968.695 562.494C969.05 562.343 969.351 562.125 969.597 561.841C969.843 561.557 970.018 561.216 970.123 560.818H971.799C971.704 561.462 971.47 562.042 971.096 562.558C970.726 563.07 970.236 563.477 969.625 563.78C969.019 564.078 968.314 564.227 967.509 564.227ZM978.823 564.227C977.772 564.227 976.865 563.995 976.103 563.531C975.345 563.062 974.76 562.409 974.348 561.571C973.941 560.728 973.738 559.748 973.738 558.631C973.738 557.513 973.941 556.528 974.348 555.676C974.76 554.819 975.333 554.152 976.067 553.673C976.806 553.19 977.667 552.949 978.652 552.949C979.221 552.949 979.782 553.044 980.336 553.233C980.89 553.422 981.394 553.73 981.848 554.156C982.303 554.578 982.665 555.136 982.935 555.832C983.205 556.528 983.34 557.385 983.34 558.403V559.114H974.931V557.665H981.635C981.635 557.049 981.512 556.5 981.266 556.017C981.025 555.534 980.679 555.153 980.229 554.874C979.784 554.594 979.258 554.455 978.652 554.455C977.985 554.455 977.407 554.62 976.919 554.952C976.436 555.278 976.065 555.705 975.804 556.23C975.544 556.756 975.414 557.319 975.414 557.92V558.886C975.414 559.71 975.556 560.409 975.84 560.982C976.129 561.55 976.529 561.983 977.04 562.281C977.551 562.575 978.146 562.722 978.823 562.722C979.263 562.722 979.661 562.66 980.016 562.537C980.376 562.409 980.686 562.22 980.946 561.969C981.207 561.713 981.408 561.396 981.55 561.017L983.169 561.472C982.999 562.021 982.712 562.504 982.31 562.92C981.908 563.332 981.41 563.654 980.819 563.886C980.227 564.114 979.561 564.227 978.823 564.227Z" fill="black"/>
<path d="M408.464 564L404.487 549.455H406.276L409.316 561.301H409.458L412.555 549.455H414.544L417.64 561.301H417.782L420.822 549.455H422.612L418.634 564H416.816L413.606 552.409H413.492L410.282 564H408.464ZM427.995 564.227C427.01 564.227 426.146 563.993 425.403 563.524C424.664 563.055 424.087 562.4 423.67 561.557C423.258 560.714 423.052 559.729 423.052 558.602C423.052 557.466 423.258 556.474 423.67 555.626C424.087 554.779 424.664 554.121 425.403 553.652C426.146 553.183 427.01 552.949 427.995 552.949C428.98 552.949 429.842 553.183 430.58 553.652C431.324 554.121 431.901 554.779 432.313 555.626C432.73 556.474 432.938 557.466 432.938 558.602C432.938 559.729 432.73 560.714 432.313 561.557C431.901 562.4 431.324 563.055 430.58 563.524C429.842 563.993 428.98 564.227 427.995 564.227ZM427.995 562.722C428.743 562.722 429.359 562.53 429.842 562.146C430.325 561.763 430.682 561.259 430.914 560.634C431.146 560.009 431.262 559.331 431.262 558.602C431.262 557.873 431.146 557.194 430.914 556.564C430.682 555.934 430.325 555.425 429.842 555.037C429.359 554.649 428.743 554.455 427.995 554.455C427.247 554.455 426.632 554.649 426.149 555.037C425.666 555.425 425.308 555.934 425.076 556.564C424.844 557.194 424.728 557.873 424.728 558.602C424.728 559.331 424.844 560.009 425.076 560.634C425.308 561.259 425.666 561.763 426.149 562.146C426.632 562.53 427.247 562.722 427.995 562.722ZM435.497 564V553.091H437.116V554.739H437.23C437.429 554.199 437.789 553.761 438.309 553.425C438.83 553.089 439.417 552.92 440.071 552.92C440.194 552.92 440.348 552.923 440.532 552.928C440.717 552.932 440.857 552.939 440.952 552.949V554.653C440.895 554.639 440.765 554.618 440.561 554.589C440.362 554.556 440.151 554.54 439.929 554.54C439.398 554.54 438.925 554.651 438.508 554.874C438.096 555.091 437.77 555.394 437.528 555.783C437.291 556.166 437.173 556.604 437.173 557.097V564H435.497ZM444.501 560.023L444.472 557.949H444.813L449.586 553.091H451.66L446.575 558.233H446.433L444.501 560.023ZM442.938 564V549.455H444.615V564H442.938ZM449.87 564L445.609 558.602L446.802 557.438L452.001 564H449.87ZM459.442 568.091V553.091H461.062V554.824H461.26C461.384 554.634 461.554 554.393 461.772 554.099C461.994 553.801 462.312 553.536 462.724 553.304C463.14 553.067 463.704 552.949 464.414 552.949C465.332 552.949 466.142 553.179 466.843 553.638C467.544 554.097 468.09 554.748 468.483 555.591C468.876 556.434 469.073 557.428 469.073 558.574C469.073 559.729 468.876 560.731 468.483 561.578C468.09 562.421 467.546 563.074 466.85 563.538C466.154 563.998 465.351 564.227 464.442 564.227C463.742 564.227 463.18 564.111 462.759 563.879C462.338 563.643 462.013 563.375 461.786 563.077C461.559 562.774 461.384 562.523 461.26 562.324H461.118V568.091H459.442ZM461.09 558.545C461.09 559.369 461.211 560.096 461.452 560.726C461.694 561.351 462.046 561.841 462.51 562.196C462.974 562.546 463.543 562.722 464.215 562.722C464.916 562.722 465.501 562.537 465.969 562.168C466.443 561.794 466.798 561.292 467.035 560.662C467.276 560.027 467.397 559.322 467.397 558.545C467.397 557.778 467.278 557.087 467.042 556.472C466.81 555.851 466.457 555.361 465.983 555.001C465.515 554.637 464.925 554.455 464.215 554.455C463.533 554.455 462.96 554.627 462.496 554.973C462.032 555.314 461.682 555.792 461.445 556.408C461.208 557.018 461.09 557.731 461.09 558.545ZM471.63 564V553.091H473.249V554.739H473.363C473.562 554.199 473.921 553.761 474.442 553.425C474.963 553.089 475.55 552.92 476.204 552.92C476.327 552.92 476.481 552.923 476.665 552.928C476.85 552.932 476.99 552.939 477.084 552.949V554.653C477.028 554.639 476.897 554.618 476.694 554.589C476.495 554.556 476.284 554.54 476.062 554.54C475.531 554.54 475.058 554.651 474.641 554.874C474.229 555.091 473.903 555.394 473.661 555.783C473.424 556.166 473.306 556.604 473.306 557.097V564H471.63ZM483.171 564.227C482.186 564.227 481.322 563.993 480.579 563.524C479.84 563.055 479.262 562.4 478.846 561.557C478.434 560.714 478.228 559.729 478.228 558.602C478.228 557.466 478.434 556.474 478.846 555.626C479.262 554.779 479.84 554.121 480.579 553.652C481.322 553.183 482.186 552.949 483.171 552.949C484.156 552.949 485.018 553.183 485.756 553.652C486.5 554.121 487.077 554.779 487.489 555.626C487.906 556.474 488.114 557.466 488.114 558.602C488.114 559.729 487.906 560.714 487.489 561.557C487.077 562.4 486.5 563.055 485.756 563.524C485.018 563.993 484.156 564.227 483.171 564.227ZM483.171 562.722C483.919 562.722 484.535 562.53 485.018 562.146C485.501 561.763 485.858 561.259 486.09 560.634C486.322 560.009 486.438 559.331 486.438 558.602C486.438 557.873 486.322 557.194 486.09 556.564C485.858 555.934 485.501 555.425 485.018 555.037C484.535 554.649 483.919 554.455 483.171 554.455C482.423 554.455 481.807 554.649 481.324 555.037C480.841 555.425 480.484 555.934 480.252 556.564C480.02 557.194 479.904 557.873 479.904 558.602C479.904 559.331 480.02 560.009 480.252 560.634C480.484 561.259 480.841 561.763 481.324 562.146C481.807 562.53 482.423 562.722 483.171 562.722ZM495.105 564.227C494.082 564.227 493.201 563.986 492.463 563.503C491.724 563.02 491.156 562.355 490.758 561.507C490.36 560.66 490.161 559.691 490.161 558.602C490.161 557.494 490.365 556.517 490.772 555.669C491.184 554.817 491.757 554.152 492.491 553.673C493.23 553.19 494.091 552.949 495.076 552.949C495.843 552.949 496.535 553.091 497.15 553.375C497.766 553.659 498.27 554.057 498.663 554.568C499.056 555.08 499.3 555.676 499.394 556.358H497.718C497.59 555.861 497.306 555.42 496.866 555.037C496.43 554.649 495.843 554.455 495.105 554.455C494.451 554.455 493.878 554.625 493.386 554.966C492.898 555.302 492.517 555.778 492.242 556.393C491.972 557.004 491.838 557.722 491.838 558.545C491.838 559.388 491.97 560.122 492.235 560.747C492.505 561.372 492.884 561.857 493.372 562.203C493.864 562.549 494.442 562.722 495.105 562.722C495.54 562.722 495.936 562.646 496.291 562.494C496.646 562.343 496.946 562.125 497.193 561.841C497.439 561.557 497.614 561.216 497.718 560.818H499.394C499.3 561.462 499.065 562.042 498.691 562.558C498.322 563.07 497.832 563.477 497.221 563.78C496.615 564.078 495.91 564.227 495.105 564.227ZM506.419 564.227C505.367 564.227 504.461 563.995 503.698 563.531C502.941 563.062 502.356 562.409 501.944 561.571C501.537 560.728 501.333 559.748 501.333 558.631C501.333 557.513 501.537 556.528 501.944 555.676C502.356 554.819 502.929 554.152 503.663 553.673C504.401 553.19 505.263 552.949 506.248 552.949C506.816 552.949 507.377 553.044 507.931 553.233C508.485 553.422 508.99 553.73 509.444 554.156C509.899 554.578 510.261 555.136 510.531 555.832C510.801 556.528 510.936 557.385 510.936 558.403V559.114H502.526V557.665H509.231C509.231 557.049 509.108 556.5 508.862 556.017C508.62 555.534 508.275 555.153 507.825 554.874C507.38 554.594 506.854 554.455 506.248 554.455C505.58 554.455 505.003 554.62 504.515 554.952C504.032 555.278 503.66 555.705 503.4 556.23C503.14 556.756 503.009 557.319 503.009 557.92V558.886C503.009 559.71 503.151 560.409 503.436 560.982C503.724 561.55 504.124 561.983 504.636 562.281C505.147 562.575 505.741 562.722 506.419 562.722C506.859 562.722 507.257 562.66 507.612 562.537C507.972 562.409 508.282 562.22 508.542 561.969C508.802 561.713 509.004 561.396 509.146 561.017L510.765 561.472C510.595 562.021 510.308 562.504 509.906 562.92C509.503 563.332 509.006 563.654 508.414 563.886C507.822 564.114 507.157 564.227 506.419 564.227ZM521.213 555.534L519.707 555.96C519.612 555.709 519.472 555.465 519.288 555.229C519.108 554.987 518.862 554.788 518.549 554.632C518.237 554.476 517.837 554.398 517.349 554.398C516.681 554.398 516.125 554.552 515.68 554.859C515.24 555.162 515.019 555.548 515.019 556.017C515.019 556.434 515.171 556.763 515.474 557.004C515.777 557.246 516.25 557.447 516.894 557.608L518.514 558.006C519.489 558.242 520.216 558.605 520.694 559.092C521.172 559.575 521.411 560.198 521.411 560.96C521.411 561.585 521.231 562.144 520.872 562.636C520.517 563.129 520.019 563.517 519.38 563.801C518.741 564.085 517.998 564.227 517.15 564.227C516.037 564.227 515.116 563.986 514.387 563.503C513.658 563.02 513.196 562.314 513.002 561.386L514.593 560.989C514.745 561.576 515.031 562.016 515.453 562.31C515.879 562.603 516.435 562.75 517.122 562.75C517.903 562.75 518.523 562.584 518.982 562.253C519.446 561.917 519.678 561.514 519.678 561.045C519.678 560.667 519.546 560.349 519.281 560.094C519.016 559.833 518.608 559.639 518.059 559.511L516.241 559.085C515.242 558.848 514.508 558.482 514.039 557.984C513.575 557.482 513.343 556.855 513.343 556.102C513.343 555.487 513.516 554.942 513.862 554.469C514.212 553.995 514.688 553.624 515.289 553.354C515.895 553.084 516.582 552.949 517.349 552.949C518.428 552.949 519.276 553.186 519.892 553.659C520.512 554.133 520.952 554.758 521.213 555.534ZM531.662 555.534L530.156 555.96C530.061 555.709 529.922 555.465 529.737 555.229C529.557 554.987 529.311 554.788 528.998 554.632C528.686 554.476 528.286 554.398 527.798 554.398C527.131 554.398 526.574 554.552 526.129 554.859C525.689 555.162 525.469 555.548 525.469 556.017C525.469 556.434 525.62 556.763 525.923 557.004C526.226 557.246 526.7 557.447 527.344 557.608L528.963 558.006C529.938 558.242 530.665 558.605 531.143 559.092C531.622 559.575 531.861 560.198 531.861 560.96C531.861 561.585 531.681 562.144 531.321 562.636C530.966 563.129 530.469 563.517 529.829 563.801C529.19 564.085 528.447 564.227 527.599 564.227C526.487 564.227 525.566 563.986 524.836 563.503C524.107 563.02 523.646 562.314 523.452 561.386L525.042 560.989C525.194 561.576 525.48 562.016 525.902 562.31C526.328 562.603 526.884 562.75 527.571 562.75C528.352 562.75 528.972 562.584 529.432 562.253C529.896 561.917 530.128 561.514 530.128 561.045C530.128 560.667 529.995 560.349 529.73 560.094C529.465 559.833 529.058 559.639 528.508 559.511L526.69 559.085C525.691 558.848 524.957 558.482 524.488 557.984C524.024 557.482 523.792 556.855 523.792 556.102C523.792 555.487 523.965 554.942 524.311 554.469C524.661 553.995 525.137 553.624 525.738 553.354C526.345 553.084 527.031 552.949 527.798 552.949C528.878 552.949 529.725 553.186 530.341 553.659C530.961 554.133 531.401 554.758 531.662 555.534ZM538.958 564.227C537.906 564.227 537 563.995 536.237 563.531C535.48 563.062 534.895 562.409 534.483 561.571C534.076 560.728 533.872 559.748 533.872 558.631C533.872 557.513 534.076 556.528 534.483 555.676C534.895 554.819 535.468 554.152 536.202 553.673C536.941 553.19 537.802 552.949 538.787 552.949C539.355 552.949 539.916 553.044 540.47 553.233C541.024 553.422 541.529 553.73 541.983 554.156C542.438 554.578 542.8 555.136 543.07 555.832C543.34 556.528 543.475 557.385 543.475 558.403V559.114H535.066V557.665H541.77C541.77 557.049 541.647 556.5 541.401 556.017C541.159 555.534 540.814 555.153 540.364 554.874C539.919 554.594 539.393 554.455 538.787 554.455C538.119 554.455 537.542 554.62 537.054 554.952C536.571 555.278 536.2 555.705 535.939 556.23C535.679 556.756 535.548 557.319 535.548 557.92V558.886C535.548 559.71 535.691 560.409 535.975 560.982C536.263 561.55 536.664 561.983 537.175 562.281C537.686 562.575 538.28 562.722 538.958 562.722C539.398 562.722 539.796 562.66 540.151 562.537C540.511 562.409 540.821 562.22 541.081 561.969C541.342 561.713 541.543 561.396 541.685 561.017L543.304 561.472C543.134 562.021 542.847 562.504 542.445 562.92C542.042 563.332 541.545 563.654 540.953 563.886C540.361 564.114 539.696 564.227 538.958 564.227ZM553.752 555.534L552.246 555.96C552.151 555.709 552.012 555.465 551.827 555.229C551.647 554.987 551.401 554.788 551.088 554.632C550.776 554.476 550.376 554.398 549.888 554.398C549.22 554.398 548.664 554.552 548.219 554.859C547.779 555.162 547.558 555.548 547.558 556.017C547.558 556.434 547.71 556.763 548.013 557.004C548.316 557.246 548.789 557.447 549.433 557.608L551.053 558.006C552.028 558.242 552.755 558.605 553.233 559.092C553.711 559.575 553.95 560.198 553.95 560.96C553.95 561.585 553.771 562.144 553.411 562.636C553.056 563.129 552.558 563.517 551.919 563.801C551.28 564.085 550.537 564.227 549.689 564.227C548.576 564.227 547.655 563.986 546.926 563.503C546.197 563.02 545.735 562.314 545.541 561.386L547.132 560.989C547.284 561.576 547.57 562.016 547.992 562.31C548.418 562.603 548.974 562.75 549.661 562.75C550.442 562.75 551.062 562.584 551.521 562.253C551.985 561.917 552.218 561.514 552.218 561.045C552.218 560.667 552.085 560.349 551.82 560.094C551.555 559.833 551.147 559.639 550.598 559.511L548.78 559.085C547.781 558.848 547.047 558.482 546.578 557.984C546.114 557.482 545.882 556.855 545.882 556.102C545.882 555.487 546.055 554.942 546.401 554.469C546.751 553.995 547.227 553.624 547.828 553.354C548.434 553.084 549.121 552.949 549.888 552.949C550.968 552.949 551.815 553.186 552.431 553.659C553.051 554.133 553.491 554.758 553.752 555.534Z" fill="black"/>
</svg>
