<svg width="1440" height="444" viewBox="0 0 1440 444" fill="none" xmlns="http://www.w3.org/2000/svg">
<rect width="1440" height="443" transform="translate(0 1)" fill="white"/>
<path d="M568 293.544H567V294.117L567.494 294.407L568 293.544ZM625 327L624.494 327.862L626 327H625ZM567 227V293.544H569V227H567ZM567.494 294.407L624.494 327.862L625.506 326.138L568.506 292.682L567.494 294.407ZM626 327V260.706H624V327H626Z" fill="#000E38"/>
<path d="M625.604 260.5L568 227.267L625.604 195L682.5 227L625.604 260.5Z" fill="white" stroke="#000E38" stroke-width="2" stroke-linejoin="bevel"/>
<path d="M625.604 327.5L568 293.267V226.696L625.604 260.5V327.5Z" fill="white" stroke="#000E38" stroke-width="2" stroke-linejoin="bevel"/>
<path d="M682.604 226.696L625 260.93V327.5L682.604 293.696V226.696Z" fill="white" stroke="#000E38" stroke-width="2" stroke-linejoin="bevel"/>
<path d="M759 293.544H758V294.117L758.494 294.407L759 293.544ZM816 327L815.494 327.862L817 327H816ZM758 227V293.544H760V227H758ZM758.494 294.407L815.494 327.862L816.506 326.138L759.506 292.682L758.494 294.407ZM817 327V260.706H815V327H817Z" fill="#000E38"/>
<path d="M816.604 260.5L759 227.267L816.604 195L873.5 227L816.604 260.5Z" fill="white" stroke="#000E38" stroke-width="2" stroke-linejoin="bevel"/>
<path d="M816.604 327.5L759 293.267V226.696L816.604 260.5V327.5Z" fill="white" stroke="#000E38" stroke-width="2" stroke-linejoin="bevel"/>
<path d="M873.604 226.696L816 260.93V327.5L873.604 293.696V226.696Z" fill="white" stroke="#000E38" stroke-width="2" stroke-linejoin="bevel"/>
<path d="M663 339.544H662V340.117L662.494 340.407L663 339.544ZM720 373L719.494 373.862L721 373H720ZM662 273V339.544H664V273H662ZM662.494 340.407L719.494 373.862L720.506 372.138L663.506 338.682L662.494 340.407ZM721 373V306.706H719V373H721Z" fill="#000E38"/>
<path d="M720.604 306.5L663 273.267L720.604 241L777.5 273L720.604 306.5Z" fill="white" stroke="#000E38" stroke-width="2" stroke-linejoin="bevel"/>
<path d="M720.604 373.5L663 339.267V272.696L720.604 306.5V373.5Z" fill="white" stroke="#000E38" stroke-width="2" stroke-linejoin="bevel"/>
<path d="M777.604 272.696L720 306.93V373.5L777.604 339.696V272.696Z" fill="white" stroke="#000E38" stroke-width="2" stroke-linejoin="bevel"/>
<path d="M663 134.544H662V135.117L662.494 135.407L663 134.544ZM720 168L719.494 168.862L721 168H720ZM662 68V134.544H664V68H662ZM662.494 135.407L719.494 168.862L720.506 167.138L663.506 133.682L662.494 135.407ZM721 168V101.706H719V168H721Z" fill="#000E38"/>
<path d="M720.604 101.5L663 68.2667L720.604 36L777.5 68L720.604 101.5Z" fill="white" stroke="#000E38" stroke-width="2" stroke-linejoin="bevel"/>
<path d="M720.604 168.5L663 134.267V67.6963L720.604 101.5V168.5Z" fill="white" stroke="#000E38" stroke-width="2" stroke-linejoin="bevel"/>
<path d="M777.604 67.6964L720 101.93V168.5L777.604 134.696V67.6964Z" fill="white" stroke="#000E38" stroke-width="2" stroke-linejoin="bevel"/>
<path d="M541 102V310.283L720.5 415" stroke="#000E38" stroke-width="2"/>
<path d="M541 102.2L720.576 1L899.5 107" stroke="#000E38" stroke-width="2" stroke-linejoin="bevel"/>
<path d="M721 414.5L899 312.716V107" stroke="#000E38" stroke-width="2"/>
<path d="M568 181.544H567V182.117L567.494 182.407L568 181.544ZM625 215L624.494 215.862L626 215H625ZM567 115V181.544H569V115H567ZM567.494 182.407L624.494 215.862L625.506 214.138L568.506 180.682L567.494 182.407ZM626 215V148.706H624V215H626Z" fill="#000E38"/>
<path d="M625.604 148.5L568 115.267L625.604 83L682.5 115L625.604 148.5Z" fill="white" stroke="#000E38" stroke-width="2" stroke-linejoin="bevel"/>
<path d="M625.604 215.5L568 181.267V114.696L625.604 148.5V215.5Z" fill="white" stroke="#000E38" stroke-width="2" stroke-linejoin="bevel"/>
<path d="M682.604 114.696L625 148.93V215.5L682.604 181.696V114.696Z" fill="white" stroke="#000E38" stroke-width="2" stroke-linejoin="bevel"/>
<path d="M759 181.544H758V182.117L758.494 182.407L759 181.544ZM816 215L815.494 215.862L817 215H816ZM758 115V181.544H760V115H758ZM758.494 182.407L815.494 215.862L816.506 214.138L759.506 180.682L758.494 182.407ZM817 215V148.706H815V215H817Z" fill="#000E38"/>
<path d="M816.604 148.5L759 115.267L816.604 83L873.5 115L816.604 148.5Z" fill="white" stroke="#000E38" stroke-width="2" stroke-linejoin="bevel"/>
<path d="M816.604 215.5L759 181.267V114.696L816.604 148.5V215.5Z" fill="white" stroke="#000E38" stroke-width="2" stroke-linejoin="bevel"/>
<path d="M873.604 114.696L816 148.93V215.5L873.604 181.696V114.696Z" fill="white" stroke="#000E38" stroke-width="2" stroke-linejoin="bevel"/>
<path d="M544.735 343.036C544.202 343.182 543.889 343.733 544.036 344.265L546.423 352.943C546.57 353.475 547.12 353.788 547.653 353.642C548.185 353.495 548.498 352.945 548.351 352.412L546.229 344.699L553.943 342.577C554.475 342.43 554.788 341.88 554.642 341.347C554.495 340.815 553.945 340.502 553.412 340.649L544.735 343.036ZM691.494 426.131L545.494 343.131L544.506 344.869L690.506 427.869L691.494 426.131Z" fill="#00E5A4"/>
<path d="M894.265 343.036C894.798 343.182 895.111 343.733 894.964 344.265L892.577 352.943C892.43 353.475 891.88 353.788 891.347 353.642C890.815 353.495 890.502 352.945 890.649 352.412L892.771 344.699L885.057 342.577C884.525 342.43 884.212 341.88 884.358 341.347C884.505 340.815 885.055 340.502 885.588 340.649L894.265 343.036ZM747.506 426.131L893.506 343.131L894.494 344.869L748.494 427.869L747.506 426.131Z" fill="#00E5A4"/>
<path d="M923.293 123.293C923.683 122.902 924.317 122.902 924.707 123.293L931.071 129.657C931.462 130.047 931.462 130.68 931.071 131.071C930.681 131.462 930.047 131.462 929.657 131.071L924 125.414L918.343 131.071C917.953 131.462 917.319 131.462 916.929 131.071C916.538 130.68 916.538 130.047 916.929 129.657L923.293 123.293ZM923 291.943V124H925V291.943H923Z" fill="#00E5A4"/>
<path d="M567.546 400.251L574.921 387.714L579.304 390.292C580.178 390.806 580.809 391.38 581.199 392.016C581.591 392.648 581.777 393.298 581.757 393.967C581.739 394.633 581.55 395.271 581.19 395.884C580.873 396.422 580.515 396.811 580.117 397.049C579.723 397.289 579.311 397.42 578.88 397.442C578.454 397.466 578.033 397.421 577.616 397.308L577.544 397.431C577.913 397.681 578.22 398.042 578.463 398.515C578.707 398.988 578.825 399.53 578.817 400.141C578.81 400.751 578.611 401.387 578.222 402.048C577.853 402.677 577.377 403.158 576.796 403.492C576.216 403.826 575.53 403.959 574.741 403.89C573.952 403.821 573.064 403.496 572.076 402.916L567.546 400.251ZM569.857 399.797L572.869 401.569C573.86 402.152 574.677 402.374 575.319 402.236C575.967 402.095 576.454 401.75 576.778 401.199C577.027 400.774 577.15 400.319 577.145 399.832C577.142 399.342 577.004 398.871 576.732 398.419C576.461 397.964 576.053 397.575 575.506 397.253L572.421 395.438L569.857 399.797ZM573.198 394.116L576.014 395.773C576.471 396.041 576.936 396.194 577.409 396.231C577.886 396.27 578.329 396.189 578.737 395.99C579.15 395.793 579.486 395.474 579.745 395.034C580.069 394.483 580.152 393.903 579.994 393.293C579.839 392.68 579.345 392.128 578.512 391.639L575.647 389.953L573.198 394.116ZM578.562 406.731L584.093 397.328L585.489 398.149L584.654 399.569L584.752 399.627C585.197 399.262 585.729 399.067 586.348 399.042C586.968 399.016 587.559 399.169 588.122 399.5C588.228 399.562 588.36 399.643 588.516 399.74C588.673 399.838 588.79 399.915 588.867 399.971L588.003 401.44C587.961 401.399 587.859 401.315 587.698 401.187C587.544 401.058 587.37 400.937 587.179 400.824C586.722 400.555 586.257 400.411 585.785 400.391C585.32 400.37 584.884 400.466 584.479 400.678C584.081 400.888 583.757 401.206 583.507 401.63L580.007 407.581L578.562 406.731ZM587.614 412.352C587.018 412.001 586.543 411.571 586.189 411.061C585.838 410.547 585.646 409.991 585.612 409.395C585.581 408.794 585.745 408.188 586.105 407.575C586.422 407.037 586.785 406.662 587.194 406.453C587.606 406.239 588.046 406.14 588.513 406.157C588.981 406.174 589.457 406.262 589.941 406.42C590.431 406.577 590.911 406.755 591.382 406.955C591.996 407.217 592.492 407.435 592.869 407.607C593.252 407.777 593.552 407.864 593.771 407.866C593.993 407.87 594.173 407.756 594.31 407.524L594.339 407.475C594.694 406.871 594.805 406.304 594.671 405.775C594.542 405.248 594.144 404.789 593.479 404.398C592.789 403.992 592.16 403.825 591.59 403.897C591.021 403.968 590.556 404.129 590.195 404.378L589.112 403.081C589.693 402.654 590.281 402.401 590.876 402.323C591.478 402.243 592.059 402.283 592.619 402.442C593.186 402.599 593.706 402.817 594.179 403.096C594.481 403.273 594.806 403.514 595.155 403.818C595.51 404.12 595.806 404.49 596.044 404.926C596.286 405.365 596.398 405.879 596.381 406.468C596.364 407.057 596.136 407.725 595.697 408.471L592.053 414.667L590.608 413.817L591.357 412.543L591.284 412.5C591.066 412.647 590.774 412.769 590.409 412.867C590.043 412.965 589.623 412.984 589.147 412.924C588.672 412.864 588.16 412.673 587.614 412.352ZM588.597 411.184C589.169 411.52 589.716 411.691 590.24 411.697C590.768 411.705 591.236 411.591 591.645 411.353C592.058 411.118 592.38 410.805 592.61 410.413L593.388 409.091C593.284 409.128 593.109 409.116 592.865 409.055C592.628 408.992 592.361 408.904 592.065 408.79C591.776 408.675 591.495 408.559 591.223 408.443C590.957 408.325 590.741 408.231 590.574 408.16C590.169 407.988 589.772 407.861 589.38 407.78C588.995 407.696 588.639 407.704 588.312 407.802C587.991 407.899 587.723 408.131 587.507 408.499C587.212 409.001 587.174 409.489 587.394 409.965C587.621 410.439 588.022 410.845 588.597 411.184ZM599.462 411.411L596.134 417.067L594.69 416.218L600.221 406.815L601.617 407.636L600.752 409.105L600.875 409.177C601.376 408.829 601.936 408.642 602.556 408.617C603.178 408.587 603.844 408.781 604.554 409.199C605.19 409.573 605.671 410.031 605.994 410.573C606.321 411.111 606.462 411.722 606.417 412.404C606.375 413.083 606.119 413.822 605.648 414.622L602.134 420.596L600.689 419.747L604.146 413.87C604.581 413.131 604.727 412.443 604.586 411.805C604.447 411.163 604.043 410.645 603.374 410.252C602.913 409.98 602.442 409.838 601.961 409.824C601.484 409.813 601.029 409.938 600.595 410.199C600.161 410.46 599.784 410.864 599.462 411.411ZM608.209 424.434C607.425 423.973 606.85 423.368 606.483 422.619C606.118 421.867 605.98 421.027 606.069 420.102C606.16 419.172 606.498 418.209 607.084 417.213C607.665 416.226 608.339 415.468 609.105 414.941C609.871 414.414 610.672 414.13 611.509 414.089C612.346 414.049 613.16 414.261 613.952 414.727C614.564 415.087 614.988 415.474 615.223 415.887C615.464 416.298 615.603 416.687 615.64 417.055C615.683 417.421 615.709 417.716 615.719 417.942L615.842 418.014L618.564 413.386L620.009 414.236L612.634 426.773L611.238 425.952L612.088 424.507L611.917 424.407C611.71 424.516 611.431 424.643 611.082 424.789C610.735 424.931 610.32 424.997 609.836 424.987C609.356 424.974 608.813 424.789 608.209 424.434ZM609.168 423.251C609.748 423.592 610.326 423.729 610.904 423.663C611.484 423.592 612.037 423.348 612.562 422.932C613.089 422.512 613.562 421.946 613.979 421.236C614.392 420.534 614.651 419.86 614.757 419.214C614.865 418.563 614.806 417.973 614.579 417.444C614.354 416.911 613.948 416.471 613.36 416.126C612.748 415.766 612.145 415.623 611.552 415.697C610.966 415.769 610.413 416.013 609.895 416.427C609.383 416.84 608.932 417.377 608.543 418.039C608.15 418.708 607.894 419.376 607.776 420.043C607.665 420.708 607.717 421.321 607.931 421.881C608.152 422.439 608.564 422.896 609.168 423.251ZM626.433 425.068L624.919 424.672C624.965 424.408 624.968 424.127 624.929 423.829C624.897 423.53 624.785 423.234 624.595 422.941C624.405 422.647 624.1 422.377 623.679 422.13C623.104 421.792 622.546 421.642 622.007 421.682C621.473 421.72 621.088 421.941 620.85 422.345C620.639 422.704 620.603 423.064 620.742 423.426C620.88 423.788 621.186 424.201 621.66 424.667L622.854 425.83C623.575 426.529 624.017 427.21 624.182 427.873C624.35 428.531 624.24 429.189 623.854 429.846C623.537 430.385 623.098 430.775 622.538 431.017C621.983 431.262 621.357 431.344 620.662 431.265C619.967 431.186 619.255 430.931 618.524 430.502C617.565 429.937 616.894 429.262 616.51 428.476C616.126 427.69 616.086 426.848 616.389 425.95L617.962 426.414C617.795 426.997 617.819 427.521 618.033 427.988C618.252 428.457 618.657 428.866 619.249 429.214C619.922 429.61 620.541 429.782 621.105 429.729C621.675 429.674 622.079 429.445 622.317 429.041C622.509 428.715 622.555 428.374 622.456 428.019C622.36 427.66 622.107 427.286 621.699 426.898L620.348 425.609C619.607 424.898 619.16 424.21 619.008 423.543C618.863 422.876 618.981 422.217 619.362 421.568C619.675 421.038 620.1 420.656 620.638 420.423C621.18 420.193 621.778 420.114 622.433 420.186C623.093 420.261 623.753 420.492 624.414 420.881C625.344 421.429 625.955 422.062 626.245 422.783C626.54 423.505 626.603 424.267 626.433 425.068Z" fill="#000E38"/>
<path d="M811.051 437.291L803.778 424.694L808.034 422.237C809.023 421.667 809.933 421.379 810.767 421.373C811.602 421.361 812.345 421.569 812.996 421.997C813.648 422.424 814.188 423.009 814.616 423.751C815.045 424.493 815.283 425.255 815.33 426.038C815.381 426.817 815.197 427.569 814.778 428.292C814.356 429.011 813.655 429.653 812.675 430.219L809.625 431.98L808.843 430.627L811.845 428.894C812.522 428.503 812.997 428.073 813.273 427.602C813.548 427.132 813.663 426.645 813.617 426.14C813.574 425.63 813.407 425.122 813.116 424.618C812.824 424.113 812.47 423.717 812.051 423.428C811.637 423.137 811.158 422.998 810.614 423.011C810.067 423.021 809.451 423.223 808.766 423.619L806.085 425.167L812.576 436.411L811.051 437.291ZM816.027 417.622L823.3 430.219L821.848 431.057L814.576 418.46L816.027 417.622ZM828.867 427.3C828.268 427.646 827.66 427.847 827.041 427.903C826.421 427.955 825.843 427.849 825.307 427.584C824.769 427.315 824.323 426.873 823.967 426.258C823.655 425.717 823.508 425.217 823.527 424.757C823.544 424.294 823.675 423.863 823.921 423.464C824.166 423.065 824.477 422.694 824.853 422.352C825.231 422.002 825.623 421.672 826.028 421.361C826.56 420.956 826.993 420.632 827.329 420.389C827.666 420.14 827.889 419.921 827.999 419.732C828.112 419.54 828.102 419.328 827.967 419.094L827.938 419.045C827.588 418.438 827.15 418.062 826.623 417.918C826.101 417.771 825.506 417.891 824.838 418.276C824.145 418.677 823.689 419.142 823.47 419.673C823.252 420.203 823.162 420.687 823.201 421.124L821.539 421.427C821.454 420.711 821.524 420.075 821.749 419.518C821.976 418.955 822.297 418.469 822.712 418.06C823.128 417.645 823.574 417.3 824.05 417.026C824.353 416.85 824.723 416.686 825.159 416.533C825.597 416.373 826.065 416.297 826.562 416.305C827.063 416.311 827.565 416.467 828.069 416.772C828.573 417.076 829.042 417.604 829.475 418.354L833.069 424.579L831.617 425.417L830.879 424.138L830.805 424.18C830.825 424.442 830.787 424.756 830.693 425.123C830.598 425.489 830.407 425.864 830.121 426.248C829.834 426.633 829.416 426.983 828.867 427.3ZM828.335 425.869C828.909 425.537 829.328 425.145 829.591 424.692C829.859 424.237 829.99 423.773 829.985 423.3C829.984 422.825 829.87 422.391 829.643 421.997L828.876 420.669C828.857 420.778 828.761 420.924 828.587 421.106C828.415 421.282 828.207 421.47 827.962 421.672C827.72 421.867 827.48 422.054 827.245 422.233C827.012 422.407 826.823 422.548 826.679 422.659C826.33 422.926 826.024 423.209 825.759 423.51C825.497 423.803 825.328 424.117 825.253 424.45C825.179 424.777 825.249 425.125 825.462 425.494C825.753 425.998 826.16 426.272 826.682 426.315C827.206 426.351 827.757 426.202 828.335 425.869ZM834.372 411.23L835.083 412.46L830.187 415.287L829.476 414.056L834.372 411.23ZM829.597 410.969L831.048 410.131L836.247 419.136C836.484 419.546 836.721 419.819 836.958 419.955C837.197 420.085 837.431 420.131 837.66 420.091C837.891 420.046 838.112 419.961 838.326 419.838C838.486 419.746 838.612 419.662 838.705 419.586C838.796 419.507 838.868 419.443 838.923 419.395L839.971 420.529C839.894 420.622 839.778 420.739 839.623 420.877C839.47 421.02 839.258 421.17 838.988 421.326C838.578 421.563 838.125 421.706 837.63 421.757C837.138 421.806 836.659 421.724 836.192 421.513C835.73 421.299 835.34 420.917 835.023 420.367L829.597 410.969ZM840.763 407.54L841.473 408.77L836.381 411.711L835.67 410.48L840.763 407.54ZM842.65 419.047L836.443 408.296C836.13 407.754 835.997 407.23 836.043 406.722C836.089 406.215 836.263 405.754 836.564 405.339C836.866 404.924 837.243 404.586 837.694 404.326C838.05 404.12 838.358 403.981 838.617 403.908C838.876 403.835 839.074 403.791 839.214 403.777L839.52 405.273C839.432 405.291 839.311 405.319 839.159 405.358C839.01 405.395 838.832 405.473 838.623 405.594C838.143 405.871 837.866 406.192 837.793 406.557C837.723 406.92 837.823 407.335 838.093 407.802L844.102 418.209L842.65 419.047ZM851.815 414.019C850.962 414.511 850.096 414.74 849.218 414.706C848.344 414.669 847.516 414.39 846.734 413.869C845.956 413.345 845.285 412.595 844.721 411.619C844.153 410.635 843.835 409.673 843.768 408.733C843.706 407.79 843.877 406.932 844.282 406.156C844.691 405.379 845.323 404.744 846.175 404.251C847.028 403.759 847.892 403.531 848.766 403.567C849.644 403.602 850.473 403.883 851.254 404.411C852.039 404.937 852.715 405.691 853.283 406.676C853.847 407.652 854.159 408.609 854.219 409.547C854.284 410.483 854.111 411.339 853.702 412.117C853.297 412.892 852.668 413.526 851.815 414.019ZM851.062 412.715C851.71 412.341 852.147 411.867 852.373 411.293C852.6 410.719 852.657 410.104 852.546 409.447C852.434 408.79 852.196 408.145 851.832 407.514C851.467 406.882 851.027 406.352 850.511 405.922C849.995 405.493 849.431 405.231 848.819 405.136C848.206 405.041 847.576 405.181 846.928 405.555C846.28 405.929 845.844 406.405 845.62 406.983C845.396 407.561 845.341 408.18 845.455 408.841C845.569 409.503 845.808 410.149 846.173 410.781C846.537 411.412 846.976 411.941 847.49 412.366C848.003 412.791 848.565 413.049 849.175 413.14C849.785 413.23 850.414 413.089 851.062 412.715ZM858.198 410.071L852.743 400.623L854.146 399.814L854.969 401.241L855.068 401.184C854.97 400.617 855.063 400.058 855.346 399.506C855.629 398.955 856.053 398.515 856.619 398.189C856.726 398.127 856.86 398.052 857.022 397.964C857.185 397.876 857.309 397.812 857.396 397.773L858.248 399.249C858.192 399.265 858.069 399.312 857.878 399.389C857.689 399.46 857.498 399.551 857.306 399.662C856.846 399.927 856.492 400.26 856.242 400.661C855.995 401.056 855.863 401.482 855.848 401.939C855.835 402.389 855.951 402.828 856.198 403.254L859.649 409.233L858.198 410.071ZM864.642 406.35L859.188 396.903L860.59 396.093L861.442 397.569L861.565 397.498C861.471 396.88 861.563 396.305 861.84 395.773C862.116 395.237 862.561 394.791 863.176 394.436C863.799 394.076 864.4 393.918 864.977 393.962C865.557 393.999 866.109 394.203 866.634 394.572L866.732 394.515C866.692 393.888 866.831 393.29 867.149 392.724C867.465 392.154 867.961 391.673 868.638 391.282C869.483 390.795 870.326 390.66 871.169 390.879C872.009 391.094 872.75 391.757 873.392 392.868L877.042 399.191L875.591 400.029L871.94 393.706C871.538 393.009 871.059 392.621 870.505 392.542C869.951 392.463 869.415 392.572 868.899 392.87C868.235 393.254 867.836 393.752 867.703 394.365C867.568 394.973 867.676 395.583 868.029 396.194L871.58 402.344L870.104 403.197L866.368 396.726C866.058 396.189 865.634 395.857 865.096 395.73C864.556 395.599 864.011 395.692 863.462 396.01C863.084 396.227 862.79 396.532 862.578 396.922C862.37 397.31 862.268 397.74 862.273 398.213C862.28 398.679 862.417 399.144 862.685 399.607L866.094 405.512L864.642 406.35ZM882.155 386.463L881.064 387.585C880.857 387.415 880.614 387.274 880.336 387.161C880.059 387.042 879.746 386.993 879.398 387.014C879.049 387.035 878.663 387.167 878.241 387.411C877.663 387.745 877.258 388.156 877.026 388.645C876.797 389.128 876.799 389.572 877.033 389.978C877.242 390.339 877.537 390.548 877.921 390.606C878.304 390.664 878.814 390.601 879.453 390.419L881.054 389.953C882.017 389.671 882.827 389.621 883.485 389.804C884.141 389.983 884.659 390.403 885.041 391.063C885.353 391.604 885.477 392.178 885.411 392.785C885.35 393.389 885.113 393.973 884.702 394.539C884.29 395.105 883.718 395.599 882.984 396.023C882.02 396.58 881.102 396.831 880.229 396.777C879.356 396.724 878.603 396.343 877.971 395.637L879.15 394.497C879.575 394.93 880.043 395.168 880.555 395.211C881.071 395.252 881.626 395.101 882.22 394.758C882.897 394.367 883.351 393.914 883.583 393.397C883.817 392.874 883.817 392.409 883.582 392.003C883.393 391.675 883.12 391.467 882.762 391.378C882.402 391.285 881.953 391.321 881.413 391.485L879.625 392.025C878.642 392.319 877.823 392.368 877.168 392.172C876.515 391.969 876.001 391.542 875.624 390.89C875.317 390.357 875.194 389.799 875.257 389.216C875.323 388.631 875.55 388.071 875.935 387.537C876.325 387 876.852 386.54 877.517 386.156C878.452 385.617 879.304 385.398 880.074 385.5C880.848 385.6 881.541 385.921 882.155 386.463Z" fill="#000E38"/>
<path d="M958 231.961L943.455 231.961L943.455 227.047C943.455 225.91 943.649 224.977 944.037 224.248C944.42 223.519 944.948 222.979 945.621 222.629C946.293 222.279 947.058 222.103 947.915 222.103C948.772 222.103 949.532 222.279 950.195 222.629C950.857 222.979 951.378 223.517 951.757 224.241C952.131 224.966 952.318 225.891 952.318 227.018L952.318 230.995L950.727 230.995L950.727 227.075C950.727 226.298 950.614 225.673 950.386 225.2C950.159 224.722 949.837 224.376 949.42 224.163C948.999 223.945 948.497 223.836 947.915 223.836C947.332 223.836 946.823 223.945 946.388 224.163C945.952 224.381 945.616 224.729 945.379 225.207C945.138 225.685 945.017 226.317 945.017 227.103L945.017 230.2L958 230.2L958 231.961ZM951.466 225.115L958 221.535L958 223.581L951.466 227.103L951.466 225.115ZM958.227 215.081C958.227 216.066 957.993 216.93 957.524 217.673C957.055 218.412 956.4 218.99 955.557 219.406C954.714 219.818 953.729 220.024 952.602 220.024C951.466 220.024 950.474 219.818 949.626 219.406C948.779 218.99 948.121 218.412 947.652 217.673C947.183 216.93 946.949 216.066 946.949 215.081C946.949 214.096 947.183 213.234 947.652 212.496C948.121 211.752 948.779 211.175 949.626 210.763C950.474 210.346 951.466 210.138 952.602 210.138C953.729 210.138 954.714 210.346 955.557 210.763C956.4 211.175 957.055 211.752 957.524 212.496C957.993 213.234 958.227 214.096 958.227 215.081ZM956.722 215.081C956.722 214.333 956.53 213.717 956.146 213.234C955.763 212.751 955.259 212.394 954.634 212.162C954.009 211.93 953.331 211.814 952.602 211.814C951.873 211.814 951.194 211.93 950.564 212.162C949.934 212.394 949.425 212.751 949.037 213.234C948.649 213.717 948.455 214.333 948.455 215.081C948.455 215.829 948.649 216.445 949.037 216.928C949.425 217.411 949.934 217.768 950.564 218C951.194 218.232 951.873 218.348 952.602 218.348C953.331 218.348 954.009 218.232 954.634 218C955.259 217.768 955.763 217.411 956.146 216.928C956.53 216.445 956.722 215.829 956.722 215.081ZM943.455 205.903L958 205.903L958 207.579L943.455 207.579L943.455 205.903ZM958.227 198.259C958.227 199.31 957.995 200.217 957.531 200.979C957.063 201.737 956.409 202.322 955.571 202.734C954.728 203.141 953.748 203.344 952.631 203.344C951.513 203.344 950.528 203.141 949.676 202.734C948.819 202.322 948.152 201.749 947.673 201.015C947.19 200.276 946.949 199.415 946.949 198.43C946.949 197.862 947.044 197.3 947.233 196.746C947.422 196.192 947.73 195.688 948.156 195.234C948.578 194.779 949.136 194.417 949.832 194.147C950.528 193.877 951.385 193.742 952.403 193.742L953.114 193.742L953.114 202.151L951.665 202.151L951.665 195.447C951.049 195.447 950.5 195.57 950.017 195.816C949.534 196.058 949.153 196.403 948.874 196.853C948.594 197.298 948.455 197.824 948.455 198.43C948.455 199.097 948.62 199.675 948.952 200.163C949.278 200.646 949.705 201.017 950.23 201.278C950.756 201.538 951.319 201.668 951.92 201.668L952.886 201.668C953.71 201.668 954.409 201.526 954.982 201.242C955.55 200.953 955.983 200.553 956.281 200.042C956.575 199.531 956.722 198.936 956.722 198.259C956.722 197.819 956.66 197.421 956.537 197.066C956.409 196.706 956.22 196.396 955.969 196.136C955.713 195.875 955.396 195.674 955.017 195.532L955.472 193.913C956.021 194.083 956.504 194.37 956.92 194.772C957.332 195.174 957.654 195.672 957.886 196.263C958.114 196.855 958.227 197.521 958.227 198.259ZM949.534 183.465L949.96 184.971C949.709 185.066 949.465 185.205 949.229 185.39C948.987 185.57 948.788 185.816 948.632 186.129C948.476 186.441 948.398 186.841 948.398 187.329C948.398 187.996 948.552 188.553 948.859 188.998C949.162 189.438 949.548 189.658 950.017 189.658C950.434 189.658 950.763 189.507 951.004 189.204C951.246 188.901 951.447 188.427 951.608 187.783L952.006 186.164C952.242 185.189 952.605 184.462 953.092 183.984C953.575 183.505 954.198 183.266 954.96 183.266C955.585 183.266 956.144 183.446 956.636 183.806C957.129 184.161 957.517 184.658 957.801 185.298C958.085 185.937 958.227 186.68 958.227 187.528C958.227 188.64 957.986 189.561 957.503 190.29C957.02 191.02 956.314 191.481 955.386 191.675L954.989 190.085C955.576 189.933 956.016 189.647 956.31 189.225C956.603 188.799 956.75 188.243 956.75 187.556C956.75 186.775 956.584 186.155 956.253 185.695C955.917 185.231 955.514 184.999 955.045 184.999C954.667 184.999 954.349 185.132 954.094 185.397C953.833 185.662 953.639 186.069 953.511 186.619L953.085 188.437C952.848 189.436 952.482 190.17 951.984 190.638C951.482 191.103 950.855 191.335 950.102 191.335C949.487 191.335 948.942 191.162 948.469 190.816C947.995 190.466 947.624 189.99 947.354 189.388C947.084 188.782 946.949 188.096 946.949 187.329C946.949 186.249 947.186 185.402 947.659 184.786C948.133 184.166 948.758 183.726 949.534 183.465Z" fill="#000E38"/>
<path d="M663 227.544H662V228.117L662.494 228.407L663 227.544ZM720 261L719.494 261.862L721 261H720ZM662 161V227.544H664V161H662ZM662.494 228.407L719.494 261.862L720.506 260.138L663.506 226.682L662.494 228.407ZM721 261V194.706H719V261H721Z" fill="#000E38"/>
<path d="M720.604 194.5L663 161.267L720.604 129L777.5 161L720.604 194.5Z" fill="white" stroke="#000E38" stroke-width="2" stroke-linejoin="bevel"/>
<path d="M720.604 261.5L663 227.267V160.696L720.604 194.5V261.5Z" fill="white" stroke="#000E38" stroke-width="2" stroke-linejoin="bevel"/>
<path d="M777.604 160.696L720 194.93V261.5L777.604 227.696V160.696Z" fill="white" stroke="#000E38" stroke-width="2" stroke-linejoin="bevel"/>
</svg>
