<svg width="1440" height="254" viewBox="0 0 1440 254" fill="none" xmlns="http://www.w3.org/2000/svg">
<rect width="1440" height="254" fill="white"/>
<path d="M510 79H930V150H510V79Z" stroke="#00E5A4" stroke-width="2"/>
<path d="M572.99 114.922C572.99 115.736 572.876 116.465 572.648 117.109C572.427 117.747 572.108 118.291 571.691 118.74C571.281 119.183 570.78 119.525 570.188 119.766C569.595 120 568.928 120.117 568.186 120.117C567.606 120.117 567.014 120.062 566.408 119.951C565.803 119.84 565.204 119.665 564.611 119.424V106.201H566.311V110L566.232 111.816C566.721 111.159 567.242 110.697 567.795 110.43C568.355 110.156 568.954 110.02 569.592 110.02C570.152 110.02 570.643 110.137 571.066 110.371C571.49 110.605 571.844 110.938 572.131 111.367C572.417 111.79 572.632 112.305 572.775 112.91C572.919 113.509 572.99 114.18 572.99 114.922ZM571.252 115C571.252 114.486 571.213 114.014 571.135 113.584C571.063 113.154 570.946 112.786 570.783 112.48C570.62 112.174 570.412 111.937 570.158 111.768C569.904 111.592 569.602 111.504 569.25 111.504C569.035 111.504 568.817 111.54 568.596 111.611C568.374 111.676 568.143 111.79 567.902 111.953C567.668 112.109 567.417 112.321 567.15 112.588C566.89 112.848 566.61 113.174 566.311 113.564V118.32C566.643 118.451 566.981 118.555 567.326 118.633C567.671 118.704 568 118.74 568.312 118.74C568.703 118.74 569.074 118.678 569.426 118.555C569.784 118.431 570.096 118.226 570.363 117.939C570.637 117.646 570.852 117.262 571.008 116.787C571.171 116.305 571.252 115.71 571.252 115ZM577.008 110.195H578.561L578.609 112.002C579.189 111.305 579.758 110.801 580.318 110.488C580.885 110.176 581.454 110.02 582.027 110.02C583.043 110.02 583.811 110.348 584.332 111.006C584.859 111.663 585.104 112.64 585.064 113.936H583.346C583.365 113.076 583.238 112.454 582.965 112.07C582.698 111.68 582.304 111.484 581.783 111.484C581.555 111.484 581.324 111.527 581.09 111.611C580.862 111.689 580.624 111.82 580.377 112.002C580.136 112.178 579.879 112.406 579.605 112.686C579.332 112.965 579.039 113.304 578.727 113.701V120H577.008V110.195ZM594.902 120L594.863 118.682C594.329 119.209 593.786 119.59 593.232 119.824C592.686 120.059 592.109 120.176 591.504 120.176C590.944 120.176 590.465 120.104 590.068 119.961C589.671 119.818 589.342 119.622 589.082 119.375C588.828 119.121 588.639 118.825 588.516 118.486C588.398 118.148 588.34 117.78 588.34 117.383C588.34 116.4 588.704 115.632 589.434 115.078C590.169 114.518 591.253 114.238 592.686 114.238H594.717V113.379C594.717 112.799 594.531 112.337 594.16 111.992C593.789 111.641 593.223 111.465 592.461 111.465C591.908 111.465 591.361 111.527 590.82 111.65C590.286 111.774 589.733 111.95 589.16 112.178V110.645C589.375 110.566 589.613 110.492 589.873 110.42C590.14 110.342 590.42 110.273 590.713 110.215C591.006 110.156 591.312 110.111 591.631 110.078C591.95 110.039 592.272 110.02 592.598 110.02C593.19 110.02 593.724 110.085 594.199 110.215C594.674 110.345 595.075 110.544 595.4 110.811C595.732 111.077 595.986 111.413 596.162 111.816C596.338 112.22 596.426 112.695 596.426 113.242V120H594.902ZM594.717 115.537H592.559C592.135 115.537 591.771 115.579 591.465 115.664C591.159 115.749 590.908 115.869 590.713 116.025C590.518 116.182 590.371 116.37 590.273 116.592C590.182 116.807 590.137 117.051 590.137 117.324C590.137 117.513 590.166 117.695 590.225 117.871C590.283 118.04 590.378 118.193 590.508 118.33C590.638 118.46 590.807 118.564 591.016 118.643C591.224 118.721 591.478 118.76 591.777 118.76C592.168 118.76 592.614 118.643 593.115 118.408C593.623 118.167 594.157 117.79 594.717 117.275V115.537ZM600.6 110.195H602.113L602.182 111.777C602.468 111.439 602.745 111.159 603.012 110.938C603.279 110.71 603.539 110.527 603.793 110.391C604.053 110.254 604.317 110.16 604.584 110.107C604.851 110.049 605.128 110.02 605.414 110.02C606.423 110.02 607.185 110.319 607.699 110.918C608.22 111.51 608.48 112.406 608.48 113.604V120H606.781V113.74C606.781 112.972 606.638 112.406 606.352 112.041C606.065 111.67 605.639 111.484 605.072 111.484C604.864 111.484 604.659 111.517 604.457 111.582C604.262 111.641 604.057 111.748 603.842 111.904C603.627 112.054 603.393 112.259 603.139 112.52C602.891 112.78 602.611 113.105 602.299 113.496V120H600.6V110.195ZM612.098 115.303C612.098 114.469 612.212 113.73 612.439 113.086C612.667 112.435 612.99 111.888 613.406 111.445C613.829 110.996 614.334 110.658 614.92 110.43C615.512 110.195 616.17 110.078 616.893 110.078C617.205 110.078 617.511 110.098 617.811 110.137C618.117 110.176 618.416 110.238 618.709 110.322V106.201H620.418V120H618.895L618.836 118.145C618.361 118.835 617.846 119.346 617.293 119.678C616.74 120.01 616.141 120.176 615.496 120.176C614.936 120.176 614.441 120.059 614.012 119.824C613.589 119.59 613.234 119.261 612.947 118.838C612.667 118.408 612.456 117.894 612.312 117.295C612.169 116.696 612.098 116.032 612.098 115.303ZM613.836 115.195C613.836 116.38 614.008 117.266 614.354 117.852C614.705 118.431 615.2 118.721 615.838 118.721C616.268 118.721 616.72 118.529 617.195 118.145C617.677 117.76 618.182 117.191 618.709 116.436V111.885C618.429 111.755 618.12 111.657 617.781 111.592C617.443 111.52 617.107 111.484 616.775 111.484C615.851 111.484 615.128 111.784 614.607 112.383C614.093 112.982 613.836 113.919 613.836 115.195ZM632.951 111.143C632.951 111.663 632.854 112.181 632.658 112.695C632.463 113.203 632.16 113.659 631.75 114.062C631.34 114.466 630.816 114.795 630.178 115.049C629.54 115.296 628.778 115.42 627.893 115.42H626.311V120H624.572V107.236H628.166C628.798 107.236 629.403 107.308 629.982 107.451C630.562 107.588 631.07 107.812 631.506 108.125C631.949 108.438 632.3 108.841 632.561 109.336C632.821 109.831 632.951 110.433 632.951 111.143ZM631.145 111.221C631.145 110.4 630.874 109.772 630.334 109.336C629.8 108.9 629.051 108.682 628.088 108.682H626.311V113.936H627.932C628.96 113.936 629.751 113.711 630.305 113.262C630.865 112.812 631.145 112.132 631.145 111.221ZM636.988 110.195H638.541L638.59 112.002C639.169 111.305 639.739 110.801 640.299 110.488C640.865 110.176 641.435 110.02 642.008 110.02C643.023 110.02 643.792 110.348 644.312 111.006C644.84 111.663 645.084 112.64 645.045 113.936H643.326C643.346 113.076 643.219 112.454 642.945 112.07C642.678 111.68 642.285 111.484 641.764 111.484C641.536 111.484 641.305 111.527 641.07 111.611C640.842 111.689 640.605 111.82 640.357 112.002C640.117 112.178 639.859 112.406 639.586 112.686C639.312 112.965 639.02 113.304 638.707 113.701V120H636.988V110.195ZM651.924 111.602H649.023V110.195H653.643V118.584H656.562V120H648.701V118.584H651.924V111.602ZM652.52 106.084C652.708 106.084 652.884 106.12 653.047 106.191C653.21 106.257 653.35 106.351 653.467 106.475C653.59 106.598 653.685 106.742 653.75 106.904C653.822 107.061 653.857 107.233 653.857 107.422C653.857 107.604 653.822 107.777 653.75 107.939C653.685 108.102 653.59 108.245 653.467 108.369C653.35 108.493 653.21 108.59 653.047 108.662C652.884 108.727 652.708 108.76 652.52 108.76C652.331 108.76 652.155 108.727 651.992 108.662C651.829 108.59 651.686 108.493 651.562 108.369C651.445 108.245 651.351 108.102 651.279 107.939C651.214 107.777 651.182 107.604 651.182 107.422C651.182 107.233 651.214 107.061 651.279 106.904C651.351 106.742 651.445 106.598 651.562 106.475C651.686 106.351 651.829 106.257 651.992 106.191C652.155 106.12 652.331 106.084 652.52 106.084ZM667.572 120V112.959C667.572 112.653 667.559 112.402 667.533 112.207C667.514 112.012 667.478 111.859 667.426 111.748C667.38 111.631 667.318 111.549 667.24 111.504C667.169 111.458 667.077 111.436 666.967 111.436C666.837 111.436 666.716 111.475 666.605 111.553C666.495 111.631 666.374 111.758 666.244 111.934C666.12 112.109 665.98 112.344 665.824 112.637C665.674 112.923 665.495 113.278 665.287 113.701V120H663.734V113.145C663.734 112.786 663.721 112.497 663.695 112.275C663.676 112.054 663.64 111.882 663.588 111.758C663.542 111.634 663.48 111.549 663.402 111.504C663.324 111.458 663.23 111.436 663.119 111.436C663.002 111.436 662.891 111.468 662.787 111.533C662.683 111.598 662.566 111.715 662.436 111.885C662.312 112.054 662.172 112.285 662.016 112.578C661.859 112.871 661.674 113.245 661.459 113.701V120H659.896V110.195H661.195L661.273 112.061C661.443 111.689 661.605 111.374 661.762 111.113C661.924 110.853 662.09 110.645 662.26 110.488C662.429 110.326 662.608 110.208 662.797 110.137C662.992 110.059 663.207 110.02 663.441 110.02C663.969 110.02 664.369 110.192 664.643 110.537C664.916 110.882 665.053 111.416 665.053 112.139C665.209 111.8 665.362 111.501 665.512 111.24C665.661 110.973 665.821 110.752 665.99 110.576C666.166 110.394 666.358 110.257 666.566 110.166C666.775 110.068 667.016 110.02 667.289 110.02C668.52 110.02 669.135 110.967 669.135 112.861V120H667.572ZM678.875 120L678.836 118.682C678.302 119.209 677.758 119.59 677.205 119.824C676.658 120.059 676.082 120.176 675.477 120.176C674.917 120.176 674.438 120.104 674.041 119.961C673.644 119.818 673.315 119.622 673.055 119.375C672.801 119.121 672.612 118.825 672.488 118.486C672.371 118.148 672.312 117.78 672.312 117.383C672.312 116.4 672.677 115.632 673.406 115.078C674.142 114.518 675.226 114.238 676.658 114.238H678.689V113.379C678.689 112.799 678.504 112.337 678.133 111.992C677.762 111.641 677.195 111.465 676.434 111.465C675.88 111.465 675.333 111.527 674.793 111.65C674.259 111.774 673.706 111.95 673.133 112.178V110.645C673.348 110.566 673.585 110.492 673.846 110.42C674.113 110.342 674.393 110.273 674.686 110.215C674.979 110.156 675.285 110.111 675.604 110.078C675.923 110.039 676.245 110.02 676.57 110.02C677.163 110.02 677.697 110.085 678.172 110.215C678.647 110.345 679.048 110.544 679.373 110.811C679.705 111.077 679.959 111.413 680.135 111.816C680.311 112.22 680.398 112.695 680.398 113.242V120H678.875ZM678.689 115.537H676.531C676.108 115.537 675.743 115.579 675.438 115.664C675.132 115.749 674.881 115.869 674.686 116.025C674.49 116.182 674.344 116.37 674.246 116.592C674.155 116.807 674.109 117.051 674.109 117.324C674.109 117.513 674.139 117.695 674.197 117.871C674.256 118.04 674.35 118.193 674.48 118.33C674.611 118.46 674.78 118.564 674.988 118.643C675.197 118.721 675.451 118.76 675.75 118.76C676.141 118.76 676.587 118.643 677.088 118.408C677.596 118.167 678.13 117.79 678.689 117.275V115.537ZM684.973 110.195H686.525L686.574 112.002C687.154 111.305 687.723 110.801 688.283 110.488C688.85 110.176 689.419 110.02 689.992 110.02C691.008 110.02 691.776 110.348 692.297 111.006C692.824 111.663 693.068 112.64 693.029 113.936H691.311C691.33 113.076 691.203 112.454 690.93 112.07C690.663 111.68 690.269 111.484 689.748 111.484C689.52 111.484 689.289 111.527 689.055 111.611C688.827 111.689 688.589 111.82 688.342 112.002C688.101 112.178 687.844 112.406 687.57 112.686C687.297 112.965 687.004 113.304 686.691 113.701V120H684.973V110.195ZM705.289 110.195L701.949 118.965C701.604 119.857 701.246 120.625 700.875 121.27C700.51 121.914 700.11 122.441 699.674 122.852C699.238 123.268 698.759 123.574 698.238 123.77C697.717 123.965 697.135 124.062 696.49 124.062C696.321 124.062 696.168 124.059 696.031 124.053C695.895 124.046 695.745 124.036 695.582 124.023V122.48C695.725 122.5 695.882 122.516 696.051 122.529C696.22 122.549 696.399 122.559 696.588 122.559C696.9 122.559 697.19 122.513 697.457 122.422C697.73 122.331 697.988 122.181 698.229 121.973C698.469 121.771 698.701 121.507 698.922 121.182C699.143 120.856 699.358 120.462 699.566 120L695.65 110.195H697.584L700.064 116.68L700.562 118.203L701.129 116.641L703.424 110.195H705.289ZM736.492 110.02C736.694 110.02 736.886 110.062 737.068 110.146C737.251 110.225 737.41 110.332 737.547 110.469C737.684 110.605 737.791 110.765 737.869 110.947C737.954 111.13 737.996 111.322 737.996 111.523C737.996 111.732 737.954 111.927 737.869 112.109C737.791 112.285 737.684 112.441 737.547 112.578C737.41 112.715 737.251 112.822 737.068 112.9C736.886 112.979 736.694 113.018 736.492 113.018C736.284 113.018 736.089 112.979 735.906 112.9C735.73 112.822 735.574 112.715 735.438 112.578C735.301 112.441 735.193 112.285 735.115 112.109C735.037 111.927 734.998 111.732 734.998 111.523C734.998 111.322 735.037 111.13 735.115 110.947C735.193 110.765 735.301 110.605 735.438 110.469C735.574 110.332 735.73 110.225 735.906 110.146C736.089 110.062 736.284 110.02 736.492 110.02ZM736.492 117.178C736.694 117.178 736.886 117.22 737.068 117.305C737.251 117.383 737.41 117.49 737.547 117.627C737.684 117.764 737.791 117.923 737.869 118.105C737.954 118.288 737.996 118.48 737.996 118.682C737.996 118.89 737.954 119.085 737.869 119.268C737.791 119.443 737.684 119.6 737.547 119.736C737.41 119.873 737.251 119.98 737.068 120.059C736.886 120.137 736.694 120.176 736.492 120.176C736.284 120.176 736.089 120.137 735.906 120.059C735.73 119.98 735.574 119.873 735.438 119.736C735.301 119.6 735.193 119.443 735.115 119.268C735.037 119.085 734.998 118.89 734.998 118.682C734.998 118.48 735.037 118.288 735.115 118.105C735.193 117.923 735.301 117.764 735.438 117.627C735.574 117.49 735.73 117.383 735.906 117.305C736.089 117.22 736.284 117.178 736.492 117.178ZM775.664 107.422C775.332 107.415 775.01 107.445 774.697 107.51C774.385 107.575 774.108 107.679 773.867 107.822C773.633 107.959 773.444 108.132 773.301 108.34C773.158 108.548 773.086 108.789 773.086 109.062C773.086 109.336 773.132 109.557 773.223 109.727C773.32 109.889 773.428 110.042 773.545 110.186C773.662 110.329 773.766 110.485 773.857 110.654C773.955 110.817 774.004 111.032 774.004 111.299C774.004 111.436 773.978 111.579 773.926 111.729C773.874 111.878 773.792 112.015 773.682 112.139C773.577 112.262 773.441 112.363 773.271 112.441C773.109 112.52 772.913 112.559 772.686 112.559C772.451 112.559 772.23 112.513 772.021 112.422C771.813 112.324 771.628 112.178 771.465 111.982C771.309 111.787 771.182 111.543 771.084 111.25C770.993 110.957 770.947 110.615 770.947 110.225C770.947 109.684 771.045 109.163 771.24 108.662C771.436 108.161 771.729 107.721 772.119 107.344C772.516 106.96 773.008 106.654 773.594 106.426C774.186 106.198 774.876 106.084 775.664 106.084V107.422ZM789.037 116.416H786.859L786.498 120H785.053L785.414 116.416H782.924L782.562 120H781.117L781.479 116.416H779.398V115.146H781.605L781.957 111.729H779.896V110.459H782.084L782.416 107.236H783.842L783.52 110.459H786.02L786.352 107.236H787.797L787.455 110.459H789.555V111.729H787.328L786.986 115.146H789.037V116.416ZM785.551 115.146L785.893 111.729H783.393L783.051 115.146H785.551ZM800.818 120H792.41V118.477L795.711 115.195C796.251 114.661 796.691 114.199 797.029 113.809C797.368 113.418 797.632 113.063 797.82 112.744C798.009 112.419 798.136 112.113 798.201 111.826C798.266 111.54 798.299 111.23 798.299 110.898C798.299 110.586 798.257 110.29 798.172 110.01C798.087 109.723 797.957 109.473 797.781 109.258C797.605 109.043 797.378 108.874 797.098 108.75C796.818 108.626 796.482 108.564 796.092 108.564C795.551 108.564 795.06 108.685 794.617 108.926C794.174 109.167 793.768 109.479 793.396 109.863L792.459 108.74C792.941 108.232 793.494 107.826 794.119 107.52C794.751 107.214 795.483 107.061 796.316 107.061C796.883 107.061 797.397 107.145 797.859 107.314C798.328 107.484 798.732 107.728 799.07 108.047C799.409 108.366 799.669 108.757 799.852 109.219C800.04 109.681 800.135 110.202 800.135 110.781C800.135 111.27 800.07 111.722 799.939 112.139C799.809 112.555 799.611 112.972 799.344 113.389C799.083 113.799 798.751 114.225 798.348 114.668C797.951 115.111 797.479 115.596 796.932 116.123L794.617 118.379H800.818V120ZM813.107 113.623C813.107 114.6 813.01 115.492 812.814 116.299C812.619 117.1 812.323 117.79 811.926 118.369C811.529 118.942 811.034 119.388 810.441 119.707C809.855 120.02 809.165 120.176 808.371 120.176C807.688 120.176 807.066 120.049 806.506 119.795C805.946 119.535 805.467 119.137 805.07 118.604C804.673 118.07 804.367 117.389 804.152 116.562C803.938 115.736 803.83 114.756 803.83 113.623C803.83 112.646 803.928 111.755 804.123 110.947C804.325 110.14 804.621 109.45 805.012 108.877C805.409 108.298 805.904 107.852 806.496 107.539C807.089 107.22 807.779 107.061 808.566 107.061C809.25 107.061 809.872 107.191 810.432 107.451C810.992 107.705 811.47 108.102 811.867 108.643C812.264 109.176 812.57 109.857 812.785 110.684C813 111.51 813.107 112.49 813.107 113.623ZM811.389 113.682C811.389 113.46 811.379 113.242 811.359 113.027C811.346 112.806 811.33 112.591 811.311 112.383L805.91 116.396C806.008 116.735 806.132 117.048 806.281 117.334C806.431 117.62 806.61 117.868 806.818 118.076C807.033 118.278 807.274 118.438 807.541 118.555C807.814 118.665 808.124 118.721 808.469 118.721C808.911 118.721 809.312 118.613 809.67 118.398C810.035 118.184 810.344 117.865 810.598 117.441C810.852 117.018 811.047 116.494 811.184 115.869C811.32 115.238 811.389 114.508 811.389 113.682ZM805.549 113.564C805.549 113.766 805.549 113.968 805.549 114.17C805.555 114.372 805.568 114.567 805.588 114.756L810.988 110.762C810.891 110.43 810.767 110.127 810.617 109.854C810.467 109.58 810.288 109.346 810.08 109.15C809.872 108.949 809.634 108.792 809.367 108.682C809.1 108.571 808.801 108.516 808.469 108.516C808.026 108.516 807.622 108.623 807.258 108.838C806.9 109.053 806.594 109.375 806.34 109.805C806.086 110.228 805.891 110.755 805.754 111.387C805.617 112.012 805.549 112.738 805.549 113.564ZM824.967 115.957C824.967 116.543 824.859 117.093 824.645 117.607C824.436 118.122 824.137 118.571 823.746 118.955C823.355 119.333 822.883 119.632 822.33 119.854C821.783 120.068 821.174 120.176 820.504 120.176C819.801 120.176 819.179 120.065 818.639 119.844C818.098 119.616 817.646 119.271 817.281 118.809C816.917 118.34 816.64 117.751 816.451 117.041C816.262 116.331 816.168 115.492 816.168 114.521C816.168 113.87 816.21 113.239 816.295 112.627C816.38 112.015 816.52 111.439 816.715 110.898C816.91 110.358 817.171 109.863 817.496 109.414C817.822 108.965 818.225 108.581 818.707 108.262C819.195 107.936 819.768 107.686 820.426 107.51C821.083 107.327 821.845 107.236 822.711 107.236H823.971V108.721H822.604C821.842 108.721 821.181 108.812 820.621 108.994C820.061 109.176 819.592 109.434 819.215 109.766C818.837 110.098 818.548 110.498 818.346 110.967C818.144 111.436 818.017 111.96 817.965 112.539L817.926 112.939C818.336 112.699 818.808 112.507 819.342 112.363C819.882 112.214 820.465 112.139 821.09 112.139C821.734 112.139 822.298 112.233 822.779 112.422C823.268 112.611 823.671 112.874 823.99 113.213C824.316 113.545 824.56 113.945 824.723 114.414C824.885 114.883 824.967 115.397 824.967 115.957ZM823.189 116.064C823.189 115.674 823.141 115.322 823.043 115.01C822.952 114.691 822.805 114.424 822.604 114.209C822.402 113.988 822.145 113.818 821.832 113.701C821.526 113.577 821.158 113.516 820.729 113.516C820.481 113.516 820.23 113.538 819.977 113.584C819.723 113.63 819.472 113.695 819.225 113.779C818.984 113.857 818.753 113.949 818.531 114.053C818.31 114.157 818.108 114.268 817.926 114.385C817.926 115.225 817.984 115.928 818.102 116.494C818.219 117.054 818.391 117.503 818.619 117.842C818.854 118.18 819.14 118.421 819.479 118.564C819.817 118.708 820.208 118.779 820.65 118.779C821.021 118.779 821.36 118.721 821.666 118.604C821.979 118.48 822.245 118.301 822.467 118.066C822.695 117.832 822.87 117.549 822.994 117.217C823.124 116.878 823.189 116.494 823.189 116.064ZM836.562 116.123C836.562 116.683 836.449 117.21 836.221 117.705C835.993 118.193 835.651 118.623 835.195 118.994C834.74 119.359 834.167 119.648 833.477 119.863C832.786 120.072 831.982 120.176 831.064 120.176C830.557 120.176 830.101 120.16 829.697 120.127C829.294 120.094 828.916 120.052 828.564 120V118.477C828.968 118.548 829.395 118.604 829.844 118.643C830.293 118.682 830.752 118.701 831.221 118.701C831.859 118.701 832.402 118.646 832.852 118.535C833.307 118.418 833.678 118.252 833.965 118.037C834.251 117.822 834.46 117.562 834.59 117.256C834.72 116.95 834.785 116.605 834.785 116.221C834.785 115.869 834.707 115.563 834.551 115.303C834.395 115.042 834.173 114.824 833.887 114.648C833.607 114.473 833.268 114.342 832.871 114.258C832.48 114.167 832.051 114.121 831.582 114.121H830.127V112.725H831.602C831.986 112.725 832.334 112.676 832.646 112.578C832.965 112.474 833.236 112.327 833.457 112.139C833.685 111.95 833.857 111.719 833.975 111.445C834.098 111.165 834.16 110.85 834.16 110.498C834.16 109.814 833.952 109.316 833.535 109.004C833.118 108.691 832.507 108.535 831.699 108.535C831.27 108.535 830.827 108.577 830.371 108.662C829.915 108.747 829.427 108.874 828.906 109.043V107.559C829.128 107.48 829.362 107.412 829.609 107.354C829.863 107.288 830.114 107.236 830.361 107.197C830.615 107.152 830.866 107.119 831.113 107.1C831.361 107.074 831.598 107.061 831.826 107.061C832.503 107.061 833.099 107.135 833.613 107.285C834.128 107.428 834.557 107.637 834.902 107.91C835.247 108.184 835.508 108.516 835.684 108.906C835.859 109.297 835.947 109.736 835.947 110.225C835.947 110.954 835.758 111.566 835.381 112.061C835.01 112.555 834.499 112.949 833.848 113.242C834.18 113.294 834.505 113.398 834.824 113.555C835.15 113.711 835.439 113.913 835.693 114.16C835.954 114.401 836.162 114.688 836.318 115.02C836.481 115.352 836.562 115.719 836.562 116.123ZM848.178 120H840.922V107.236H848.178V108.701H842.66V112.656H847.963V114.121H842.66V118.516H848.178V120ZM860.799 120H852.391V118.477L855.691 115.195C856.232 114.661 856.671 114.199 857.01 113.809C857.348 113.418 857.612 113.063 857.801 112.744C857.99 112.419 858.117 112.113 858.182 111.826C858.247 111.54 858.279 111.23 858.279 110.898C858.279 110.586 858.237 110.29 858.152 110.01C858.068 109.723 857.938 109.473 857.762 109.258C857.586 109.043 857.358 108.874 857.078 108.75C856.798 108.626 856.463 108.564 856.072 108.564C855.532 108.564 855.04 108.685 854.598 108.926C854.155 109.167 853.748 109.479 853.377 109.863L852.439 108.74C852.921 108.232 853.475 107.826 854.1 107.52C854.731 107.214 855.464 107.061 856.297 107.061C856.863 107.061 857.378 107.145 857.84 107.314C858.309 107.484 858.712 107.728 859.051 108.047C859.389 108.366 859.65 108.757 859.832 109.219C860.021 109.681 860.115 110.202 860.115 110.781C860.115 111.27 860.05 111.722 859.92 112.139C859.79 112.555 859.591 112.972 859.324 113.389C859.064 113.799 858.732 114.225 858.328 114.668C857.931 115.111 857.459 115.596 856.912 116.123L854.598 118.379H860.799V120Z" fill="#000E38"/>
<path d="M648.876 19H644.837V5.90909H649.055C650.325 5.90909 651.412 6.17116 652.315 6.69531C653.219 7.2152 653.911 7.96307 654.393 8.93892C654.874 9.91051 655.115 11.0739 655.115 12.429C655.115 13.7926 654.872 14.9666 654.386 15.951C653.901 16.9311 653.193 17.6854 652.264 18.2138C651.335 18.7379 650.206 19 648.876 19ZM646.422 17.5938H648.774C649.856 17.5938 650.753 17.3849 651.465 16.9673C652.177 16.5497 652.707 15.9553 653.057 15.1839C653.406 14.4126 653.581 13.4943 653.581 12.429C653.581 11.3722 653.408 10.4624 653.063 9.69957C652.718 8.93253 652.202 8.34446 651.516 7.93537C650.83 7.52202 649.976 7.31534 648.953 7.31534H646.422V17.5938ZM659.574 19V5.90909H667.475V7.31534H661.159V11.7386H667.066V13.1449H661.159V17.5938H667.577V19H659.574ZM679.291 9.18182C679.214 8.53409 678.903 8.03125 678.358 7.6733C677.812 7.31534 677.143 7.13636 676.351 7.13636C675.771 7.13636 675.264 7.23011 674.829 7.41761C674.399 7.60511 674.062 7.86293 673.819 8.19105C673.581 8.51918 673.461 8.89204 673.461 9.30966C673.461 9.65909 673.545 9.95952 673.711 10.2109C673.881 10.4581 674.099 10.6648 674.363 10.831C674.627 10.9929 674.904 11.1271 675.194 11.2337C675.483 11.3359 675.75 11.419 675.993 11.483L677.322 11.8409C677.663 11.9304 678.042 12.054 678.46 12.2116C678.882 12.3693 679.285 12.5845 679.668 12.8572C680.056 13.1257 680.376 13.4709 680.627 13.8928C680.878 14.3146 681.004 14.8324 681.004 15.446C681.004 16.1534 680.819 16.7926 680.448 17.3636C680.081 17.9347 679.545 18.3885 678.837 18.7251C678.134 19.0618 677.28 19.2301 676.274 19.2301C675.336 19.2301 674.525 19.0788 673.839 18.7763C673.157 18.4737 672.62 18.0518 672.228 17.5107C671.84 16.9695 671.621 16.3409 671.569 15.625H673.206C673.248 16.1193 673.415 16.5284 673.704 16.8523C673.998 17.1719 674.369 17.4105 674.817 17.5682C675.268 17.7216 675.754 17.7983 676.274 17.7983C676.879 17.7983 677.422 17.7003 677.904 17.5043C678.385 17.304 678.767 17.027 679.048 16.6733C679.329 16.3153 679.47 15.8977 679.47 15.4205C679.47 14.9858 679.349 14.6321 679.106 14.3594C678.863 14.0866 678.543 13.8651 678.147 13.6946C677.751 13.5241 677.322 13.375 676.862 13.2472L675.251 12.7869C674.228 12.4929 673.419 12.0732 672.822 11.5277C672.226 10.9822 671.927 10.2685 671.927 9.38636C671.927 8.65341 672.126 8.0142 672.522 7.46875C672.922 6.91903 673.459 6.4929 674.133 6.19034C674.81 5.88352 675.567 5.73011 676.402 5.73011C677.246 5.73011 677.996 5.88139 678.652 6.18395C679.308 6.48224 679.828 6.89133 680.211 7.41122C680.599 7.93111 680.804 8.52131 680.825 9.18182H679.291ZM686.996 5.90909V19H685.41V5.90909H686.996ZM700.923 10C700.782 9.5696 700.597 9.18395 700.367 8.84304C700.141 8.49787 699.87 8.20383 699.555 7.96094C699.244 7.71804 698.89 7.53267 698.494 7.40483C698.098 7.27699 697.663 7.21307 697.19 7.21307C696.414 7.21307 695.709 7.41335 695.074 7.81392C694.439 8.21449 693.934 8.80469 693.559 9.58452C693.184 10.3643 692.997 11.321 692.997 12.4545C692.997 13.5881 693.186 14.5447 693.566 15.3246C693.945 16.1044 694.458 16.6946 695.106 17.0952C695.754 17.4957 696.483 17.696 697.292 17.696C698.042 17.696 698.703 17.5362 699.274 17.2166C699.849 16.8928 700.297 16.4368 700.616 15.8487C700.94 15.2564 701.102 14.5597 701.102 13.7585L701.588 13.8608H697.65V12.4545H702.636V13.8608C702.636 14.9389 702.406 15.8764 701.946 16.6733C701.49 17.4702 700.859 18.0881 700.054 18.527C699.253 18.9616 698.332 19.179 697.292 19.179C696.133 19.179 695.115 18.9062 694.237 18.3608C693.363 17.8153 692.681 17.0398 692.191 16.0341C691.706 15.0284 691.463 13.8352 691.463 12.4545C691.463 11.419 691.601 10.4879 691.878 9.66122C692.159 8.83026 692.556 8.12287 693.067 7.53906C693.578 6.95526 694.184 6.50781 694.882 6.19673C695.581 5.88565 696.351 5.73011 697.19 5.73011C697.88 5.73011 698.524 5.83452 699.12 6.04332C699.721 6.24787 700.256 6.53977 700.725 6.91903C701.198 7.29403 701.592 7.74361 701.907 8.26776C702.223 8.78764 702.44 9.36506 702.559 10H700.923ZM717.532 5.90909V19H715.998L708.864 8.72159H708.736V19H707.151V5.90909H708.685L715.844 16.2131H715.972V5.90909H717.532ZM728.65 7.31534V5.90909H738.469V7.31534H734.352V19H732.767V7.31534H728.65ZM753.216 12.4545C753.216 13.8352 752.966 15.0284 752.468 16.0341C751.969 17.0398 751.285 17.8153 750.416 18.3608C749.547 18.9062 748.554 19.179 747.437 19.179C746.321 19.179 745.328 18.9062 744.459 18.3608C743.589 17.8153 742.905 17.0398 742.407 16.0341C741.908 15.0284 741.659 13.8352 741.659 12.4545C741.659 11.0739 741.908 9.88068 742.407 8.875C742.905 7.86932 743.589 7.09375 744.459 6.5483C745.328 6.00284 746.321 5.73011 747.437 5.73011C748.554 5.73011 749.547 6.00284 750.416 6.5483C751.285 7.09375 751.969 7.86932 752.468 8.875C752.966 9.88068 753.216 11.0739 753.216 12.4545ZM751.682 12.4545C751.682 11.321 751.492 10.3643 751.113 9.58452C750.738 8.80469 750.228 8.21449 749.585 7.81392C748.946 7.41335 748.23 7.21307 747.437 7.21307C746.645 7.21307 745.927 7.41335 745.283 7.81392C744.644 8.21449 744.135 8.80469 743.755 9.58452C743.38 10.3643 743.193 11.321 743.193 12.4545C743.193 13.5881 743.38 14.5447 743.755 15.3246C744.135 16.1044 744.644 16.6946 745.283 17.0952C745.927 17.4957 746.645 17.696 747.437 17.696C748.23 17.696 748.946 17.4957 749.585 17.0952C750.228 16.6946 750.738 16.1044 751.113 15.3246C751.492 14.5447 751.682 13.5881 751.682 12.4545ZM757.681 19V5.90909H759.266V12.4034H759.42L765.3 5.90909H767.371L761.874 11.8153L767.371 19H765.454L760.903 12.9148L759.266 14.7557V19H757.681ZM771.223 19V5.90909H779.124V7.31534H772.809V11.7386H778.715V13.1449H772.809V17.5938H779.226V19H771.223ZM794.162 5.90909V19H792.628L785.494 8.72159H785.366V19H783.781V5.90909H785.315L792.474 16.2131H792.602V5.90909H794.162Z" fill="#000E38"/>
<path d="M628.62 232.455V247H626.915L618.989 235.58H618.847V247H617.086V232.455H618.79L626.745 243.903H626.887V232.455H628.62ZM635.127 247.256C634.436 247.256 633.808 247.125 633.245 246.865C632.682 246.6 632.234 246.219 631.903 245.722C631.571 245.22 631.406 244.614 631.406 243.903C631.406 243.278 631.529 242.772 631.775 242.384C632.021 241.991 632.35 241.683 632.762 241.46C633.174 241.238 633.629 241.072 634.126 240.963C634.628 240.849 635.132 240.759 635.638 240.693C636.301 240.608 636.839 240.544 637.251 240.501C637.667 240.454 637.97 240.376 638.16 240.267C638.354 240.158 638.451 239.969 638.451 239.699V239.642C638.451 238.941 638.259 238.397 637.876 238.009C637.497 237.62 636.922 237.426 636.15 237.426C635.35 237.426 634.722 237.601 634.268 237.952C633.813 238.302 633.494 238.676 633.309 239.074L631.718 238.506C632.002 237.843 632.381 237.327 632.854 236.957C633.333 236.583 633.853 236.323 634.417 236.176C634.985 236.025 635.544 235.949 636.093 235.949C636.443 235.949 636.846 235.991 637.3 236.077C637.76 236.157 638.202 236.325 638.629 236.581C639.059 236.837 639.417 237.223 639.701 237.739C639.985 238.255 640.127 238.946 640.127 239.812V247H638.451V245.523H638.366C638.252 245.759 638.063 246.013 637.798 246.283C637.532 246.553 637.18 246.782 636.739 246.972C636.299 247.161 635.762 247.256 635.127 247.256ZM635.383 245.75C636.046 245.75 636.604 245.62 637.059 245.359C637.518 245.099 637.864 244.763 638.096 244.351C638.333 243.939 638.451 243.506 638.451 243.051V241.517C638.38 241.602 638.224 241.68 637.982 241.751C637.746 241.818 637.471 241.877 637.158 241.929C636.851 241.976 636.55 242.019 636.256 242.057C635.968 242.09 635.733 242.118 635.553 242.142C635.118 242.199 634.71 242.291 634.332 242.419C633.958 242.542 633.655 242.729 633.423 242.98C633.195 243.226 633.082 243.562 633.082 243.989C633.082 244.571 633.297 245.011 633.728 245.31C634.164 245.603 634.715 245.75 635.383 245.75ZM643.186 247V236.091H644.806V237.795H644.948C645.175 237.213 645.542 236.761 646.049 236.439C646.555 236.112 647.164 235.949 647.874 235.949C648.594 235.949 649.193 236.112 649.671 236.439C650.154 236.761 650.53 237.213 650.8 237.795H650.914C651.193 237.232 651.612 236.785 652.171 236.453C652.73 236.117 653.4 235.949 654.181 235.949C655.156 235.949 655.954 236.254 656.574 236.865C657.194 237.471 657.505 238.416 657.505 239.699V247H655.828V239.699C655.828 238.894 655.608 238.319 655.168 237.973C654.728 237.627 654.209 237.455 653.613 237.455C652.846 237.455 652.251 237.687 651.83 238.151C651.408 238.61 651.198 239.192 651.198 239.898V247H649.493V239.528C649.493 238.908 649.292 238.409 648.89 238.03C648.487 237.646 647.969 237.455 647.334 237.455C646.899 237.455 646.491 237.571 646.113 237.803C645.739 238.035 645.435 238.357 645.203 238.768C644.976 239.176 644.863 239.647 644.863 240.182V247H643.186ZM665.143 247.227C664.092 247.227 663.185 246.995 662.423 246.531C661.665 246.062 661.081 245.409 660.669 244.571C660.261 243.728 660.058 242.748 660.058 241.631C660.058 240.513 660.261 239.528 660.669 238.676C661.081 237.819 661.654 237.152 662.387 236.673C663.126 236.19 663.988 235.949 664.973 235.949C665.541 235.949 666.102 236.044 666.656 236.233C667.21 236.422 667.714 236.73 668.169 237.156C668.623 237.578 668.985 238.136 669.255 238.832C669.525 239.528 669.66 240.385 669.66 241.403V242.114H661.251V240.665H667.956C667.956 240.049 667.833 239.5 667.586 239.017C667.345 238.534 666.999 238.153 666.549 237.874C666.104 237.594 665.579 237.455 664.973 237.455C664.305 237.455 663.727 237.62 663.24 237.952C662.757 238.278 662.385 238.705 662.125 239.23C661.864 239.756 661.734 240.319 661.734 240.92V241.886C661.734 242.71 661.876 243.409 662.16 243.982C662.449 244.55 662.849 244.983 663.36 245.281C663.872 245.575 664.466 245.722 665.143 245.722C665.583 245.722 665.981 245.66 666.336 245.537C666.696 245.409 667.006 245.22 667.267 244.969C667.527 244.713 667.728 244.396 667.87 244.017L669.49 244.472C669.319 245.021 669.033 245.504 668.63 245.92C668.228 246.332 667.731 246.654 667.139 246.886C666.547 247.114 665.882 247.227 665.143 247.227Z" fill="#000E38"/>
<path d="M508 13V12H507V13H508ZM507.293 50.7071C507.683 51.0976 508.317 51.0976 508.707 50.7071L515.071 44.3431C515.462 43.9526 515.462 43.3195 515.071 42.9289C514.681 42.5384 514.047 42.5384 513.657 42.9289L508 48.5858L502.343 42.9289C501.953 42.5384 501.319 42.5384 500.929 42.9289C500.538 43.3195 500.538 43.9526 500.929 44.3431L507.293 50.7071ZM615 12H508V14H615V12ZM507 13V50H509V13H507Z" fill="black"/>
<path d="M931 13V12H932V13H931ZM931.707 50.7071C931.317 51.0976 930.683 51.0976 930.293 50.7071L923.929 44.3431C923.538 43.9526 923.538 43.3195 923.929 42.9289C924.319 42.5384 924.953 42.5384 925.343 42.9289L931 48.5858L936.657 42.9289C937.047 42.5384 937.681 42.5384 938.071 42.9289C938.462 43.3195 938.462 43.9526 938.071 44.3431L931.707 50.7071ZM824 12H931V14H824V12ZM932 13V50H930V13H932Z" fill="black"/>
<path d="M642.293 179.293C642.683 178.902 643.317 178.902 643.707 179.293L650.071 185.657C650.462 186.047 650.462 186.681 650.071 187.071C649.681 187.462 649.047 187.462 648.657 187.071L643 181.414L637.343 187.071C636.953 187.462 636.319 187.462 635.929 187.071C635.538 186.681 635.538 186.047 635.929 185.657L642.293 179.293ZM642 217L642 180L644 180L644 217L642 217Z" fill="black"/>
<path d="M810.469 232.455L814.787 244.699H814.958L819.276 232.455H821.123L815.782 247H813.964L808.623 232.455H810.469ZM825.356 247.256C824.664 247.256 824.037 247.125 823.474 246.865C822.91 246.6 822.463 246.219 822.131 245.722C821.8 245.22 821.634 244.614 821.634 243.903C821.634 243.278 821.757 242.772 822.003 242.384C822.25 241.991 822.579 241.683 822.991 241.46C823.403 241.238 823.857 241.072 824.354 240.963C824.856 240.849 825.36 240.759 825.867 240.693C826.53 240.608 827.067 240.544 827.479 240.501C827.896 240.454 828.199 240.376 828.388 240.267C828.582 240.158 828.68 239.969 828.68 239.699V239.642C828.68 238.941 828.488 238.397 828.104 238.009C827.725 237.62 827.15 237.426 826.378 237.426C825.578 237.426 824.951 237.601 824.496 237.952C824.042 238.302 823.722 238.676 823.537 239.074L821.947 238.506C822.231 237.843 822.609 237.327 823.083 236.957C823.561 236.583 824.082 236.323 824.645 236.176C825.214 236.025 825.772 235.949 826.322 235.949C826.672 235.949 827.074 235.991 827.529 236.077C827.988 236.157 828.431 236.325 828.857 236.581C829.288 236.837 829.645 237.223 829.93 237.739C830.214 238.255 830.356 238.946 830.356 239.812V247H828.68V245.523H828.594C828.481 245.759 828.291 246.013 828.026 246.283C827.761 246.553 827.408 246.782 826.968 246.972C826.528 247.161 825.99 247.256 825.356 247.256ZM825.611 245.75C826.274 245.75 826.833 245.62 827.287 245.359C827.747 245.099 828.092 244.763 828.324 244.351C828.561 243.939 828.68 243.506 828.68 243.051V241.517C828.608 241.602 828.452 241.68 828.211 241.751C827.974 241.818 827.699 241.877 827.387 241.929C827.079 241.976 826.778 242.019 826.485 242.057C826.196 242.09 825.962 242.118 825.782 242.142C825.346 242.199 824.939 242.291 824.56 242.419C824.186 242.542 823.883 242.729 823.651 242.98C823.424 243.226 823.31 243.562 823.31 243.989C823.31 244.571 823.526 245.011 823.956 245.31C824.392 245.603 824.944 245.75 825.611 245.75ZM835.091 232.455V247H833.415V232.455H835.091ZM845.036 242.54V236.091H846.712V247H845.036V245.153H844.922C844.667 245.707 844.269 246.179 843.729 246.567C843.189 246.95 842.508 247.142 841.684 247.142C841.002 247.142 840.396 246.993 839.866 246.695C839.335 246.392 838.919 245.937 838.616 245.331C838.313 244.72 838.161 243.951 838.161 243.023V236.091H839.837V242.909C839.837 243.705 840.06 244.339 840.505 244.812C840.955 245.286 841.528 245.523 842.224 245.523C842.64 245.523 843.064 245.416 843.495 245.203C843.93 244.99 844.295 244.663 844.589 244.223C844.887 243.783 845.036 243.222 845.036 242.54ZM854.356 247.227C853.305 247.227 852.398 246.995 851.636 246.531C850.878 246.062 850.294 245.409 849.882 244.571C849.474 243.728 849.271 242.748 849.271 241.631C849.271 240.513 849.474 239.528 849.882 238.676C850.294 237.819 850.866 237.152 851.6 236.673C852.339 236.19 853.201 235.949 854.186 235.949C854.754 235.949 855.315 236.044 855.869 236.233C856.423 236.422 856.927 236.73 857.382 237.156C857.836 237.578 858.198 238.136 858.468 238.832C858.738 239.528 858.873 240.385 858.873 241.403V242.114H850.464V240.665H857.169C857.169 240.049 857.045 239.5 856.799 239.017C856.558 238.534 856.212 238.153 855.762 237.874C855.317 237.594 854.792 237.455 854.186 237.455C853.518 237.455 852.94 237.62 852.453 237.952C851.97 238.278 851.598 238.705 851.338 239.23C851.077 239.756 850.947 240.319 850.947 240.92V241.886C850.947 242.71 851.089 243.409 851.373 243.982C851.662 244.55 852.062 244.983 852.573 245.281C853.085 245.575 853.679 245.722 854.356 245.722C854.796 245.722 855.194 245.66 855.549 245.537C855.909 245.409 856.219 245.22 856.48 244.969C856.74 244.713 856.941 244.396 857.083 244.017L858.703 244.472C858.532 245.021 858.246 245.504 857.843 245.92C857.441 246.332 856.944 246.654 856.352 246.886C855.76 247.114 855.095 247.227 854.356 247.227Z" fill="#000E38"/>
<path d="M833.293 179.293C833.683 178.902 834.317 178.902 834.707 179.293L841.071 185.657C841.462 186.047 841.462 186.681 841.071 187.071C840.681 187.462 840.047 187.462 839.657 187.071L834 181.414L828.343 187.071C827.953 187.462 827.319 187.462 826.929 187.071C826.538 186.681 826.538 186.047 826.929 185.657L833.293 179.293ZM833 217L833 180L835 180L835 217L833 217Z" fill="black"/>
</svg>
