<svg width="1440" height="369" viewBox="0 0 1440 369" fill="none" xmlns="http://www.w3.org/2000/svg">
<rect width="1440" height="368" transform="translate(0 1)" fill="white"/>
<path d="M452.792 25.3457L467.753 38.3582L438.776 70.8887" stroke="#000E38" stroke-width="2" stroke-miterlimit="10"/>
<path d="M436.838 11.2021L455.385 16.9101L436.838 77.1765" stroke="#000E38" stroke-width="2" stroke-miterlimit="10"/>
<path d="M436.838 4.35547H399.743V97.0921H436.838V4.35547Z" stroke="#000E38" stroke-width="2" stroke-miterlimit="10" stroke-linecap="square"/>
<path d="M418.29 86.2727C420.851 86.2727 422.927 84.1968 422.927 81.6359C422.927 79.0749 420.851 76.999 418.29 76.999C415.729 76.999 413.653 79.0749 413.653 81.6359C413.653 84.1968 415.729 86.2727 418.29 86.2727Z" stroke="#000E38" stroke-width="2" stroke-miterlimit="10" stroke-linecap="square"/>
<path d="M399.743 66.1807H436.838" stroke="#000E38" stroke-width="2" stroke-miterlimit="10" stroke-linecap="square"/>
<path d="M394.628 135H392.867C392.762 134.493 392.58 134.048 392.32 133.665C392.064 133.281 391.752 132.959 391.382 132.699C391.018 132.434 390.613 132.235 390.168 132.102C389.723 131.97 389.259 131.903 388.776 131.903C387.895 131.903 387.097 132.126 386.382 132.571C385.672 133.016 385.106 133.672 384.685 134.538C384.268 135.405 384.06 136.468 384.06 137.727C384.06 138.987 384.268 140.05 384.685 140.916C385.106 141.783 385.672 142.438 386.382 142.884C387.097 143.329 387.895 143.551 388.776 143.551C389.259 143.551 389.723 143.485 390.168 143.352C390.613 143.22 391.018 143.023 391.382 142.763C391.752 142.498 392.064 142.173 392.32 141.79C392.58 141.402 392.762 140.956 392.867 140.455H394.628C394.495 141.198 394.254 141.863 393.904 142.45C393.553 143.037 393.118 143.537 392.597 143.949C392.076 144.356 391.491 144.666 390.843 144.879C390.199 145.092 389.51 145.199 388.776 145.199C387.535 145.199 386.432 144.896 385.466 144.29C384.5 143.684 383.74 142.822 383.186 141.705C382.632 140.587 382.355 139.261 382.355 137.727C382.355 136.193 382.632 134.867 383.186 133.75C383.74 132.633 384.5 131.771 385.466 131.165C386.432 130.559 387.535 130.256 388.776 130.256C389.51 130.256 390.199 130.362 390.843 130.575C391.491 130.788 392.076 131.101 392.597 131.513C393.118 131.92 393.553 132.417 393.904 133.004C394.254 133.587 394.495 134.252 394.628 135ZM401.679 145.227C400.694 145.227 399.83 144.993 399.086 144.524C398.348 144.055 397.77 143.4 397.354 142.557C396.942 141.714 396.736 140.729 396.736 139.602C396.736 138.466 396.942 137.474 397.354 136.626C397.77 135.779 398.348 135.121 399.086 134.652C399.83 134.183 400.694 133.949 401.679 133.949C402.664 133.949 403.525 134.183 404.264 134.652C405.007 135.121 405.585 135.779 405.997 136.626C406.414 137.474 406.622 138.466 406.622 139.602C406.622 140.729 406.414 141.714 405.997 142.557C405.585 143.4 405.007 144.055 404.264 144.524C403.525 144.993 402.664 145.227 401.679 145.227ZM401.679 143.722C402.427 143.722 403.042 143.53 403.525 143.146C404.008 142.763 404.366 142.259 404.598 141.634C404.83 141.009 404.946 140.331 404.946 139.602C404.946 138.873 404.83 138.194 404.598 137.564C404.366 136.934 404.008 136.425 403.525 136.037C403.042 135.649 402.427 135.455 401.679 135.455C400.931 135.455 400.315 135.649 399.832 136.037C399.349 136.425 398.992 136.934 398.76 137.564C398.528 138.194 398.412 138.873 398.412 139.602C398.412 140.331 398.528 141.009 398.76 141.634C398.992 142.259 399.349 142.763 399.832 143.146C400.315 143.53 400.931 143.722 401.679 143.722ZM410.857 130.455V145H409.181V130.455H410.857ZM418.358 145.227C417.374 145.227 416.51 144.993 415.766 144.524C415.028 144.055 414.45 143.4 414.033 142.557C413.621 141.714 413.415 140.729 413.415 139.602C413.415 138.466 413.621 137.474 414.033 136.626C414.45 135.779 415.028 135.121 415.766 134.652C416.51 134.183 417.374 133.949 418.358 133.949C419.343 133.949 420.205 134.183 420.944 134.652C421.687 135.121 422.265 135.779 422.677 136.626C423.093 137.474 423.302 138.466 423.302 139.602C423.302 140.729 423.093 141.714 422.677 142.557C422.265 143.4 421.687 144.055 420.944 144.524C420.205 144.993 419.343 145.227 418.358 145.227ZM418.358 143.722C419.107 143.722 419.722 143.53 420.205 143.146C420.688 142.763 421.046 142.259 421.278 141.634C421.51 141.009 421.626 140.331 421.626 139.602C421.626 138.873 421.51 138.194 421.278 137.564C421.046 136.934 420.688 136.425 420.205 136.037C419.722 135.649 419.107 135.455 418.358 135.455C417.61 135.455 416.995 135.649 416.512 136.037C416.029 136.425 415.671 136.934 415.439 137.564C415.207 138.194 415.091 138.873 415.091 139.602C415.091 140.331 415.207 141.009 415.439 141.634C415.671 142.259 416.029 142.763 416.512 143.146C416.995 143.53 417.61 143.722 418.358 143.722ZM432.735 140.54V134.091H434.411V145H432.735V143.153H432.622C432.366 143.707 431.968 144.179 431.428 144.567C430.889 144.95 430.207 145.142 429.383 145.142C428.701 145.142 428.095 144.993 427.565 144.695C427.035 144.392 426.618 143.937 426.315 143.331C426.012 142.72 425.86 141.951 425.86 141.023V134.091H427.536V140.909C427.536 141.705 427.759 142.339 428.204 142.812C428.654 143.286 429.227 143.523 429.923 143.523C430.339 143.523 430.763 143.416 431.194 143.203C431.63 142.99 431.994 142.663 432.288 142.223C432.586 141.783 432.735 141.222 432.735 140.54ZM437.481 145V134.091H439.101V135.739H439.214C439.413 135.199 439.773 134.761 440.294 134.425C440.815 134.089 441.402 133.92 442.055 133.92C442.178 133.92 442.332 133.923 442.517 133.928C442.702 133.932 442.841 133.939 442.936 133.949V135.653C442.879 135.639 442.749 135.618 442.545 135.589C442.346 135.556 442.136 135.54 441.913 135.54C441.383 135.54 440.909 135.651 440.493 135.874C440.081 136.091 439.754 136.394 439.513 136.783C439.276 137.166 439.157 137.604 439.157 138.097V145H437.481ZM452.65 136.534L451.144 136.96C451.05 136.709 450.91 136.465 450.725 136.229C450.545 135.987 450.299 135.788 449.987 135.632C449.674 135.476 449.274 135.398 448.786 135.398C448.119 135.398 447.562 135.552 447.117 135.859C446.677 136.162 446.457 136.548 446.457 137.017C446.457 137.434 446.608 137.763 446.911 138.004C447.214 138.246 447.688 138.447 448.332 138.608L449.951 139.006C450.927 139.242 451.653 139.605 452.132 140.092C452.61 140.575 452.849 141.198 452.849 141.96C452.849 142.585 452.669 143.144 452.309 143.636C451.954 144.129 451.457 144.517 450.818 144.801C450.178 145.085 449.435 145.227 448.588 145.227C447.475 145.227 446.554 144.986 445.825 144.503C445.096 144.02 444.634 143.314 444.44 142.386L446.031 141.989C446.182 142.576 446.469 143.016 446.89 143.31C447.316 143.603 447.873 143.75 448.559 143.75C449.34 143.75 449.961 143.584 450.42 143.253C450.884 142.917 451.116 142.514 451.116 142.045C451.116 141.667 450.983 141.349 450.718 141.094C450.453 140.833 450.046 140.639 449.497 140.511L447.678 140.085C446.679 139.848 445.945 139.482 445.477 138.984C445.013 138.482 444.781 137.855 444.781 137.102C444.781 136.487 444.954 135.942 445.299 135.469C445.65 134.995 446.125 134.624 446.727 134.354C447.333 134.084 448.019 133.949 448.786 133.949C449.866 133.949 450.713 134.186 451.329 134.659C451.949 135.133 452.39 135.758 452.65 136.534Z" fill="#000E38"/>
<path d="M603.764 10.72V1.44629H659.406V10.72" stroke="#000E38" stroke-width="2" stroke-miterlimit="10" stroke-linecap="square"/>
<path d="M631.584 1.44629V63.2707" stroke="#000E38" stroke-width="2" stroke-miterlimit="10" stroke-linecap="square"/>
<path d="M619.219 63.2705H643.949" stroke="#000E38" stroke-width="2" stroke-miterlimit="10" stroke-linecap="square"/>
<path d="M676.407 81.8184H586.762" stroke="#000E38" stroke-width="2" stroke-miterlimit="10"/>
<path d="M597.581 70.9988L586.762 81.8181L597.581 92.6373" stroke="#000E38" stroke-width="2" stroke-miterlimit="10" stroke-linecap="square"/>
<path d="M665.588 70.9988L676.407 81.8181L665.588 92.6373" stroke="#000E38" stroke-width="2" stroke-miterlimit="10" stroke-linecap="square"/>
<path d="M577.226 132.017V130.455H588.135V132.017H583.561V145H581.8V132.017H577.226ZM590.455 149.091C590.171 149.091 589.918 149.067 589.695 149.02C589.473 148.977 589.319 148.935 589.234 148.892L589.66 147.415C590.067 147.519 590.427 147.557 590.74 147.528C591.052 147.5 591.329 147.36 591.57 147.109C591.817 146.863 592.042 146.463 592.245 145.909L592.558 145.057L588.524 134.091H590.342L593.353 142.784H593.467L596.478 134.091H598.296L593.666 146.591C593.457 147.154 593.199 147.621 592.892 147.99C592.584 148.364 592.226 148.641 591.819 148.821C591.417 149.001 590.962 149.091 590.455 149.091ZM600.509 149.091V134.091H602.128V135.824H602.327C602.45 135.634 602.62 135.393 602.838 135.099C603.061 134.801 603.378 134.536 603.79 134.304C604.207 134.067 604.77 133.949 605.48 133.949C606.399 133.949 607.209 134.179 607.909 134.638C608.61 135.097 609.157 135.748 609.55 136.591C609.943 137.434 610.139 138.428 610.139 139.574C610.139 140.729 609.943 141.731 609.55 142.578C609.157 143.421 608.612 144.074 607.916 144.538C607.22 144.998 606.418 145.227 605.509 145.227C604.808 145.227 604.247 145.111 603.825 144.879C603.404 144.643 603.08 144.375 602.852 144.077C602.625 143.774 602.45 143.523 602.327 143.324H602.185V149.091H600.509ZM602.156 139.545C602.156 140.369 602.277 141.096 602.519 141.726C602.76 142.351 603.113 142.841 603.577 143.196C604.041 143.546 604.609 143.722 605.281 143.722C605.982 143.722 606.567 143.537 607.036 143.168C607.509 142.794 607.864 142.292 608.101 141.662C608.343 141.027 608.463 140.322 608.463 139.545C608.463 138.778 608.345 138.087 608.108 137.472C607.876 136.851 607.523 136.361 607.05 136.001C606.581 135.637 605.992 135.455 605.281 135.455C604.6 135.455 604.027 135.627 603.563 135.973C603.099 136.314 602.748 136.792 602.512 137.408C602.275 138.018 602.156 138.731 602.156 139.545ZM617.128 145.227C616.143 145.227 615.279 144.993 614.536 144.524C613.797 144.055 613.219 143.4 612.803 142.557C612.391 141.714 612.185 140.729 612.185 139.602C612.185 138.466 612.391 137.474 612.803 136.626C613.219 135.779 613.797 135.121 614.536 134.652C615.279 134.183 616.143 133.949 617.128 133.949C618.113 133.949 618.975 134.183 619.713 134.652C620.457 135.121 621.034 135.779 621.446 136.626C621.863 137.474 622.071 138.466 622.071 139.602C622.071 140.729 621.863 141.714 621.446 142.557C621.034 143.4 620.457 144.055 619.713 144.524C618.975 144.993 618.113 145.227 617.128 145.227ZM617.128 143.722C617.876 143.722 618.492 143.53 618.975 143.146C619.458 142.763 619.815 142.259 620.047 141.634C620.279 141.009 620.395 140.331 620.395 139.602C620.395 138.873 620.279 138.194 620.047 137.564C619.815 136.934 619.458 136.425 618.975 136.037C618.492 135.649 617.876 135.455 617.128 135.455C616.38 135.455 615.764 135.649 615.281 136.037C614.798 136.425 614.441 136.934 614.209 137.564C613.977 138.194 613.861 138.873 613.861 139.602C613.861 140.331 613.977 141.009 614.209 141.634C614.441 142.259 614.798 142.763 615.281 143.146C615.764 143.53 616.38 143.722 617.128 143.722ZM629.033 149.318C628.224 149.318 627.528 149.214 626.945 149.006C626.363 148.802 625.877 148.532 625.489 148.196C625.106 147.865 624.8 147.509 624.573 147.131L625.908 146.193C626.06 146.392 626.251 146.619 626.483 146.875C626.715 147.135 627.033 147.36 627.435 147.55C627.842 147.744 628.375 147.841 629.033 147.841C629.914 147.841 630.641 147.628 631.214 147.202C631.787 146.776 632.073 146.108 632.073 145.199V142.983H631.931C631.808 143.182 631.633 143.428 631.405 143.722C631.183 144.01 630.861 144.268 630.439 144.496C630.023 144.718 629.459 144.83 628.749 144.83C627.868 144.83 627.078 144.621 626.377 144.205C625.681 143.788 625.129 143.182 624.722 142.386C624.32 141.591 624.118 140.625 624.118 139.489C624.118 138.371 624.315 137.398 624.708 136.57C625.101 135.736 625.648 135.092 626.349 134.638C627.049 134.179 627.859 133.949 628.778 133.949C629.488 133.949 630.051 134.067 630.468 134.304C630.889 134.536 631.211 134.801 631.434 135.099C631.661 135.393 631.836 135.634 631.959 135.824H632.13V134.091H633.749V145.312C633.749 146.25 633.536 147.012 633.11 147.599C632.689 148.191 632.12 148.625 631.405 148.899C630.695 149.179 629.904 149.318 629.033 149.318ZM628.976 143.324C629.649 143.324 630.217 143.17 630.681 142.862C631.145 142.554 631.498 142.112 631.739 141.534C631.981 140.956 632.101 140.265 632.101 139.46C632.101 138.674 631.983 137.981 631.746 137.379C631.51 136.778 631.159 136.307 630.695 135.966C630.231 135.625 629.658 135.455 628.976 135.455C628.266 135.455 627.674 135.634 627.201 135.994C626.732 136.354 626.379 136.837 626.143 137.443C625.911 138.049 625.795 138.722 625.795 139.46C625.795 140.218 625.913 140.888 626.15 141.47C626.391 142.048 626.746 142.502 627.215 142.834C627.689 143.161 628.276 143.324 628.976 143.324ZM636.817 145V134.091H638.437V135.739H638.55C638.749 135.199 639.109 134.761 639.63 134.425C640.151 134.089 640.738 133.92 641.391 133.92C641.514 133.92 641.668 133.923 641.853 133.928C642.037 133.932 642.177 133.939 642.272 133.949V135.653C642.215 135.639 642.085 135.618 641.881 135.589C641.682 135.556 641.472 135.54 641.249 135.54C640.719 135.54 640.245 135.651 639.829 135.874C639.417 136.091 639.09 136.394 638.849 136.783C638.612 137.166 638.493 137.604 638.493 138.097V145H636.817ZM647.469 145.256C646.778 145.256 646.15 145.125 645.587 144.865C645.023 144.6 644.576 144.219 644.244 143.722C643.913 143.22 643.747 142.614 643.747 141.903C643.747 141.278 643.87 140.772 644.117 140.384C644.363 139.991 644.692 139.683 645.104 139.46C645.516 139.238 645.97 139.072 646.468 138.963C646.969 138.849 647.474 138.759 647.98 138.693C648.643 138.608 649.181 138.544 649.593 138.501C650.009 138.454 650.312 138.376 650.502 138.267C650.696 138.158 650.793 137.969 650.793 137.699V137.642C650.793 136.941 650.601 136.397 650.218 136.009C649.839 135.62 649.263 135.426 648.492 135.426C647.691 135.426 647.064 135.601 646.61 135.952C646.155 136.302 645.835 136.676 645.651 137.074L644.06 136.506C644.344 135.843 644.723 135.327 645.196 134.957C645.674 134.583 646.195 134.323 646.759 134.176C647.327 134.025 647.886 133.949 648.435 133.949C648.785 133.949 649.188 133.991 649.642 134.077C650.102 134.157 650.544 134.325 650.97 134.581C651.401 134.837 651.759 135.223 652.043 135.739C652.327 136.255 652.469 136.946 652.469 137.812V145H650.793V143.523H650.708C650.594 143.759 650.405 144.013 650.139 144.283C649.874 144.553 649.521 144.782 649.081 144.972C648.641 145.161 648.103 145.256 647.469 145.256ZM647.725 143.75C648.387 143.75 648.946 143.62 649.401 143.359C649.86 143.099 650.206 142.763 650.438 142.351C650.674 141.939 650.793 141.506 650.793 141.051V139.517C650.722 139.602 650.566 139.68 650.324 139.751C650.087 139.818 649.813 139.877 649.5 139.929C649.192 139.976 648.892 140.019 648.598 140.057C648.309 140.09 648.075 140.118 647.895 140.142C647.459 140.199 647.052 140.291 646.673 140.419C646.299 140.542 645.996 140.729 645.764 140.98C645.537 141.226 645.423 141.562 645.423 141.989C645.423 142.571 645.639 143.011 646.07 143.31C646.505 143.603 647.057 143.75 647.725 143.75ZM655.528 149.091V134.091H657.148V135.824H657.346C657.47 135.634 657.64 135.393 657.858 135.099C658.08 134.801 658.398 134.536 658.809 134.304C659.226 134.067 659.79 133.949 660.5 133.949C661.418 133.949 662.228 134.179 662.929 134.638C663.63 135.097 664.176 135.748 664.569 136.591C664.962 137.434 665.159 138.428 665.159 139.574C665.159 140.729 664.962 141.731 664.569 142.578C664.176 143.421 663.632 144.074 662.936 144.538C662.24 144.998 661.437 145.227 660.528 145.227C659.827 145.227 659.266 145.111 658.845 144.879C658.424 144.643 658.099 144.375 657.872 144.077C657.645 143.774 657.47 143.523 657.346 143.324H657.204V149.091H655.528ZM657.176 139.545C657.176 140.369 657.297 141.096 657.538 141.726C657.78 142.351 658.132 142.841 658.596 143.196C659.06 143.546 659.629 143.722 660.301 143.722C661.002 143.722 661.586 143.537 662.055 143.168C662.529 142.794 662.884 142.292 663.121 141.662C663.362 141.027 663.483 140.322 663.483 139.545C663.483 138.778 663.364 138.087 663.128 137.472C662.896 136.851 662.543 136.361 662.069 136.001C661.601 135.637 661.011 135.455 660.301 135.455C659.619 135.455 659.046 135.627 658.582 135.973C658.118 136.314 657.768 136.792 657.531 137.408C657.294 138.018 657.176 138.731 657.176 139.545ZM669.392 138.438V145H667.716V130.455H669.392V135.795H669.534C669.79 135.232 670.173 134.785 670.684 134.453C671.201 134.117 671.887 133.949 672.744 133.949C673.488 133.949 674.139 134.098 674.697 134.396C675.256 134.69 675.689 135.142 675.997 135.753C676.309 136.359 676.466 137.131 676.466 138.068V145H674.79V138.182C674.79 137.315 674.565 136.645 674.115 136.172C673.67 135.694 673.052 135.455 672.261 135.455C671.712 135.455 671.22 135.571 670.784 135.803C670.353 136.035 670.012 136.373 669.761 136.818C669.515 137.263 669.392 137.803 669.392 138.438ZM680.221 149.091C679.937 149.091 679.684 149.067 679.461 149.02C679.239 148.977 679.085 148.935 678.999 148.892L679.426 147.415C679.833 147.519 680.193 147.557 680.505 147.528C680.818 147.5 681.095 147.36 681.336 147.109C681.582 146.863 681.807 146.463 682.011 145.909L682.323 145.057L678.289 134.091H680.107L683.119 142.784H683.232L686.244 134.091H688.062L683.431 146.591C683.223 147.154 682.965 147.621 682.657 147.99C682.349 148.364 681.992 148.641 681.585 148.821C681.182 149.001 680.728 149.091 680.221 149.091Z" fill="#000E38"/>
<path d="M843.333 50.724L874.245 19.8118" stroke="#000E38" stroke-width="2" stroke-miterlimit="10"/>
<path d="M796.965 63.0889H830.968V97.0923" stroke="#000E38" stroke-width="2" stroke-miterlimit="10" stroke-linecap="square"/>
<path d="M889.701 4.35547H796.965V97.0921H889.701V4.35547Z" stroke="#000E38" stroke-width="2" stroke-miterlimit="10" stroke-linecap="square"/>
<path d="M874.245 44.5415V19.8118H849.516" stroke="#000E38" stroke-width="2" stroke-miterlimit="10" stroke-linecap="square"/>
<path d="M827.167 134.091C827.082 133.371 826.736 132.812 826.13 132.415C825.524 132.017 824.781 131.818 823.9 131.818C823.256 131.818 822.693 131.922 822.21 132.131C821.731 132.339 821.357 132.625 821.088 132.99C820.822 133.355 820.69 133.769 820.69 134.233C820.69 134.621 820.782 134.955 820.967 135.234C821.156 135.509 821.398 135.739 821.691 135.923C821.985 136.103 822.293 136.252 822.615 136.371C822.936 136.484 823.232 136.577 823.502 136.648L824.98 137.045C825.358 137.145 825.78 137.282 826.244 137.457C826.713 137.633 827.16 137.872 827.586 138.175C828.017 138.473 828.372 138.857 828.651 139.325C828.931 139.794 829.07 140.369 829.07 141.051C829.07 141.837 828.865 142.547 828.453 143.182C828.045 143.816 827.449 144.321 826.663 144.695C825.882 145.069 824.932 145.256 823.815 145.256C822.773 145.256 821.871 145.088 821.109 144.751C820.351 144.415 819.755 143.946 819.319 143.345C818.888 142.744 818.644 142.045 818.588 141.25H820.406C820.453 141.799 820.638 142.254 820.96 142.614C821.286 142.969 821.698 143.234 822.195 143.409C822.697 143.58 823.237 143.665 823.815 143.665C824.487 143.665 825.091 143.556 825.626 143.338C826.161 143.116 826.585 142.808 826.897 142.415C827.21 142.017 827.366 141.553 827.366 141.023C827.366 140.54 827.231 140.147 826.961 139.844C826.691 139.541 826.336 139.295 825.896 139.105C825.455 138.916 824.98 138.75 824.468 138.608L822.678 138.097C821.542 137.77 820.642 137.304 819.98 136.697C819.317 136.091 818.985 135.298 818.985 134.318C818.985 133.504 819.205 132.794 819.646 132.188C820.091 131.577 820.687 131.103 821.436 130.767C822.188 130.426 823.029 130.256 823.957 130.256C824.894 130.256 825.728 130.424 826.457 130.76C827.186 131.091 827.764 131.546 828.19 132.124C828.621 132.701 828.848 133.357 828.872 134.091H827.167ZM831.739 145V134.091H833.415V145H831.739ZM832.591 132.273C832.265 132.273 831.983 132.161 831.746 131.939C831.514 131.716 831.398 131.449 831.398 131.136C831.398 130.824 831.514 130.556 831.746 130.334C831.983 130.111 832.265 130 832.591 130C832.918 130 833.198 130.111 833.43 130.334C833.666 130.556 833.785 130.824 833.785 131.136C833.785 131.449 833.666 131.716 833.43 131.939C833.198 132.161 832.918 132.273 832.591 132.273ZM836.173 145V143.722L842.366 135.767V135.653H836.372V134.091H844.525V135.426L838.502 143.324V143.438H844.724V145H836.173ZM851.567 145.227C850.516 145.227 849.609 144.995 848.847 144.531C848.089 144.062 847.504 143.409 847.093 142.571C846.685 141.728 846.482 140.748 846.482 139.631C846.482 138.513 846.685 137.528 847.093 136.676C847.504 135.819 848.077 135.152 848.811 134.673C849.55 134.19 850.412 133.949 851.396 133.949C851.965 133.949 852.526 134.044 853.08 134.233C853.634 134.422 854.138 134.73 854.593 135.156C855.047 135.578 855.409 136.136 855.679 136.832C855.949 137.528 856.084 138.385 856.084 139.403V140.114H847.675V138.665H854.379C854.379 138.049 854.256 137.5 854.01 137.017C853.769 136.534 853.423 136.153 852.973 135.874C852.528 135.594 852.003 135.455 851.396 135.455C850.729 135.455 850.151 135.62 849.664 135.952C849.181 136.278 848.809 136.705 848.548 137.23C848.288 137.756 848.158 138.319 848.158 138.92V139.886C848.158 140.71 848.3 141.409 848.584 141.982C848.873 142.55 849.273 142.983 849.784 143.281C850.296 143.575 850.89 143.722 851.567 143.722C852.007 143.722 852.405 143.66 852.76 143.537C853.12 143.409 853.43 143.22 853.691 142.969C853.951 142.713 854.152 142.396 854.294 142.017L855.914 142.472C855.743 143.021 855.457 143.504 855.054 143.92C854.652 144.332 854.155 144.654 853.563 144.886C852.971 145.114 852.306 145.227 851.567 145.227ZM866.361 136.534L864.855 136.96C864.761 136.709 864.621 136.465 864.436 136.229C864.256 135.987 864.01 135.788 863.698 135.632C863.385 135.476 862.985 135.398 862.497 135.398C861.83 135.398 861.273 135.552 860.828 135.859C860.388 136.162 860.168 136.548 860.168 137.017C860.168 137.434 860.319 137.763 860.622 138.004C860.925 138.246 861.399 138.447 862.043 138.608L863.662 139.006C864.637 139.242 865.364 139.605 865.843 140.092C866.321 140.575 866.56 141.198 866.56 141.96C866.56 142.585 866.38 143.144 866.02 143.636C865.665 144.129 865.168 144.517 864.529 144.801C863.889 145.085 863.146 145.227 862.298 145.227C861.186 145.227 860.265 144.986 859.536 144.503C858.807 144.02 858.345 143.314 858.151 142.386L859.742 141.989C859.893 142.576 860.18 143.016 860.601 143.31C861.027 143.603 861.584 143.75 862.27 143.75C863.051 143.75 863.672 143.584 864.131 143.253C864.595 142.917 864.827 142.514 864.827 142.045C864.827 141.667 864.694 141.349 864.429 141.094C864.164 140.833 863.757 140.639 863.208 140.511L861.389 140.085C860.39 139.848 859.656 139.482 859.188 138.984C858.724 138.482 858.492 137.855 858.492 137.102C858.492 136.487 858.664 135.942 859.01 135.469C859.36 134.995 859.836 134.624 860.438 134.354C861.044 134.084 861.73 133.949 862.497 133.949C863.577 133.949 864.424 134.186 865.04 134.659C865.66 135.133 866.101 135.758 866.361 136.534Z" fill="#000E38"/>
<path d="M1048.9 29.54L1065.9 46.5418L1048.9 63.5435" stroke="#000E38" stroke-width="2" stroke-miterlimit="10" stroke-linecap="square"/>
<path d="M1014.9 63.5435L997.895 46.5418L1014.9 29.54" stroke="#000E38" stroke-width="2" stroke-miterlimit="10" stroke-linecap="square"/>
<path d="M987.075 9.44727V83.6366" stroke="#000E38" stroke-width="2" stroke-miterlimit="10" stroke-linecap="square"/>
<path d="M1076.72 9.44727V83.6366" stroke="#000E38" stroke-width="2" stroke-miterlimit="10" stroke-linecap="square"/>
<path d="M1003.21 134.091C1003.12 133.371 1002.78 132.812 1002.17 132.415C1001.57 132.017 1000.82 131.818 999.941 131.818C999.297 131.818 998.734 131.922 998.251 132.131C997.772 132.339 997.398 132.625 997.129 132.99C996.863 133.355 996.731 133.769 996.731 134.233C996.731 134.621 996.823 134.955 997.008 135.234C997.197 135.509 997.439 135.739 997.732 135.923C998.026 136.103 998.334 136.252 998.656 136.371C998.978 136.484 999.273 136.577 999.543 136.648L1001.02 137.045C1001.4 137.145 1001.82 137.282 1002.28 137.457C1002.75 137.633 1003.2 137.872 1003.63 138.175C1004.06 138.473 1004.41 138.857 1004.69 139.325C1004.97 139.794 1005.11 140.369 1005.11 141.051C1005.11 141.837 1004.91 142.547 1004.49 143.182C1004.09 143.816 1003.49 144.321 1002.7 144.695C1001.92 145.069 1000.97 145.256 999.856 145.256C998.814 145.256 997.912 145.088 997.15 144.751C996.392 144.415 995.796 143.946 995.36 143.345C994.929 142.744 994.685 142.045 994.629 141.25H996.447C996.494 141.799 996.679 142.254 997.001 142.614C997.327 142.969 997.739 143.234 998.237 143.409C998.738 143.58 999.278 143.665 999.856 143.665C1000.53 143.665 1001.13 143.556 1001.67 143.338C1002.2 143.116 1002.63 142.808 1002.94 142.415C1003.25 142.017 1003.41 141.553 1003.41 141.023C1003.41 140.54 1003.27 140.147 1003 139.844C1002.73 139.541 1002.38 139.295 1001.94 139.105C1001.5 138.916 1001.02 138.75 1000.51 138.608L998.719 138.097C997.583 137.77 996.683 137.304 996.021 136.697C995.358 136.091 995.026 135.298 995.026 134.318C995.026 133.504 995.246 132.794 995.687 132.188C996.132 131.577 996.728 131.103 997.477 130.767C998.229 130.426 999.07 130.256 999.998 130.256C1000.94 130.256 1001.77 130.424 1002.5 130.76C1003.23 131.091 1003.8 131.546 1004.23 132.124C1004.66 132.701 1004.89 133.357 1004.91 134.091H1003.21ZM1007.78 149.091V134.091H1009.4V135.824H1009.6C1009.72 135.634 1009.89 135.393 1010.11 135.099C1010.33 134.801 1010.65 134.536 1011.06 134.304C1011.48 134.067 1012.04 133.949 1012.75 133.949C1013.67 133.949 1014.48 134.179 1015.18 134.638C1015.88 135.097 1016.43 135.748 1016.82 136.591C1017.21 137.434 1017.41 138.428 1017.41 139.574C1017.41 140.729 1017.21 141.731 1016.82 142.578C1016.43 143.421 1015.88 144.074 1015.19 144.538C1014.49 144.998 1013.69 145.227 1012.78 145.227C1012.08 145.227 1011.52 145.111 1011.1 144.879C1010.68 144.643 1010.35 144.375 1010.12 144.077C1009.9 143.774 1009.72 143.523 1009.6 143.324H1009.46V149.091H1007.78ZM1009.43 139.545C1009.43 140.369 1009.55 141.096 1009.79 141.726C1010.03 142.351 1010.38 142.841 1010.85 143.196C1011.31 143.546 1011.88 143.722 1012.55 143.722C1013.25 143.722 1013.84 143.537 1014.31 143.168C1014.78 142.794 1015.14 142.292 1015.37 141.662C1015.61 141.027 1015.73 140.322 1015.73 139.545C1015.73 138.778 1015.62 138.087 1015.38 137.472C1015.15 136.851 1014.79 136.361 1014.32 136.001C1013.85 135.637 1013.26 135.455 1012.55 135.455C1011.87 135.455 1011.3 135.627 1010.83 135.973C1010.37 136.314 1010.02 136.792 1009.78 137.408C1009.55 138.018 1009.43 138.731 1009.43 139.545ZM1023.18 145.256C1022.49 145.256 1021.86 145.125 1021.3 144.865C1020.73 144.6 1020.28 144.219 1019.95 143.722C1019.62 143.22 1019.46 142.614 1019.46 141.903C1019.46 141.278 1019.58 140.772 1019.83 140.384C1020.07 139.991 1020.4 139.683 1020.81 139.46C1021.22 139.238 1021.68 139.072 1022.18 138.963C1022.68 138.849 1023.18 138.759 1023.69 138.693C1024.35 138.608 1024.89 138.544 1025.3 138.501C1025.72 138.454 1026.02 138.376 1026.21 138.267C1026.4 138.158 1026.5 137.969 1026.5 137.699V137.642C1026.5 136.941 1026.31 136.397 1025.93 136.009C1025.55 135.62 1024.97 135.426 1024.2 135.426C1023.4 135.426 1022.77 135.601 1022.32 135.952C1021.86 136.302 1021.54 136.676 1021.36 137.074L1019.77 136.506C1020.05 135.843 1020.43 135.327 1020.91 134.957C1021.38 134.583 1021.9 134.323 1022.47 134.176C1023.04 134.025 1023.59 133.949 1024.14 133.949C1024.49 133.949 1024.9 133.991 1025.35 134.077C1025.81 134.157 1026.25 134.325 1026.68 134.581C1027.11 134.837 1027.47 135.223 1027.75 135.739C1028.04 136.255 1028.18 136.946 1028.18 137.812V145H1026.5V143.523H1026.42C1026.3 143.759 1026.11 144.013 1025.85 144.283C1025.58 144.553 1025.23 144.782 1024.79 144.972C1024.35 145.161 1023.81 145.256 1023.18 145.256ZM1023.43 143.75C1024.1 143.75 1024.66 143.62 1025.11 143.359C1025.57 143.099 1025.91 142.763 1026.15 142.351C1026.38 141.939 1026.5 141.506 1026.5 141.051V139.517C1026.43 139.602 1026.27 139.68 1026.03 139.751C1025.8 139.818 1025.52 139.877 1025.21 139.929C1024.9 139.976 1024.6 140.019 1024.31 140.057C1024.02 140.09 1023.78 140.118 1023.6 140.142C1023.17 140.199 1022.76 140.291 1022.38 140.419C1022.01 140.542 1021.71 140.729 1021.47 140.98C1021.25 141.226 1021.13 141.562 1021.13 141.989C1021.13 142.571 1021.35 143.011 1021.78 143.31C1022.21 143.603 1022.77 143.75 1023.43 143.75ZM1035.67 145.227C1034.65 145.227 1033.77 144.986 1033.03 144.503C1032.29 144.02 1031.72 143.355 1031.32 142.507C1030.92 141.66 1030.73 140.691 1030.73 139.602C1030.73 138.494 1030.93 137.517 1031.34 136.669C1031.75 135.817 1032.32 135.152 1033.06 134.673C1033.79 134.19 1034.66 133.949 1035.64 133.949C1036.41 133.949 1037.1 134.091 1037.71 134.375C1038.33 134.659 1038.83 135.057 1039.23 135.568C1039.62 136.08 1039.86 136.676 1039.96 137.358H1038.28C1038.15 136.861 1037.87 136.42 1037.43 136.037C1036.99 135.649 1036.41 135.455 1035.67 135.455C1035.02 135.455 1034.44 135.625 1033.95 135.966C1033.46 136.302 1033.08 136.778 1032.81 137.393C1032.54 138.004 1032.4 138.722 1032.4 139.545C1032.4 140.388 1032.53 141.122 1032.8 141.747C1033.07 142.372 1033.45 142.857 1033.94 143.203C1034.43 143.549 1035.01 143.722 1035.67 143.722C1036.1 143.722 1036.5 143.646 1036.86 143.494C1037.21 143.343 1037.51 143.125 1037.76 142.841C1038 142.557 1038.18 142.216 1038.28 141.818H1039.96C1039.86 142.462 1039.63 143.042 1039.26 143.558C1038.89 144.07 1038.4 144.477 1037.79 144.78C1037.18 145.078 1036.47 145.227 1035.67 145.227ZM1042.41 145V134.091H1044.09V145H1042.41ZM1043.26 132.273C1042.93 132.273 1042.65 132.161 1042.42 131.939C1042.18 131.716 1042.07 131.449 1042.07 131.136C1042.07 130.824 1042.18 130.556 1042.42 130.334C1042.65 130.111 1042.93 130 1043.26 130C1043.59 130 1043.87 130.111 1044.1 130.334C1044.34 130.556 1044.45 130.824 1044.45 131.136C1044.45 131.449 1044.34 131.716 1044.1 131.939C1043.87 132.161 1043.59 132.273 1043.26 132.273ZM1048.83 138.438V145H1047.16V134.091H1048.77V135.795H1048.92C1049.17 135.241 1049.56 134.796 1050.08 134.46C1050.6 134.119 1051.27 133.949 1052.1 133.949C1052.84 133.949 1053.48 134.1 1054.04 134.403C1054.59 134.702 1055.02 135.156 1055.33 135.767C1055.64 136.373 1055.79 137.14 1055.79 138.068V145H1054.12V138.182C1054.12 137.325 1053.89 136.657 1053.45 136.179C1053 135.696 1052.39 135.455 1051.62 135.455C1051.08 135.455 1050.6 135.571 1050.18 135.803C1049.76 136.035 1049.44 136.373 1049.19 136.818C1048.95 137.263 1048.83 137.803 1048.83 138.438ZM1063.26 149.318C1062.45 149.318 1061.75 149.214 1061.17 149.006C1060.59 148.802 1060.1 148.532 1059.71 148.196C1059.33 147.865 1059.02 147.509 1058.8 147.131L1060.13 146.193C1060.28 146.392 1060.48 146.619 1060.71 146.875C1060.94 147.135 1061.26 147.36 1061.66 147.55C1062.07 147.744 1062.6 147.841 1063.26 147.841C1064.14 147.841 1064.87 147.628 1065.44 147.202C1066.01 146.776 1066.3 146.108 1066.3 145.199V142.983H1066.16C1066.03 143.182 1065.86 143.428 1065.63 143.722C1065.41 144.01 1065.09 144.268 1064.66 144.496C1064.25 144.718 1063.68 144.83 1062.97 144.83C1062.09 144.83 1061.3 144.621 1060.6 144.205C1059.91 143.788 1059.35 143.182 1058.95 142.386C1058.54 141.591 1058.34 140.625 1058.34 139.489C1058.34 138.371 1058.54 137.398 1058.93 136.57C1059.33 135.736 1059.87 135.092 1060.57 134.638C1061.27 134.179 1062.08 133.949 1063 133.949C1063.71 133.949 1064.28 134.067 1064.69 134.304C1065.11 134.536 1065.44 134.801 1065.66 135.099C1065.89 135.393 1066.06 135.634 1066.18 135.824H1066.35V134.091H1067.97V145.312C1067.97 146.25 1067.76 147.012 1067.33 147.599C1066.91 148.191 1066.34 148.625 1065.63 148.899C1064.92 149.179 1064.13 149.318 1063.26 149.318ZM1063.2 143.324C1063.87 143.324 1064.44 143.17 1064.91 142.862C1065.37 142.554 1065.72 142.112 1065.96 141.534C1066.21 140.956 1066.33 140.265 1066.33 139.46C1066.33 138.674 1066.21 137.981 1065.97 137.379C1065.73 136.778 1065.38 136.307 1064.92 135.966C1064.46 135.625 1063.88 135.455 1063.2 135.455C1062.49 135.455 1061.9 135.634 1061.43 135.994C1060.96 136.354 1060.6 136.837 1060.37 137.443C1060.14 138.049 1060.02 138.722 1060.02 139.46C1060.02 140.218 1060.14 140.888 1060.37 141.47C1060.62 142.048 1060.97 142.502 1061.44 142.834C1061.91 143.161 1062.5 143.324 1063.2 143.324Z" fill="#000E38"/>
<path d="M398.382 224.235H372.194V310.798H398.382V224.235Z" stroke="#000E38" stroke-width="2" stroke-miterlimit="10" stroke-linecap="square"/>
<path d="M429.661 224.235H410.748V310.798H429.661V224.235Z" stroke="#000E38" stroke-width="2" stroke-miterlimit="10" stroke-linecap="square"/>
<path d="M452.938 224.235H442.026V310.798H452.938V224.235Z" stroke="#000E38" stroke-width="2" stroke-miterlimit="10" stroke-linecap="square"/>
<path d="M465.305 224.235V310.798" stroke="#000E38" stroke-width="2" stroke-miterlimit="10" stroke-linecap="square"/>
<path d="M383.904 354C383.748 353.522 383.542 353.093 383.286 352.714C383.035 352.331 382.734 352.004 382.384 351.734C382.038 351.464 381.645 351.258 381.205 351.116C380.765 350.974 380.282 350.903 379.756 350.903C378.894 350.903 378.111 351.126 377.405 351.571C376.7 352.016 376.139 352.672 375.722 353.538C375.305 354.405 375.097 355.468 375.097 356.727C375.097 357.986 375.308 359.049 375.729 359.916C376.15 360.782 376.721 361.438 377.441 361.883C378.16 362.328 378.97 362.551 379.87 362.551C380.703 362.551 381.437 362.373 382.071 362.018C382.711 361.658 383.208 361.152 383.563 360.498C383.923 359.84 384.103 359.066 384.103 358.176L384.642 358.29H380.267V356.727H385.807V358.29C385.807 359.487 385.551 360.529 385.04 361.415C384.533 362.3 383.833 362.986 382.938 363.474C382.048 363.957 381.025 364.199 379.87 364.199C378.582 364.199 377.45 363.896 376.475 363.29C375.504 362.683 374.747 361.822 374.202 360.704C373.662 359.587 373.392 358.261 373.392 356.727C373.392 355.576 373.546 354.542 373.854 353.623C374.167 352.7 374.607 351.914 375.175 351.265C375.743 350.617 376.416 350.12 377.192 349.774C377.969 349.428 378.823 349.255 379.756 349.255C380.523 349.255 381.238 349.371 381.901 349.603C382.569 349.831 383.163 350.155 383.684 350.576C384.209 350.993 384.647 351.493 384.998 352.075C385.348 352.653 385.589 353.294 385.722 354H383.904ZM388.597 364V353.091H390.216V354.738H390.33C390.528 354.199 390.888 353.761 391.409 353.424C391.93 353.088 392.517 352.92 393.17 352.92C393.294 352.92 393.447 352.923 393.632 352.927C393.817 352.932 393.956 352.939 394.051 352.949V354.653C393.994 354.639 393.864 354.618 393.661 354.589C393.462 354.556 393.251 354.54 393.028 354.54C392.498 354.54 392.025 354.651 391.608 354.873C391.196 355.091 390.869 355.394 390.628 355.782C390.391 356.166 390.273 356.604 390.273 357.096V364H388.597ZM399.248 364.255C398.557 364.255 397.93 364.125 397.366 363.865C396.803 363.6 396.355 363.219 396.024 362.721C395.692 362.219 395.527 361.613 395.527 360.903C395.527 360.278 395.65 359.772 395.896 359.383C396.142 358.99 396.471 358.683 396.883 358.46C397.295 358.237 397.75 358.072 398.247 357.963C398.749 357.849 399.253 357.759 399.76 357.693C400.422 357.608 400.96 357.544 401.372 357.501C401.788 357.454 402.092 357.376 402.281 357.267C402.475 357.158 402.572 356.969 402.572 356.699V356.642C402.572 355.941 402.38 355.397 401.997 355.008C401.618 354.62 401.043 354.426 400.271 354.426C399.471 354.426 398.843 354.601 398.389 354.951C397.934 355.302 397.615 355.676 397.43 356.074L395.839 355.505C396.123 354.843 396.502 354.326 396.975 353.957C397.454 353.583 397.975 353.323 398.538 353.176C399.106 353.024 399.665 352.949 400.214 352.949C400.565 352.949 400.967 352.991 401.422 353.076C401.881 353.157 402.324 353.325 402.75 353.581C403.181 353.836 403.538 354.222 403.822 354.738C404.106 355.254 404.248 355.946 404.248 356.812V364H402.572V362.522H402.487C402.373 362.759 402.184 363.013 401.919 363.282C401.654 363.552 401.301 363.782 400.86 363.971C400.42 364.161 399.883 364.255 399.248 364.255ZM399.504 362.75C400.167 362.75 400.725 362.62 401.18 362.359C401.639 362.099 401.985 361.763 402.217 361.351C402.454 360.939 402.572 360.505 402.572 360.051V358.517C402.501 358.602 402.345 358.68 402.103 358.751C401.867 358.817 401.592 358.877 401.279 358.929C400.972 358.976 400.671 359.019 400.377 359.057C400.089 359.09 399.854 359.118 399.674 359.142C399.239 359.199 398.832 359.291 398.453 359.419C398.079 359.542 397.776 359.729 397.544 359.98C397.316 360.226 397.203 360.562 397.203 360.988C397.203 361.571 397.418 362.011 397.849 362.309C398.285 362.603 398.836 362.75 399.504 362.75ZM411.427 364.227C410.518 364.227 409.715 363.997 409.019 363.538C408.323 363.074 407.779 362.421 407.386 361.578C406.993 360.73 406.796 359.729 406.796 358.574C406.796 357.428 406.993 356.433 407.386 355.591C407.779 354.748 408.326 354.097 409.026 353.638C409.727 353.178 410.537 352.949 411.455 352.949C412.165 352.949 412.727 353.067 413.138 353.304C413.555 353.536 413.872 353.801 414.09 354.099C414.313 354.393 414.486 354.634 414.609 354.824H414.751V349.454H416.427V364H414.808V362.324H414.609C414.486 362.522 414.31 362.773 414.083 363.076C413.856 363.375 413.531 363.642 413.11 363.879C412.689 364.111 412.128 364.227 411.427 364.227ZM411.654 362.721C412.326 362.721 412.895 362.546 413.359 362.196C413.823 361.841 414.175 361.351 414.417 360.726C414.658 360.096 414.779 359.369 414.779 358.545C414.779 357.731 414.661 357.018 414.424 356.407C414.187 355.792 413.837 355.314 413.373 354.973C412.909 354.627 412.336 354.454 411.654 354.454C410.944 354.454 410.352 354.637 409.879 355.001C409.41 355.361 409.057 355.851 408.82 356.471C408.588 357.087 408.472 357.778 408.472 358.545C408.472 359.322 408.591 360.027 408.827 360.662C409.069 361.291 409.424 361.793 409.893 362.167C410.366 362.537 410.953 362.721 411.654 362.721ZM419.729 364V353.091H421.406V364H419.729ZM420.582 351.272C420.255 351.272 419.973 351.161 419.737 350.939C419.504 350.716 419.388 350.449 419.388 350.136C419.388 349.824 419.504 349.556 419.737 349.334C419.973 349.111 420.255 349 420.582 349C420.908 349 421.188 349.111 421.42 349.334C421.656 349.556 421.775 349.824 421.775 350.136C421.775 350.449 421.656 350.716 421.42 350.939C421.188 351.161 420.908 351.272 420.582 351.272ZM429.049 364.227C427.998 364.227 427.092 363.995 426.329 363.531C425.572 363.062 424.987 362.409 424.575 361.571C424.168 360.728 423.964 359.748 423.964 358.63C423.964 357.513 424.168 356.528 424.575 355.676C424.987 354.819 425.56 354.151 426.294 353.673C427.032 353.19 427.894 352.949 428.879 352.949C429.447 352.949 430.008 353.043 430.562 353.233C431.116 353.422 431.62 353.73 432.075 354.156C432.529 354.577 432.892 355.136 433.162 355.832C433.431 356.528 433.566 357.385 433.566 358.403V359.113H425.157V357.665H431.862C431.862 357.049 431.739 356.5 431.493 356.017C431.251 355.534 430.905 355.153 430.456 354.873C430.011 354.594 429.485 354.454 428.879 354.454C428.211 354.454 427.634 354.62 427.146 354.951C426.663 355.278 426.291 355.704 426.031 356.23C425.77 356.755 425.64 357.319 425.64 357.92V358.886C425.64 359.71 425.782 360.408 426.066 360.981C426.355 361.549 426.755 361.983 427.267 362.281C427.778 362.575 428.372 362.721 429.049 362.721C429.49 362.721 429.887 362.66 430.243 362.537C430.602 362.409 430.913 362.219 431.173 361.969C431.433 361.713 431.635 361.396 431.777 361.017L433.396 361.471C433.225 362.021 432.939 362.504 432.537 362.92C432.134 363.332 431.637 363.654 431.045 363.886C430.453 364.113 429.788 364.227 429.049 364.227ZM437.792 357.437V364H436.116V353.091H437.735V354.795H437.877C438.133 354.241 438.521 353.796 439.042 353.46C439.563 353.119 440.235 352.949 441.059 352.949C441.798 352.949 442.444 353.1 442.998 353.403C443.552 353.701 443.983 354.156 444.291 354.767C444.599 355.373 444.752 356.14 444.752 357.068V364H443.076V357.182C443.076 356.325 442.854 355.657 442.409 355.179C441.964 354.696 441.353 354.454 440.576 354.454C440.041 354.454 439.563 354.57 439.142 354.802C438.725 355.034 438.396 355.373 438.154 355.818C437.913 356.263 437.792 356.803 437.792 357.437ZM452.56 353.091V354.511H446.906V353.091H452.56ZM448.554 350.477H450.23V360.875C450.23 361.348 450.299 361.703 450.436 361.94C450.578 362.172 450.758 362.328 450.976 362.409C451.198 362.485 451.433 362.522 451.679 362.522C451.864 362.522 452.015 362.513 452.134 362.494C452.252 362.47 452.347 362.451 452.418 362.437L452.759 363.943C452.645 363.986 452.486 364.028 452.283 364.071C452.079 364.118 451.821 364.142 451.509 364.142C451.035 364.142 450.571 364.04 450.116 363.836C449.667 363.633 449.293 363.323 448.994 362.906C448.701 362.489 448.554 361.964 448.554 361.329V350.477ZM462.613 355.534L461.107 355.96C461.013 355.709 460.873 355.465 460.688 355.228C460.508 354.987 460.262 354.788 459.95 354.632C459.637 354.476 459.237 354.397 458.749 354.397C458.082 354.397 457.525 354.551 457.08 354.859C456.64 355.162 456.42 355.548 456.42 356.017C456.42 356.433 456.571 356.763 456.874 357.004C457.177 357.245 457.651 357.447 458.295 357.608L459.914 358.005C460.889 358.242 461.616 358.604 462.094 359.092C462.573 359.575 462.812 360.198 462.812 360.96C462.812 361.585 462.632 362.144 462.272 362.636C461.917 363.129 461.42 363.517 460.781 363.801C460.141 364.085 459.398 364.227 458.55 364.227C457.438 364.227 456.517 363.986 455.788 363.503C455.058 363.02 454.597 362.314 454.403 361.386L455.994 360.988C456.145 361.576 456.432 362.016 456.853 362.309C457.279 362.603 457.835 362.75 458.522 362.75C459.303 362.75 459.924 362.584 460.383 362.253C460.847 361.916 461.079 361.514 461.079 361.045C461.079 360.666 460.946 360.349 460.681 360.094C460.416 359.833 460.009 359.639 459.46 359.511L457.641 359.085C456.642 358.848 455.908 358.481 455.44 357.984C454.976 357.482 454.744 356.855 454.744 356.102C454.744 355.486 454.916 354.942 455.262 354.469C455.612 353.995 456.088 353.623 456.69 353.353C457.296 353.084 457.982 352.949 458.749 352.949C459.829 352.949 460.676 353.185 461.292 353.659C461.912 354.132 462.353 354.757 462.613 355.534Z" fill="#000E38"/>
<path d="M631.884 216.962V310.072" stroke="#000E38" stroke-width="2" stroke-miterlimit="10"/>
<path d="M631.884 310.072C657.596 310.072 678.439 289.228 678.439 263.517C678.439 237.805 657.596 216.962 631.884 216.962C606.172 216.962 585.329 237.805 585.329 263.517C585.329 289.228 606.172 310.072 631.884 310.072Z" stroke="#000E38" stroke-width="2" stroke-miterlimit="10" stroke-linecap="square"/>
<path d="M609.53 356.727C609.53 358.261 609.253 359.587 608.699 360.704C608.145 361.822 607.385 362.683 606.419 363.29C605.453 363.896 604.35 364.199 603.11 364.199C601.869 364.199 600.766 363.896 599.8 363.29C598.834 362.683 598.074 361.822 597.52 360.704C596.966 359.587 596.689 358.261 596.689 356.727C596.689 355.193 596.966 353.867 597.52 352.75C598.074 351.632 598.834 350.771 599.8 350.165C600.766 349.558 601.869 349.255 603.11 349.255C604.35 349.255 605.453 349.558 606.419 350.165C607.385 350.771 608.145 351.632 608.699 352.75C609.253 353.867 609.53 355.193 609.53 356.727ZM607.826 356.727C607.826 355.468 607.615 354.405 607.194 353.538C606.777 352.672 606.211 352.016 605.496 351.571C604.786 351.126 603.99 350.903 603.11 350.903C602.229 350.903 601.431 351.126 600.716 351.571C600.006 352.016 599.44 352.672 599.019 353.538C598.602 354.405 598.394 355.468 598.394 356.727C598.394 357.986 598.602 359.049 599.019 359.916C599.44 360.782 600.006 361.438 600.716 361.883C601.431 362.328 602.229 362.551 603.11 362.551C603.99 362.551 604.786 362.328 605.496 361.883C606.211 361.438 606.777 360.782 607.194 359.916C607.615 359.049 607.826 357.986 607.826 356.727ZM612.265 368.091V353.091H613.884V354.824H614.083C614.206 354.634 614.376 354.393 614.594 354.099C614.817 353.801 615.134 353.536 615.546 353.304C615.962 353.067 616.526 352.949 617.236 352.949C618.155 352.949 618.964 353.178 619.665 353.638C620.366 354.097 620.913 354.748 621.306 355.591C621.699 356.433 621.895 357.428 621.895 358.574C621.895 359.729 621.699 360.73 621.306 361.578C620.913 362.421 620.368 363.074 619.672 363.538C618.976 363.997 618.174 364.227 617.265 364.227C616.564 364.227 616.003 364.111 615.581 363.879C615.16 363.642 614.836 363.375 614.608 363.076C614.381 362.773 614.206 362.522 614.083 362.324H613.941V368.091H612.265ZM613.912 358.545C613.912 359.369 614.033 360.096 614.275 360.726C614.516 361.351 614.869 361.841 615.333 362.196C615.797 362.546 616.365 362.721 617.037 362.721C617.738 362.721 618.323 362.537 618.792 362.167C619.265 361.793 619.62 361.291 619.857 360.662C620.098 360.027 620.219 359.322 620.219 358.545C620.219 357.778 620.101 357.087 619.864 356.471C619.632 355.851 619.279 355.361 618.806 355.001C618.337 354.637 617.748 354.454 617.037 354.454C616.355 354.454 615.783 354.627 615.319 354.973C614.855 355.314 614.504 355.792 614.267 356.407C614.031 357.018 613.912 357.731 613.912 358.545ZM627.662 364.255C626.971 364.255 626.344 364.125 625.78 363.865C625.217 363.6 624.769 363.219 624.438 362.721C624.106 362.219 623.941 361.613 623.941 360.903C623.941 360.278 624.064 359.772 624.31 359.383C624.556 358.99 624.885 358.683 625.297 358.46C625.709 358.237 626.164 358.072 626.661 357.963C627.163 357.849 627.667 357.759 628.174 357.693C628.837 357.608 629.374 357.544 629.786 357.501C630.203 357.454 630.506 357.376 630.695 357.267C630.889 357.158 630.986 356.969 630.986 356.699V356.642C630.986 355.941 630.794 355.397 630.411 355.008C630.032 354.62 629.457 354.426 628.685 354.426C627.885 354.426 627.257 354.601 626.803 354.951C626.348 355.302 626.029 355.676 625.844 356.074L624.253 355.505C624.537 354.843 624.916 354.326 625.39 353.957C625.868 353.583 626.389 353.323 626.952 353.176C627.52 353.024 628.079 352.949 628.628 352.949C628.979 352.949 629.381 352.991 629.836 353.076C630.295 353.157 630.738 353.325 631.164 353.581C631.595 353.836 631.952 354.222 632.236 354.738C632.52 355.254 632.662 355.946 632.662 356.812V364H630.986V362.522H630.901C630.787 362.759 630.598 363.013 630.333 363.282C630.068 363.552 629.715 363.782 629.275 363.971C628.834 364.161 628.297 364.255 627.662 364.255ZM627.918 362.75C628.581 362.75 629.14 362.62 629.594 362.359C630.053 362.099 630.399 361.763 630.631 361.351C630.868 360.939 630.986 360.505 630.986 360.051V358.517C630.915 358.602 630.759 358.68 630.517 358.751C630.281 358.817 630.006 358.877 629.694 358.929C629.386 358.976 629.085 359.019 628.792 359.057C628.503 359.09 628.268 359.118 628.088 359.142C627.653 359.199 627.246 359.291 626.867 359.419C626.493 359.542 626.19 359.729 625.958 359.98C625.73 360.226 625.617 360.562 625.617 360.988C625.617 361.571 625.832 362.011 626.263 362.309C626.699 362.603 627.25 362.75 627.918 362.75ZM640.153 364.227C639.131 364.227 638.25 363.986 637.511 363.503C636.773 363.02 636.205 362.354 635.807 361.507C635.409 360.659 635.21 359.691 635.21 358.602C635.21 357.494 635.414 356.516 635.821 355.669C636.233 354.817 636.806 354.151 637.54 353.673C638.278 353.19 639.14 352.949 640.125 352.949C640.892 352.949 641.583 353.091 642.199 353.375C642.814 353.659 643.319 354.057 643.712 354.568C644.105 355.079 644.348 355.676 644.443 356.358H642.767C642.639 355.861 642.355 355.42 641.915 355.037C641.479 354.648 640.892 354.454 640.153 354.454C639.5 354.454 638.927 354.625 638.435 354.966C637.947 355.302 637.566 355.778 637.291 356.393C637.021 357.004 636.886 357.721 636.886 358.545C636.886 359.388 637.019 360.122 637.284 360.747C637.554 361.372 637.933 361.857 638.42 362.203C638.913 362.549 639.491 362.721 640.153 362.721C640.589 362.721 640.984 362.646 641.339 362.494C641.695 362.343 641.995 362.125 642.241 361.841C642.488 361.557 642.663 361.216 642.767 360.818H644.443C644.348 361.462 644.114 362.042 643.74 362.558C643.371 363.069 642.881 363.477 642.27 363.78C641.664 364.078 640.958 364.227 640.153 364.227ZM646.893 364V353.091H648.57V364H646.893ZM647.746 351.272C647.419 351.272 647.137 351.161 646.901 350.939C646.669 350.716 646.553 350.449 646.553 350.136C646.553 349.824 646.669 349.556 646.901 349.334C647.137 349.111 647.419 349 647.746 349C648.072 349 648.352 349.111 648.584 349.334C648.821 349.556 648.939 349.824 648.939 350.136C648.939 350.449 648.821 350.716 648.584 350.939C648.352 351.161 648.072 351.272 647.746 351.272ZM656.384 353.091V354.511H650.73V353.091H656.384ZM652.378 350.477H654.054V360.875C654.054 361.348 654.123 361.703 654.26 361.94C654.402 362.172 654.582 362.328 654.8 362.409C655.023 362.485 655.257 362.522 655.503 362.522C655.688 362.522 655.839 362.513 655.958 362.494C656.076 362.47 656.171 362.451 656.242 362.437L656.583 363.943C656.469 363.986 656.31 364.028 656.107 364.071C655.903 364.118 655.645 364.142 655.333 364.142C654.859 364.142 654.395 364.04 653.941 363.836C653.491 363.633 653.117 363.323 652.819 362.906C652.525 362.489 652.378 361.964 652.378 361.329V350.477ZM659.985 368.091C659.701 368.091 659.447 368.067 659.225 368.02C659.002 367.977 658.848 367.934 658.763 367.892L659.189 366.415C659.596 366.519 659.956 366.557 660.269 366.528C660.581 366.5 660.858 366.36 661.1 366.109C661.346 365.863 661.571 365.463 661.775 364.909L662.087 364.057L658.053 353.091H659.871L662.882 361.784H662.996L666.007 353.091H667.826L663.195 365.591C662.987 366.154 662.729 366.62 662.421 366.99C662.113 367.364 661.756 367.641 661.348 367.821C660.946 368.001 660.491 368.091 659.985 368.091Z" fill="#000E38"/>
<path d="M802.828 221.327V314.437H895.938" stroke="#000E38" stroke-width="2" stroke-miterlimit="10" stroke-linecap="square"/>
<path d="M855.93 302.072C855.93 279.575 837.691 261.336 815.194 261.336" stroke="#000E38" stroke-width="2" stroke-miterlimit="10" stroke-linecap="square"/>
<path d="M828.773 364V349.455H833.688C834.824 349.455 835.757 349.649 836.486 350.037C837.215 350.42 837.755 350.948 838.105 351.621C838.456 352.293 838.631 353.058 838.631 353.915C838.631 354.772 838.456 355.532 838.105 356.195C837.755 356.857 837.218 357.378 836.493 357.757C835.769 358.131 834.843 358.318 833.716 358.318H829.739V356.727H833.659C834.436 356.727 835.061 356.614 835.534 356.386C836.013 356.159 836.358 355.837 836.571 355.42C836.789 354.999 836.898 354.497 836.898 353.915C836.898 353.332 836.789 352.823 836.571 352.388C836.354 351.952 836.006 351.616 835.527 351.379C835.049 351.138 834.417 351.017 833.631 351.017H830.534V364H828.773ZM835.62 357.466L839.199 364H837.154L833.631 357.466H835.62ZM844.549 364.256C843.858 364.256 843.23 364.125 842.667 363.865C842.103 363.6 841.656 363.219 841.325 362.722C840.993 362.22 840.827 361.614 840.827 360.903C840.827 360.278 840.951 359.772 841.197 359.384C841.443 358.991 841.772 358.683 842.184 358.46C842.596 358.238 843.05 358.072 843.548 357.963C844.049 357.849 844.554 357.759 845.06 357.693C845.723 357.608 846.261 357.544 846.673 357.501C847.089 357.454 847.392 357.376 847.582 357.267C847.776 357.158 847.873 356.969 847.873 356.699V356.642C847.873 355.941 847.681 355.397 847.298 355.009C846.919 354.62 846.344 354.426 845.572 354.426C844.772 354.426 844.144 354.601 843.69 354.952C843.235 355.302 842.915 355.676 842.731 356.074L841.14 355.506C841.424 354.843 841.803 354.327 842.276 353.957C842.754 353.583 843.275 353.323 843.839 353.176C844.407 353.025 844.966 352.949 845.515 352.949C845.865 352.949 846.268 352.991 846.722 353.077C847.182 353.157 847.624 353.325 848.05 353.581C848.481 353.837 848.839 354.223 849.123 354.739C849.407 355.255 849.549 355.946 849.549 356.812V364H847.873V362.523H847.788C847.674 362.759 847.485 363.013 847.219 363.283C846.954 363.553 846.602 363.782 846.161 363.972C845.721 364.161 845.183 364.256 844.549 364.256ZM844.805 362.75C845.468 362.75 846.026 362.62 846.481 362.359C846.94 362.099 847.286 361.763 847.518 361.351C847.754 360.939 847.873 360.506 847.873 360.051V358.517C847.802 358.602 847.646 358.68 847.404 358.751C847.167 358.818 846.893 358.877 846.58 358.929C846.272 358.976 845.972 359.019 845.678 359.057C845.389 359.09 845.155 359.118 844.975 359.142C844.54 359.199 844.132 359.291 843.754 359.419C843.379 359.542 843.076 359.729 842.844 359.98C842.617 360.226 842.504 360.562 842.504 360.989C842.504 361.571 842.719 362.011 843.15 362.31C843.585 362.603 844.137 362.75 844.805 362.75ZM856.728 364.227C855.819 364.227 855.016 363.998 854.32 363.538C853.624 363.074 853.079 362.421 852.686 361.578C852.293 360.731 852.097 359.729 852.097 358.574C852.097 357.428 852.293 356.434 852.686 355.591C853.079 354.748 853.626 354.097 854.327 353.638C855.028 353.179 855.837 352.949 856.756 352.949C857.466 352.949 858.027 353.067 858.439 353.304C858.856 353.536 859.173 353.801 859.391 354.099C859.614 354.393 859.786 354.634 859.909 354.824H860.051V349.455H861.728V364H860.108V362.324H859.909C859.786 362.523 859.611 362.774 859.384 363.077C859.157 363.375 858.832 363.643 858.411 363.879C857.989 364.111 857.428 364.227 856.728 364.227ZM856.955 362.722C857.627 362.722 858.195 362.546 858.659 362.196C859.123 361.841 859.476 361.351 859.718 360.726C859.959 360.096 860.08 359.369 860.08 358.545C860.08 357.731 859.962 357.018 859.725 356.408C859.488 355.792 859.138 355.314 858.674 354.973C858.21 354.627 857.637 354.455 856.955 354.455C856.245 354.455 855.653 354.637 855.179 355.001C854.711 355.361 854.358 355.851 854.121 356.472C853.889 357.087 853.773 357.778 853.773 358.545C853.773 359.322 853.891 360.027 854.128 360.662C854.37 361.292 854.725 361.794 855.194 362.168C855.667 362.537 856.254 362.722 856.955 362.722ZM865.03 364V353.091H866.706V364H865.03ZM865.882 351.273C865.556 351.273 865.274 351.161 865.037 350.939C864.805 350.716 864.689 350.449 864.689 350.136C864.689 349.824 864.805 349.556 865.037 349.334C865.274 349.111 865.556 349 865.882 349C866.209 349 866.489 349.111 866.721 349.334C866.957 349.556 867.076 349.824 867.076 350.136C867.076 350.449 866.957 350.716 866.721 350.939C866.489 351.161 866.209 351.273 865.882 351.273ZM869.776 364V353.091H871.452V364H869.776ZM870.629 351.273C870.302 351.273 870.02 351.161 869.783 350.939C869.551 350.716 869.435 350.449 869.435 350.136C869.435 349.824 869.551 349.556 869.783 349.334C870.02 349.111 870.302 349 870.629 349C870.955 349 871.235 349.111 871.467 349.334C871.703 349.556 871.822 349.824 871.822 350.136C871.822 350.449 871.703 350.716 871.467 350.939C871.235 351.161 870.955 351.273 870.629 351.273Z" fill="#000E38"/>
<path d="M1072.7 226.417H989.049V309.343H1072.7V226.417Z" stroke="#000E38" stroke-width="2" stroke-miterlimit="10" stroke-linecap="square"/>
<path d="M1021.78 261.333C1026.2 261.333 1029.78 257.914 1029.78 253.695C1029.78 249.477 1026.2 246.057 1021.78 246.057C1017.36 246.057 1013.78 249.477 1013.78 253.695C1013.78 257.914 1017.36 261.333 1021.78 261.333Z" stroke="#000E38" stroke-width="2" stroke-miterlimit="10" stroke-linecap="square"/>
<path d="M998.506 286.066L1012.38 272.202L1024.71 284.525L1049.37 259.879L1063.25 273.742" stroke="#000E38" stroke-width="2" stroke-miterlimit="10" stroke-linecap="square"/>
<path d="M1009.75 349.454V364H1007.99V349.454H1009.75ZM1017.49 364.227C1016.46 364.227 1015.58 363.986 1014.84 363.503C1014.1 363.02 1013.54 362.354 1013.14 361.507C1012.74 360.659 1012.54 359.691 1012.54 358.602C1012.54 357.494 1012.75 356.516 1013.15 355.669C1013.56 354.817 1014.14 354.151 1014.87 353.673C1015.61 353.19 1016.47 352.949 1017.46 352.949C1018.22 352.949 1018.92 353.091 1019.53 353.375C1020.15 353.659 1020.65 354.057 1021.04 354.568C1021.44 355.079 1021.68 355.676 1021.78 356.358H1020.1C1019.97 355.861 1019.69 355.42 1019.25 355.037C1018.81 354.648 1018.22 354.454 1017.49 354.454C1016.83 354.454 1016.26 354.625 1015.77 354.966C1015.28 355.302 1014.9 355.778 1014.62 356.393C1014.35 357.004 1014.22 357.721 1014.22 358.545C1014.22 359.388 1014.35 360.122 1014.62 360.747C1014.89 361.372 1015.26 361.857 1015.75 362.203C1016.24 362.549 1016.82 362.721 1017.49 362.721C1017.92 362.721 1018.32 362.646 1018.67 362.494C1019.03 362.343 1019.33 362.125 1019.57 361.841C1019.82 361.557 1019.99 361.216 1020.1 360.818H1021.78C1021.68 361.462 1021.45 362.042 1021.07 362.558C1020.7 363.069 1020.21 363.477 1019.6 363.78C1019 364.078 1018.29 364.227 1017.49 364.227ZM1028.66 364.227C1027.67 364.227 1026.81 363.993 1026.06 363.524C1025.33 363.055 1024.75 362.399 1024.33 361.557C1023.92 360.714 1023.71 359.729 1023.71 358.602C1023.71 357.466 1023.92 356.474 1024.33 355.626C1024.75 354.779 1025.33 354.12 1026.06 353.652C1026.81 353.183 1027.67 352.949 1028.66 352.949C1029.64 352.949 1030.5 353.183 1031.24 353.652C1031.99 354.12 1032.56 354.779 1032.98 355.626C1033.39 356.474 1033.6 357.466 1033.6 358.602C1033.6 359.729 1033.39 360.714 1032.98 361.557C1032.56 362.399 1031.99 363.055 1031.24 363.524C1030.5 363.993 1029.64 364.227 1028.66 364.227ZM1028.66 362.721C1029.41 362.721 1030.02 362.53 1030.5 362.146C1030.99 361.763 1031.34 361.258 1031.58 360.633C1031.81 360.008 1031.92 359.331 1031.92 358.602C1031.92 357.873 1031.81 357.193 1031.58 356.564C1031.34 355.934 1030.99 355.425 1030.5 355.037C1030.02 354.648 1029.41 354.454 1028.66 354.454C1027.91 354.454 1027.29 354.648 1026.81 355.037C1026.33 355.425 1025.97 355.934 1025.74 356.564C1025.51 357.193 1025.39 357.873 1025.39 358.602C1025.39 359.331 1025.51 360.008 1025.74 360.633C1025.97 361.258 1026.33 361.763 1026.81 362.146C1027.29 362.53 1027.91 362.721 1028.66 362.721ZM1037.84 357.437V364H1036.16V353.091H1037.78V354.795H1037.92C1038.18 354.241 1038.56 353.796 1039.09 353.46C1039.61 353.119 1040.28 352.949 1041.1 352.949C1041.84 352.949 1042.49 353.1 1043.04 353.403C1043.6 353.701 1044.03 354.156 1044.33 354.767C1044.64 355.373 1044.8 356.14 1044.8 357.068V364H1043.12V357.182C1043.12 356.325 1042.9 355.657 1042.45 355.179C1042.01 354.696 1041.4 354.454 1040.62 354.454C1040.08 354.454 1039.61 354.57 1039.18 354.802C1038.77 355.034 1038.44 355.373 1038.2 355.818C1037.96 356.263 1037.84 356.803 1037.84 357.437ZM1055.59 355.534L1054.08 355.96C1053.99 355.709 1053.85 355.465 1053.66 355.228C1053.48 354.987 1053.23 354.788 1052.92 354.632C1052.61 354.476 1052.21 354.397 1051.72 354.397C1051.05 354.397 1050.5 354.551 1050.05 354.859C1049.61 355.162 1049.39 355.548 1049.39 356.017C1049.39 356.433 1049.54 356.763 1049.85 357.004C1050.15 357.245 1050.62 357.447 1051.27 357.608L1052.89 358.005C1053.86 358.242 1054.59 358.604 1055.07 359.092C1055.55 359.575 1055.78 360.198 1055.78 360.96C1055.78 361.585 1055.6 362.144 1055.24 362.636C1054.89 363.129 1054.39 363.517 1053.75 363.801C1053.11 364.085 1052.37 364.227 1051.52 364.227C1050.41 364.227 1049.49 363.986 1048.76 363.503C1048.03 363.02 1047.57 362.314 1047.38 361.386L1048.97 360.988C1049.12 361.576 1049.4 362.016 1049.83 362.309C1050.25 362.603 1050.81 362.75 1051.49 362.75C1052.28 362.75 1052.9 362.584 1053.36 362.253C1053.82 361.916 1054.05 361.514 1054.05 361.045C1054.05 360.666 1053.92 360.349 1053.65 360.094C1053.39 359.833 1052.98 359.639 1052.43 359.511L1050.61 359.085C1049.61 358.848 1048.88 358.481 1048.41 357.984C1047.95 357.482 1047.72 356.855 1047.72 356.102C1047.72 355.486 1047.89 354.942 1048.23 354.469C1048.59 353.995 1049.06 353.623 1049.66 353.353C1050.27 353.084 1050.95 352.949 1051.72 352.949C1052.8 352.949 1053.65 353.185 1054.26 353.659C1054.88 354.132 1055.33 354.757 1055.59 355.534Z" fill="#000E38"/>
</svg>
