<svg width="24" height="24" viewBox="0 0 24 24" fill="none" xmlns="http://www.w3.org/2000/svg">
<path d="M21.8156 13.4556C21.7944 13.1056 21.7542 12.7569 21.695 12.411C21.5955 11.3763 21.126 10.4122 20.3729 9.69579C19.6197 8.97937 18.6334 8.55868 17.595 8.51097C16.8699 8.41275 16.1317 8.51175 15.4581 8.79753C14.7845 9.08331 14.2003 9.54533 13.767 10.135L13.7265 10.1896C13.6717 10.2635 13.6173 10.3368 13.563 10.414V9.22703C13.563 9.08744 13.5301 8.99164 13.4583 8.93366C13.4047 8.83406 13.3019 8.78899 13.138 8.78899H9.83201C9.56001 8.78999 9.454 8.89699 9.454 9.16799C9.45448 9.33771 9.45749 9.5063 9.46049 9.6745C9.46375 9.85709 9.467 10.0393 9.467 10.222C9.45767 13.6647 9.44866 17.1073 9.44 20.55C9.439 20.92 9.521 21.004 9.885 21.004H12.976C13.065 21.004 13.1391 21.0019 13.2009 20.9953C13.5172 20.977 13.561 20.8812 13.561 20.483C13.561 19.7767 13.5617 19.0704 13.5623 18.364C13.5637 16.9514 13.565 15.5387 13.561 14.126C13.5447 13.7475 13.6221 13.3707 13.7865 13.0293C13.9508 12.6879 14.1969 12.3924 14.503 12.169C14.7613 11.9586 15.069 11.8175 15.3971 11.7592C15.7251 11.7009 16.0626 11.7273 16.3776 11.8358C16.6926 11.9444 16.9747 12.1315 17.1971 12.3795C17.2611 12.4507 17.3195 12.5264 17.372 12.6056C17.4862 12.7901 17.5696 12.9929 17.618 13.206C17.7213 13.6403 17.7723 14.0855 17.77 14.532C17.7818 16.0002 17.78 17.4668 17.7783 18.9354C17.7776 19.4643 17.777 19.9934 17.777 20.523C17.777 20.924 17.853 21.002 18.246 21.002H21.361C21.5345 21.002 21.6477 20.9867 21.7201 20.9367C21.8157 20.8734 21.842 20.7519 21.842 20.529C21.842 19.9401 21.8427 19.3512 21.8433 18.7624C21.8451 17.1926 21.8469 15.6231 21.836 14.053C21.8354 13.8536 21.8286 13.6544 21.8156 13.4556Z" fill="#A7ACBA"/>
<path d="M3.26701 20.569V9.33203C3.26701 9.29362 3.26765 9.25825 3.26915 9.22568C3.27294 8.85221 3.35132 8.78198 3.741 8.78198H6.87901C7.23501 8.78198 7.31801 8.86297 7.31801 9.21597V20.574C7.31801 20.8953 7.24121 20.988 6.9467 20.9972C6.92214 20.9984 6.89594 20.999 6.86801 20.999H3.70301C3.34701 20.999 3.26701 20.921 3.26701 20.569Z" fill="#A7ACBA"/>
<path d="M3.97023 3.35772C4.32662 3.12237 4.74476 2.9979 5.17185 3.00003C5.1769 3 5.18196 2.99999 5.18702 3C5.61721 3.00218 6.0371 3.13182 6.39364 3.37255C6.75018 3.61328 7.02737 3.95429 7.19017 4.3525C7.35298 4.7507 7.39408 5.18824 7.30831 5.60981C7.22255 6.03137 7.01375 6.41804 6.70829 6.72098C6.40284 7.02392 6.01445 7.22952 5.59219 7.3118C5.16993 7.39408 4.73276 7.34935 4.33592 7.18326C3.93907 7.01718 3.60036 6.73718 3.36258 6.37867C3.12481 6.02015 2.99863 5.59919 3.00001 5.169C3.00003 5.16635 3.00005 5.16372 3.00008 5.16108C3.00007 4.87443 3.05709 4.58923 3.16937 4.32252C3.33511 3.92884 3.61379 3.59311 3.97023 3.35772Z" fill="#A7ACBA"/>
</svg>
